<svg width="16" height="16" viewBox="0 0 16 16" fill="none" xmlns="http://www.w3.org/2000/svg">
<path d="M1 2H15V14H1V2ZM2.27273 3.33333V12.6667H13.7273V3.33333H2.27273ZM10.2273 6.33333C10.396 6.33333 10.5579 6.40357 10.6772 6.5286C10.7966 6.65362 10.8636 6.82319 10.8636 7C10.8636 7.17681 10.7966 7.34638 10.6772 7.4714C10.5579 7.59643 10.396 7.66667 10.2273 7.66667C10.0585 7.66667 9.89664 7.59643 9.7773 7.4714C9.65795 7.34638 9.59091 7.17681 9.59091 7C9.59091 6.82319 9.65795 6.65362 9.7773 6.5286C9.89664 6.40357 10.0585 6.33333 10.2273 6.33333ZM11.7545 8.2C11.9673 7.90286 12.0968 7.54953 12.1286 7.17961C12.1605 6.80969 12.0934 6.43778 11.9348 6.10557C11.7763 5.77336 11.5325 5.49397 11.2309 5.2987C10.9294 5.10343 10.5818 5 10.2273 5C9.87273 5 9.5252 5.10343 9.2236 5.2987C8.92201 5.49397 8.67829 5.77336 8.51973 6.10557C8.36117 6.43778 8.29406 6.80969 8.3259 7.17961C8.35774 7.54953 8.48728 7.90286 8.7 8.2C8.38386 8.44839 8.12727 8.77048 7.95055 9.14076C7.77382 9.51104 7.68182 9.91935 7.68182 10.3333V11H8.95455V10.3333C8.95455 9.97971 9.08864 9.64057 9.32732 9.39052C9.566 9.14048 9.88972 9 10.2273 9C10.5648 9 10.8885 9.14048 11.1272 9.39052C11.3659 9.64057 11.5 9.97971 11.5 10.3333V11H12.7727V10.3333C12.7727 9.46067 12.3731 8.68667 11.7545 8.2ZM3.54545 6H6.40909V7.33333H3.54545V6ZM3.54545 8.66667H6.40909V10H3.54545V8.66667Z" fill="#5A5C63"/>
</svg>
