<svg width="32" height="32" viewBox="0 0 32 32" fill="none" xmlns="http://www.w3.org/2000/svg">
<g id="sip">
<path id="Vector" d="M23.1524 12.7689C23.4174 12.5131 23.6289 12.2071 23.7744 11.8688C23.9199 11.5304 23.9966 11.1664 23.9999 10.7981C24.0032 10.4298 23.9331 10.0645 23.7937 9.72359C23.6543 9.38266 23.4484 9.07292 23.188 8.81244C22.9276 8.55197 22.6179 8.34598 22.277 8.2065C21.9361 8.06703 21.5708 7.99687 21.2025 8.00011C20.8342 8.00335 20.4702 8.07993 20.1319 8.22538C19.7935 8.37083 19.4874 8.58223 19.2317 8.84725L17.816 10.263L16.7744 9.22224L15.6292 10.3675L16.6708 11.4082L8 20.0784V24H11.9223L20.5915 15.3306L21.6322 16.3722L22.7782 15.2262L21.7367 14.1854L23.1524 12.7689ZM19.4463 14.1854L11.2509 22.3802H9.61979V20.749L17.8151 12.5542L19.4463 14.1854ZM18.9603 11.4082L20.376 9.99247C20.4831 9.88537 20.6103 9.80041 20.7502 9.74244C20.8902 9.68448 21.0401 9.65465 21.1916 9.65465C21.3431 9.65465 21.493 9.68448 21.633 9.74244C21.7729 9.80041 21.9001 9.88537 22.0072 9.99247C22.1143 10.0996 22.1992 10.2267 22.2572 10.3667C22.3152 10.5066 22.345 10.6566 22.345 10.8081C22.345 10.9595 22.3152 11.1095 22.2572 11.2495C22.1992 11.3894 22.1143 11.5165 22.0072 11.6236L20.5923 13.0394L18.9603 11.4082Z" fill="#37383C"/>
</g>
</svg>
