<svg width="20" height="20" viewBox="0 0 20 20" fill="none" xmlns="http://www.w3.org/2000/svg">
<g id="info">
<path id="Vector" d="M10 15.7273C10.7521 15.7273 11.4969 15.5791 12.1917 15.2913C12.8866 15.0035 13.518 14.5816 14.0498 14.0498C14.5816 13.518 15.0035 12.8866 15.2913 12.1917C15.5791 11.4969 15.7273 10.7521 15.7273 10C15.7273 9.24788 15.5791 8.50313 15.2913 7.80827C15.0035 7.1134 14.5816 6.48203 14.0498 5.95021C13.518 5.41838 12.8866 4.99651 12.1917 4.70869C11.4969 4.42087 10.7521 4.27273 10 4.27273C8.48103 4.27273 7.02428 4.87613 5.95021 5.95021C4.87613 7.02428 4.27273 8.48103 4.27273 10C4.27273 11.519 4.87613 12.9757 5.95021 14.0498C7.02428 15.1239 8.48103 15.7273 10 15.7273ZM17 10C17 13.8659 13.8659 17 10 17C6.13409 17 3 13.8659 3 10C3 6.13409 6.13409 3 10 3C13.8659 3 17 6.13409 17 10ZM9.36364 13.5V8.72727H10.6364V13.5H9.36364ZM10.6364 7.77273H9.36109V6.49745H10.6364V7.77273Z" fill="#37383C"/>
</g>
</svg>
