<svg width="48" height="48" viewBox="0 0 48 48" fill="none" xmlns="http://www.w3.org/2000/svg">
<g clip-path="url(#clip0_1010_71501)">
<path d="M36.75 0H11.25C5.0368 0 0 5.0368 0 11.25V36.75C0 42.9632 5.0368 48 11.25 48H36.75C42.9632 48 48 42.9632 48 36.75V11.25C48 5.0368 42.9632 0 36.75 0Z" fill="url(#paint0_radial_1010_71501)"/>
<path d="M36.75 0H11.25C5.0368 0 0 5.0368 0 11.25V36.75C0 42.9632 5.0368 48 11.25 48H36.75C42.9632 48 48 42.9632 48 36.75V11.25C48 5.0368 42.9632 0 36.75 0Z" fill="url(#paint1_radial_1010_71501)"/>
<path d="M24.0006 6C19.1122 6 18.4986 6.02142 16.5787 6.10872C14.6624 6.19656 13.3544 6.49985 12.2099 6.94499C11.0259 7.40471 10.0217 8.01976 9.02122 9.02055C8.01988 10.0212 7.40482 11.0254 6.94366 12.2089C6.49726 13.3536 6.1936 14.6622 6.10738 16.5776C6.02152 18.4976 5.99902 19.1114 5.99902 24C5.99902 28.8886 6.02062 29.5002 6.10774 31.4201C6.19594 33.3363 6.49924 34.6444 6.94402 35.7888C7.4041 36.9728 8.01916 37.977 9.01996 38.9775C10.0202 39.9788 11.0244 40.5953 12.2076 41.055C13.3529 41.5001 14.6612 41.8034 16.5771 41.8913C18.4971 41.9786 19.1102 42 23.9985 42C28.8875 42 29.4991 41.9786 31.419 41.8913C33.3353 41.8034 34.6448 41.5001 35.7901 41.055C36.9736 40.5953 37.9764 39.9788 38.9765 38.9775C39.9778 37.977 40.5927 36.9728 41.054 35.7893C41.4965 34.6444 41.8003 33.336 41.8903 31.4204C41.9765 29.5006 41.999 28.8886 41.999 24C41.999 19.1114 41.9765 18.498 41.8903 16.578C41.8003 14.6617 41.4965 13.3538 41.054 12.2094C40.5927 11.0254 39.9778 10.0212 38.9765 9.02055C37.9753 8.0194 36.974 7.40435 35.789 6.94517C34.6415 6.49985 33.3327 6.19638 31.4165 6.10872C29.4964 6.02142 28.8851 6 23.9951 6H24.0006ZM22.3859 9.24375C22.8652 9.24303 23.4 9.24375 24.0006 9.24375C28.8068 9.24375 29.3763 9.26103 31.2743 9.34725C33.0293 9.42753 33.9818 9.72074 34.6163 9.96716C35.4564 10.2933 36.0552 10.6834 36.6849 11.3135C37.3149 11.9435 37.7048 12.5435 38.0318 13.3835C38.2782 14.0171 38.5718 14.9697 38.6517 16.7247C38.738 18.6222 38.7567 19.1921 38.7567 23.9959C38.7567 28.7997 38.738 29.3697 38.6517 31.2671C38.5715 33.022 38.2782 33.9746 38.0318 34.6084C37.7057 35.4484 37.3149 36.0466 36.6849 36.6762C36.0549 37.3062 35.4567 37.6961 34.6163 38.0224C33.9825 38.2699 33.0293 38.5624 31.2743 38.6427C29.3767 38.7289 28.8068 38.7476 24.0006 38.7476C19.1943 38.7476 18.6246 38.7289 16.7272 38.6427C14.9722 38.5617 14.0196 38.2685 13.3846 38.022C12.5447 37.6957 11.9446 37.3058 11.3146 36.6758C10.6846 36.0458 10.2947 35.4473 9.96766 34.6069C9.72124 33.9732 9.42766 33.0206 9.34774 31.2656C9.26152 29.3681 9.24424 28.7982 9.24424 23.9914C9.24424 19.1845 9.26152 18.6177 9.34774 16.7202C9.42802 14.9652 9.72124 14.0126 9.96766 13.3781C10.294 12.5381 10.6846 11.9381 11.3148 11.3081C11.945 10.6782 12.5447 10.2881 13.3848 9.96122C14.0193 9.71372 14.9722 9.42123 16.7272 9.34059C18.3877 9.26553 19.0312 9.24303 22.3859 9.23925V9.24375ZM33.609 12.2324C32.4165 12.2324 31.449 13.199 31.449 14.3917C31.449 15.5842 32.4165 16.5517 33.609 16.5517C34.8015 16.5517 35.769 15.5842 35.769 14.3917C35.769 13.1992 34.8015 12.2317 33.609 12.2317V12.2324ZM24.0006 14.7562C18.8958 14.7562 14.7569 18.8951 14.7569 24C14.7569 29.1049 18.8958 33.2418 24.0006 33.2418C29.1056 33.2418 33.2431 29.1049 33.2431 24C33.2431 18.8953 29.1053 14.7562 24.0003 14.7562H24.0006ZM24.0006 17.9999C27.3143 17.9999 30.0008 20.6861 30.0008 24C30.0008 27.3136 27.3143 30.0001 24.0006 30.0001C20.687 30.0001 18.0007 27.3136 18.0007 24C18.0007 20.6861 20.6868 17.9999 24.0006 17.9999Z" fill="white"/>
</g>
<defs>
<radialGradient id="paint0_radial_1010_71501" cx="0" cy="0" r="1" gradientUnits="userSpaceOnUse" gradientTransform="translate(12.75 51.6969) rotate(-90) scale(47.5716 44.2453)">
<stop stop-color="#FFDD55"/>
<stop offset="0.1" stop-color="#FFDD55"/>
<stop offset="0.5" stop-color="#FF543E"/>
<stop offset="1" stop-color="#C837AB"/>
</radialGradient>
<radialGradient id="paint1_radial_1010_71501" cx="0" cy="0" r="1" gradientUnits="userSpaceOnUse" gradientTransform="translate(-8.04019 3.45769) rotate(78.681) scale(21.2648 87.654)">
<stop stop-color="#3771C8"/>
<stop offset="0.128" stop-color="#3771C8"/>
<stop offset="1" stop-color="#6600FF" stop-opacity="0"/>
</radialGradient>
<clipPath id="clip0_1010_71501">
<rect width="48" height="48" fill="white"/>
</clipPath>
</defs>
</svg>
