<svg width="48" height="48" viewBox="0 0 48 48" fill="none" xmlns="http://www.w3.org/2000/svg">
<rect width="48" height="48" rx="4" fill="#FFE812"/>
<path d="M23.9983 7C33.9411 7 42 13.4551 42 21.42C42 29.3831 33.9411 35.8382 24 35.8382C23.0102 35.8364 22.0215 35.7717 21.0394 35.6444L13.4829 40.7236C12.624 41.1904 12.3206 41.1393 12.6737 39.996L14.2029 33.5162C9.26571 30.9441 6 26.4868 6 21.42C6 13.4568 14.0554 7 23.9983 7ZM34.128 21.1998L36.648 18.691C36.7934 18.5358 36.8745 18.3287 36.8743 18.1132C36.874 17.8978 36.7924 17.6909 36.6466 17.536C36.5009 17.3812 36.3023 17.2906 36.0928 17.2832C35.8833 17.2758 35.6792 17.3523 35.5234 17.4966L32.2183 20.784V18.0674C32.2183 17.8468 32.133 17.6353 31.9813 17.4794C31.8295 17.3234 31.6237 17.2358 31.4091 17.2358C31.1945 17.2358 30.9887 17.3234 30.837 17.4794C30.6852 17.6353 30.6 17.8468 30.6 18.0674V22.5722C30.5715 22.7009 30.5715 22.8346 30.6 22.9633V25.4985C30.6 25.719 30.6852 25.9305 30.837 26.0865C30.9887 26.2424 31.1945 26.33 31.4091 26.33C31.6237 26.33 31.8295 26.2424 31.9813 26.0865C32.133 25.9305 32.2183 25.719 32.2183 25.4985V23.0972L32.9503 22.3696L35.3983 25.9512C35.4594 26.0406 35.5371 26.1168 35.6268 26.1754C35.7166 26.234 35.8167 26.2738 35.9215 26.2926C36.0262 26.3114 36.1335 26.3089 36.2373 26.285C36.3411 26.2612 36.4393 26.2166 36.5263 26.1538C36.6133 26.091 36.6874 26.0112 36.7444 25.919C36.8014 25.8267 36.8402 25.7238 36.8585 25.6162C36.8768 25.5085 36.8743 25.3982 36.8511 25.2916C36.8279 25.1849 36.7846 25.084 36.7234 24.9946L34.128 21.1998ZM29.0571 24.5894H26.5543V18.0938C26.5447 17.8801 26.4554 17.6784 26.3048 17.5307C26.1543 17.3829 25.9542 17.3005 25.746 17.3005C25.5378 17.3005 25.3377 17.3829 25.1872 17.5307C25.0366 17.6784 24.9473 17.8801 24.9377 18.0938V25.4209C24.9377 25.879 25.2977 26.2525 25.7451 26.2525H29.0571C29.2717 26.2525 29.4776 26.1649 29.6293 26.0089C29.781 25.853 29.8663 25.6415 29.8663 25.4209C29.8663 25.2004 29.781 24.9889 29.6293 24.8329C29.4776 24.677 29.2717 24.5894 29.0571 24.5894ZM19.0166 22.6673L20.2097 19.6582L21.3034 22.6656L19.0166 22.6673ZM23.3417 23.5253L23.3451 23.4971C23.3446 23.2876 23.2668 23.0862 23.1274 22.9333L21.3343 18.0004C21.2591 17.7653 21.1159 17.5594 20.9239 17.4102C20.7318 17.261 20.5 17.1756 20.2594 17.1653C20.0173 17.1652 19.7808 17.2404 19.581 17.3809C19.3813 17.5215 19.2275 17.7208 19.14 17.9528L16.2909 25.132C16.2097 25.3362 16.2108 25.5652 16.2939 25.7685C16.377 25.9719 16.5353 26.133 16.734 26.2164C16.9327 26.2998 17.1555 26.2987 17.3533 26.2132C17.5512 26.1278 17.708 25.9651 17.7891 25.761L18.3583 24.3287H21.9069L22.4177 25.7381C22.4526 25.8434 22.5076 25.9405 22.5797 26.0236C22.6517 26.1067 22.7392 26.174 22.837 26.2217C22.9349 26.2694 23.041 26.2964 23.1492 26.3012C23.2573 26.306 23.3653 26.2884 23.4668 26.2495C23.5682 26.2105 23.661 26.1511 23.7397 26.0747C23.8184 25.9982 23.8813 25.9063 23.9248 25.8044C23.9683 25.7025 23.9914 25.5927 23.9929 25.4814C23.9943 25.3701 23.974 25.2597 23.9331 25.1567L23.3417 23.5253ZM17.6451 18.1026C17.6456 17.9934 17.625 17.8852 17.5846 17.7842C17.5442 17.6833 17.4848 17.5915 17.4098 17.5142C17.3347 17.4369 17.2455 17.3756 17.1474 17.3339C17.0492 17.2922 16.944 17.2708 16.8377 17.271H11.2749C11.0603 17.271 10.8545 17.3587 10.7027 17.5146C10.551 17.6705 10.4657 17.8821 10.4657 18.1026C10.4657 18.3231 10.551 18.5346 10.7027 18.6906C10.8545 18.8465 11.0603 18.9341 11.2749 18.9341H13.2634V25.5161C13.2634 25.7366 13.3487 25.9481 13.5004 26.1041C13.6522 26.26 13.858 26.3476 14.0726 26.3476C14.2872 26.3476 14.493 26.26 14.6447 26.1041C14.7965 25.9481 14.8817 25.7366 14.8817 25.5161V18.9341H16.836C16.9424 18.9346 17.0478 18.9134 17.1462 18.8718C17.2446 18.8302 17.3339 18.7689 17.4092 18.6916C17.4844 18.6143 17.544 18.5225 17.5845 18.4214C17.625 18.3203 17.6456 18.2119 17.6451 18.1026Z" fill="#391B1B"/>
</svg>
