<svg width="54" height="54" viewBox="0 0 54 54" fill="none" xmlns="http://www.w3.org/2000/svg">
<rect width="54" height="54" rx="27" fill="#FEE500"/>
<path d="M22.9619 25.5876H24.6898L23.8259 23.1934L22.9619 25.5876Z" fill="black"/>
<path d="M27 13C18.7154 13 12 18.1641 12 24.5351C12 28.6539 14.8082 32.272 19.0312 34.3089C18.8019 35.0812 17.5543 39.2803 17.5053 39.6108C17.5053 39.6108 17.475 39.8584 17.6394 39.9527C17.6944 39.9797 17.7545 39.9956 17.816 39.9992C17.8775 40.0028 17.9392 39.9942 17.9971 39.9738C18.4702 39.9091 23.4779 36.4837 24.3433 35.8943C25.2235 36.0135 26.1113 36.0723 27 36.0701C35.2846 36.0701 42 30.9061 42 24.5351C42 18.1641 35.2846 13 27 13ZM19.5764 22.7443C19.5577 24.3761 19.5909 26.0923 19.5635 27.6988C19.5548 28.2122 19.2519 28.3656 18.8423 28.5119C18.796 28.5278 18.7462 28.5312 18.6981 28.5217C18.2293 28.4317 17.8558 28.2685 17.8442 27.7002C17.8111 26.0951 17.8543 24.3761 17.8313 22.7443C17.4346 22.7288 16.8692 22.7598 16.5014 22.7443C15.9909 22.712 15.6361 22.3955 15.6577 21.9242C15.6793 21.453 15.9375 21.1139 16.5101 21.1055C17.863 21.0858 19.5389 21.0858 20.8918 21.1055C21.4688 21.1139 21.7255 21.4544 21.7428 21.9242C21.7601 22.394 21.4111 22.712 20.9019 22.7443C20.5385 22.7598 19.9745 22.7288 19.5764 22.7443ZM26.8457 28.4345C26.6727 28.5113 26.4848 28.5511 26.2947 28.5512C25.9341 28.5512 25.6587 28.4106 25.5736 28.1785L25.1409 27.084H22.5072L22.0745 28.1785C21.9909 28.4078 21.7154 28.5512 21.3534 28.5512C21.1637 28.5512 20.9763 28.5114 20.8038 28.4345C20.5644 28.3276 20.3351 28.0322 20.5976 27.236L22.6731 21.9214C22.7601 21.6873 22.916 21.4834 23.1212 21.3353C23.3265 21.1872 23.5719 21.1014 23.8269 21.0886C24.0817 21.1027 24.3267 21.1892 24.5317 21.3375C24.7367 21.4857 24.8928 21.6891 24.9808 21.9228L27.049 27.2346C27.313 28.0322 27.0837 28.3332 26.8457 28.4345ZM31.2188 28.4345H28.4423C28.2273 28.4386 28.0193 28.3596 27.8639 28.2146C27.7085 28.0696 27.6183 27.8705 27.613 27.6608V21.9326C27.6222 21.7102 27.7193 21.4998 27.884 21.3455C28.0486 21.1913 28.2681 21.1051 28.4964 21.1051C28.7247 21.1051 28.9442 21.1913 29.1088 21.3455C29.2735 21.4998 29.3706 21.7102 29.3798 21.9326V26.8913H31.2188C31.3269 26.885 31.4353 26.9002 31.5373 26.9362C31.6392 26.9722 31.7325 27.0282 31.8114 27.1007C31.8903 27.1731 31.9532 27.2606 31.9962 27.3576C32.0391 27.4547 32.0613 27.5593 32.0613 27.665C32.0613 27.7707 32.0391 27.8753 31.9962 27.9724C31.9532 28.0694 31.8903 28.1569 31.8114 28.2294C31.7325 28.3018 31.6392 28.3578 31.5373 28.3938C31.4353 28.4298 31.3269 28.4451 31.2188 28.4387V28.4345ZM37.9976 27.7986C37.9751 27.9651 37.9022 28.1213 37.7881 28.2472C37.6741 28.373 37.5242 28.4628 37.3576 28.5051C37.1909 28.5474 37.0152 28.5402 36.8527 28.4846C36.6903 28.4289 36.5485 28.3272 36.4457 28.1925L34.4163 25.5718L34.1163 25.8644V27.7058C34.1163 27.9297 34.0252 28.1443 33.8629 28.3026C33.7006 28.4609 33.4805 28.5498 33.251 28.5498C33.0214 28.5498 32.8013 28.4609 32.639 28.3026C32.4768 28.1443 32.3856 27.9297 32.3856 27.7058V21.9383C32.3856 21.7144 32.4768 21.4997 32.639 21.3415C32.8013 21.1832 33.0214 21.0942 33.251 21.0942C33.4805 21.0942 33.7006 21.1832 33.8629 21.3415C34.0252 21.4997 34.1163 21.7144 34.1163 21.9383V23.7473L36.5308 21.3925C36.594 21.3315 36.669 21.2834 36.7515 21.2511C36.8339 21.2187 36.9222 21.2027 37.0111 21.204C37.2272 21.2095 37.4335 21.2927 37.5906 21.4376C37.7477 21.5824 37.8443 21.7788 37.862 21.9889C37.8698 22.0827 37.857 22.177 37.8244 22.2655C37.7918 22.3541 37.7402 22.4348 37.6731 22.5024L35.6971 24.4253L37.8274 27.1783C37.9653 27.3568 38.025 27.5815 37.9933 27.8029L37.9976 27.7986Z" fill="black"/>
</svg>
