<svg width="48" height="48" viewBox="0 0 48 48" fill="none" xmlns="http://www.w3.org/2000/svg">
<path d="M38.786 39.224H32.5629V29.4782C32.5629 27.1543 32.5214 24.1626 29.3263 24.1626C26.0851 24.1626 25.5891 26.6948 25.5891 29.3091V39.2234H19.3662V19.1822H25.3402V21.921H25.4239C26.0218 20.8988 26.8857 20.0579 27.9237 19.4878C28.9617 18.9177 30.1349 18.6397 31.3183 18.6836C37.6257 18.6836 38.7886 22.8324 38.7886 28.2297L38.786 39.224ZM12.3443 16.4428C10.3498 16.4432 8.73267 14.8265 8.73234 12.832C8.73202 10.8375 10.3485 9.22031 12.343 9.21998C14.3375 9.21949 15.9547 10.8362 15.955 12.8307C15.9552 13.7885 15.5749 14.7071 14.8978 15.3845C14.2206 16.0619 13.3021 16.4426 12.3443 16.4428ZM15.456 39.2242H9.22634V19.1822H15.4558L15.456 39.2242ZM41.8884 3.44056H6.0993C4.40782 3.42153 3.02067 4.77652 3 6.468V42.4064C3.02002 44.0987 4.407 45.455 6.09914 45.4373H41.8884C43.5841 45.4583 44.9765 44.102 45 42.4064V6.46521C44.9759 4.77045 43.5833 3.41562 41.8884 3.43777" fill="#0A66C2"/>
</svg>
