<svg width="60" height="24" viewBox="0 0 60 24" fill="none" xmlns="http://www.w3.org/2000/svg">
<path d="M1.24 3.58984H4.88V12.6698C4.88 13.9765 5.22 15.0298 5.9 15.8298C6.59333 16.6165 7.52667 17.0098 8.7 17.0098C9.87333 17.0098 10.8 16.6165 11.48 15.8298C12.1733 15.0298 12.52 13.9765 12.52 12.6698V3.58984H16.16V12.6698C16.16 14.1898 15.8467 15.5298 15.22 16.6898C14.6067 17.8365 13.7333 18.7232 12.6 19.3498C11.48 19.9765 10.18 20.2898 8.7 20.2898C7.22 20.2898 5.91333 19.9765 4.78 19.3498C3.66 18.7232 2.78667 17.8365 2.16 16.6898C1.54667 15.5298 1.24 14.1898 1.24 12.6698V3.58984ZM23.1423 20.1698C22.2357 20.1698 21.4357 19.9565 20.7423 19.5298C20.049 19.1165 19.509 18.5165 19.1223 17.7298C18.749 16.9432 18.5623 16.0165 18.5623 14.9498V8.16984H22.1223V14.3498C22.1223 15.2432 22.2957 15.9298 22.6423 16.4098C23.0023 16.8765 23.5157 17.1098 24.1823 17.1098C24.8757 17.1098 25.4223 16.8498 25.8223 16.3298C26.2223 15.8098 26.4223 15.0965 26.4223 14.1898V8.16984H29.9823V19.8898H26.4223V18.6898C25.689 19.6765 24.5957 20.1698 23.1423 20.1698ZM32.6681 8.16984H36.2281V9.36984C36.9615 8.38318 38.0548 7.88984 39.5081 7.88984C40.4148 7.88984 41.2148 8.10318 41.9081 8.52984C42.6015 8.94318 43.1348 9.54318 43.5081 10.3298C43.8948 11.1165 44.0881 12.0432 44.0881 13.1098V19.8898H40.5281V13.7098C40.5281 12.8165 40.3481 12.1365 39.9881 11.6698C39.6415 11.1898 39.1348 10.9498 38.4681 10.9498C37.7748 10.9498 37.2281 11.2098 36.8281 11.7298C36.4281 12.2498 36.2281 12.9632 36.2281 13.8698V19.8898H32.6681V8.16984ZM52.1163 7.88984C53.3029 7.88984 54.3696 8.15651 55.3163 8.68984C56.2629 9.20984 57.0029 9.93651 57.5363 10.8698C58.0696 11.8032 58.3363 12.8565 58.3363 14.0298C58.3363 15.2032 58.0696 16.2565 57.5363 17.1898C57.0029 18.1232 56.2629 18.8498 55.3163 19.3698C54.3696 19.9032 53.3029 20.1698 52.1163 20.1698C50.9296 20.1698 49.8629 19.9032 48.9163 19.3698C47.9696 18.8498 47.2296 18.1232 46.6963 17.1898C46.1629 16.2565 45.8963 15.2032 45.8963 14.0298C45.8963 12.8565 46.1629 11.8032 46.6963 10.8698C47.2296 9.93651 47.9696 9.20984 48.9163 8.68984C49.8629 8.15651 50.9296 7.88984 52.1163 7.88984ZM52.1163 10.9298C51.2896 10.9298 50.6163 11.2232 50.0963 11.8098C49.5896 12.3832 49.3363 13.1232 49.3363 14.0298C49.3363 14.9365 49.5896 15.6832 50.0963 16.2698C50.6163 16.8432 51.2896 17.1298 52.1163 17.1298C52.9429 17.1298 53.6096 16.8432 54.1163 16.2698C54.6363 15.6832 54.8963 14.9365 54.8963 14.0298C54.8963 13.1232 54.6363 12.3832 54.1163 11.8098C53.6096 11.2232 52.9429 10.9298 52.1163 10.9298Z" fill="#3970D5"/>
<circle cx="57.5" cy="4.5" r="2.5" fill="#3970D5"/>
</svg>
