<svg width="24" height="24" viewBox="0 0 24 24" fill="none" xmlns="http://www.w3.org/2000/svg">
<g clip-path="url(#clip0_599_24629)">
<path d="M23.9837 12.2245C23.9837 11.2413 23.9021 10.5237 23.7254 9.77963H12.239V14.2176H18.9813C18.8454 15.3205 18.1114 16.9815 16.4801 18.0976L16.4573 18.2461L20.089 20.9963L20.3407 21.0209C22.6515 18.9347 23.9837 15.8653 23.9837 12.2245Z" fill="#4285F4"/>
<path d="M12.2389 23.9176C15.5421 23.9176 18.3151 22.8545 20.3406 21.0209L16.48 18.0976C15.447 18.8018 14.0604 19.2934 12.2389 19.2934C9.00372 19.2934 6.25788 17.2074 5.27906 14.324L5.13559 14.3359L1.3592 17.1927L1.30981 17.3269C3.32161 21.2334 7.45401 23.9176 12.2389 23.9176Z" fill="#34A853"/>
<path d="M5.27906 14.324C5.02079 13.5799 4.87132 12.7826 4.87132 11.9588C4.87132 11.1349 5.02079 10.3377 5.26548 9.59359L5.25863 9.43511L1.43492 6.53239L1.30982 6.59056C0.480656 8.21166 0.00488281 10.0321 0.00488281 11.9588C0.00488281 13.8855 0.480656 15.7058 1.30982 17.3269L5.27906 14.324Z" fill="#FBBC05"/>
<path d="M12.2389 4.62403C14.5362 4.62403 16.0858 5.59402 16.9694 6.40461L20.4221 3.10928C18.3016 1.1826 15.5421 0 12.2389 0C7.45401 0 3.32161 2.68406 1.30981 6.59056L5.26547 9.59359C6.25788 6.7102 9.00372 4.62403 12.2389 4.62403Z" fill="#EB4335"/>
</g>
<defs>
<clipPath id="clip0_599_24629">
<rect width="24" height="24" fill="white"/>
</clipPath>
</defs>
</svg>
