<svg width="88" height="38" viewBox="0 0 88 38" fill="none" xmlns="http://www.w3.org/2000/svg">
<path d="M0.773643 7.43853H5.98014V20.4262C5.98014 22.2952 6.46646 23.8018 7.43911 24.9461C8.43082 26.0713 9.76582 26.6339 11.4441 26.6339C13.1224 26.6339 14.4479 26.0713 15.4205 24.9461C16.4122 23.8018 16.9081 22.2952 16.9081 20.4262V7.43853H22.1146V20.4262C22.1146 22.6003 21.6664 24.517 20.77 26.1762C19.8927 27.8164 18.6436 29.0846 17.0225 29.981C15.4205 30.8773 13.561 31.3255 11.4441 31.3255C9.32718 31.3255 7.45818 30.8773 5.83711 29.981C4.23511 29.0846 2.98593 27.8164 2.08957 26.1762C1.21229 24.517 0.773643 22.6003 0.773643 20.4262V7.43853ZM32.1018 31.1539C30.805 31.1539 29.6607 30.8487 28.669 30.2384C27.6772 29.6472 26.9049 28.789 26.3518 27.6638C25.8178 26.5386 25.5508 25.2131 25.5508 23.6874V13.9896H30.6429V22.8292C30.6429 24.107 30.8908 25.0891 31.3866 25.7757C31.9016 26.4432 32.6358 26.777 33.5894 26.777C34.5811 26.777 35.363 26.4051 35.9352 25.6613C36.5073 24.9175 36.7934 23.8972 36.7934 22.6003V13.9896H41.8855V30.7534H36.7934V29.0369C35.7445 30.4482 34.1806 31.1539 32.1018 31.1539ZM45.7271 13.9896H50.8192V15.706C51.8681 14.2947 53.4319 13.5891 55.5107 13.5891C56.8076 13.5891 57.9519 13.8942 58.9436 14.5045C59.9353 15.0957 60.6982 15.9539 61.2322 17.0791C61.7852 18.2044 62.0618 19.5298 62.0618 21.0555V30.7534H56.9697V21.9137C56.9697 20.636 56.7122 19.6633 56.1973 18.9958C55.7014 18.3092 54.9767 17.966 54.0232 17.966C53.0314 17.966 52.2495 18.3379 51.6774 19.0816C51.1052 19.8254 50.8192 20.8457 50.8192 22.1426V30.7534H45.7271V13.9896ZM73.5448 13.5891C75.2422 13.5891 76.7679 13.9705 78.122 14.7334C79.4761 15.4771 80.5345 16.5165 81.2974 17.8515C82.0602 19.1865 82.4417 20.6932 82.4417 22.3715C82.4417 24.0497 82.0602 25.5564 81.2974 26.8914C80.5345 28.2264 79.4761 29.2658 78.122 30.0096C76.7679 30.7724 75.2422 31.1539 73.5448 31.1539C71.8475 31.1539 70.3218 30.7724 68.9677 30.0096C67.6136 29.2658 66.5552 28.2264 65.7923 26.8914C65.0295 25.5564 64.648 24.0497 64.648 22.3715C64.648 20.6932 65.0295 19.1865 65.7923 17.8515C66.5552 16.5165 67.6136 15.4771 68.9677 14.7334C70.3218 13.9705 71.8475 13.5891 73.5448 13.5891ZM73.5448 17.9374C72.3624 17.9374 71.3993 18.3569 70.6555 19.1961C69.9308 20.0161 69.5685 21.0746 69.5685 22.3715C69.5685 23.6683 69.9308 24.7363 70.6555 25.5755C71.3993 26.3955 72.3624 26.8056 73.5448 26.8056C74.7273 26.8056 75.6808 26.3955 76.4056 25.5755C77.1493 24.7363 77.5212 23.6683 77.5212 22.3715C77.5212 21.0746 77.1493 20.0161 76.4056 19.1961C75.6808 18.3569 74.7273 17.9374 73.5448 17.9374Z" fill="white"/>
<circle cx="82.6434" cy="7.94615" r="3.17857" fill="white"/>
</svg>
