<svg width="48" height="48" viewBox="0 0 48 48" fill="none" xmlns="http://www.w3.org/2000/svg">
<g clip-path="url(#clip0_1010_71513)">
<path d="M28.5937 0.09375L33.4908 0.126C33.5831 0.197625 33.6577 0.2445 33.7368 0.27975C34.6245 0.681 35.5867 0.96825 36.3866 1.5015C38.7056 3.04275 40.9702 4.66687 43.2333 6.29025C44.2852 7.04288 45.3221 7.82662 46.2918 8.679C47.0126 9.312 47.3362 10.2101 47.3381 11.1679L47.3362 41.307C47.3351 41.7274 47.2631 42.1597 47.1461 42.564C46.6143 44.4067 45.435 45.6679 43.5791 46.1603C42.6003 46.4194 41.5665 46.5 40.5513 46.5836C38.9677 46.7152 37.3785 46.7798 35.7918 46.875L32.7903 47.0625L27.9843 47.3452L25.0297 47.5298L20.1768 47.811L17.6688 47.9137C17.5882 47.9179 17.5136 48.0308 17.4375 48.0938C15.5287 48.0938 13.6215 48.0938 11.6966 48.063C11.6043 47.9899 11.5342 47.931 11.4521 47.9077C10.2888 47.5706 9.31347 46.9279 8.56347 45.9945C7.52472 44.7041 6.53772 43.374 5.53872 42.0529C4.31097 40.4295 3.05134 38.8301 1.89109 37.1603C1.20913 36.1845 0.843857 35.0226 0.844842 33.8321C0.841572 24.9308 0.842697 16.0294 0.848217 7.128C0.848217 6.8715 0.893217 6.61237 0.937467 6.35737C1.40322 3.61687 3.43197 2.15475 5.84472 1.88362C7.09722 1.743 8.35834 1.68 9.61684 1.59675L12.9431 1.40475L14.373 1.311L18.6855 0.939L21.0761 0.7515L25.0357 0.47025L28.362 0.27375C28.443 0.268125 28.5176 0.15675 28.5937 0.09375ZM9.72934 42.819C9.92884 43.0781 10.1512 43.3241 10.3256 43.5998C11.1708 44.9224 12.3825 45.4028 13.9218 45.3004L24.3502 44.6794L36.0862 43.9702L41.9295 43.5938C43.6612 43.4546 44.4975 42.5186 44.5312 40.7812V40.4062L44.5443 11.9576C44.5458 11.1007 44.25 10.5015 43.5645 10.0226L35.3055 4.20262C33.9768 3.23587 32.5665 2.78475 30.933 2.91375L21.684 3.59775L12.0131 4.311L5.94297 4.78425C4.71672 4.89675 3.95659 5.64675 3.73684 6.84975C3.68341 7.15683 3.65743 7.46806 3.65922 7.77975L3.63409 32.6205C3.62547 34.248 4.12347 35.6017 5.09772 36.8468L9.72934 42.819Z" fill="white"/>
<path d="M9.70764 42.7924L5.09777 36.8449C4.12352 35.5999 3.62552 34.2465 3.63414 32.619L3.65927 7.77823C3.65927 7.46773 3.68252 7.15273 3.73689 6.84823C3.95664 5.6456 4.71677 4.8956 5.94302 4.78273L12.0131 4.30948L21.6844 3.59623L30.933 2.91223C32.5665 2.78323 33.9769 3.23435 35.3055 4.2011C38.0288 6.18298 40.803 8.09473 43.5645 10.0211C44.25 10.5 44.5459 11.0992 44.5444 11.9561L44.5313 40.4062V40.7812C44.4975 42.5171 43.6613 43.4531 41.9295 43.5922C39.9844 43.749 38.0348 43.8502 36.0863 43.9687L24.3503 44.6775L13.9219 45.2989C12.3825 45.4012 11.1709 44.9209 10.3256 43.5982C10.1513 43.3226 9.92889 43.0766 9.70764 42.7924ZM12.1099 25.5454V38.1034L12.1129 40.4456C12.1331 41.496 12.6476 42.0191 13.6976 42.0791C13.9613 42.0937 14.2279 42.0847 14.493 42.0686L23.2838 41.5504L40.0706 40.5907C41.1169 40.5322 41.6003 40.0736 41.6981 39.0367C41.7173 38.8503 41.7113 38.6617 41.7113 38.4742L41.7128 14.2954C41.7128 14.1547 41.7173 14.0141 41.7086 13.8735C41.6456 12.9112 41.2324 12.5186 40.2761 12.5696L31.6245 13.068C27.5722 13.3037 23.5199 13.541 19.4678 13.7797L13.3901 14.1446C12.6154 14.1941 12.2651 14.5282 12.1481 15.2857C12.1204 15.4866 12.1082 15.6893 12.1114 15.8921L12.1099 25.5454ZM33.5494 5.77273C32.8155 5.37448 32.0186 5.24248 31.1981 5.28785C29.937 5.35685 28.6759 5.46073 27.4144 5.55185L9.43352 6.85835C8.89014 6.89773 8.34377 6.9371 7.80752 7.03423C7.62752 7.06648 7.40027 7.24798 7.34477 7.41223C7.30352 7.52773 7.48539 7.76098 7.61852 7.88848C7.86489 8.12398 8.14877 8.3216 8.41727 8.53423C9.05439 9.03673 9.73239 9.49498 10.317 10.0504C11.4259 11.1034 12.7163 11.3467 14.1945 11.2399L25.8326 10.5101L38.3614 9.7586C38.4758 9.75298 38.5901 9.71773 38.8418 9.67085C38.6119 9.43198 38.4784 9.24898 38.3044 9.11998C37.6906 8.66667 37.0709 8.22138 36.4455 7.78423C35.4847 7.10723 34.5193 6.43672 33.5494 5.77273Z" fill="black"/>
<path d="M12.1098 25.5003L12.1113 15.8939C12.1113 15.6914 12.1173 15.4867 12.1481 15.2875C12.2651 14.53 12.6153 14.1963 13.3901 14.1464L19.4677 13.7815L31.6245 13.0698L40.2757 12.5714C41.2323 12.5204 41.6456 12.9142 41.7082 13.8753C41.7172 14.0159 41.7127 14.1565 41.7127 14.2972L41.7112 38.476L41.6981 39.0385C41.6002 40.0754 41.1168 40.534 40.0706 40.5925L23.2837 41.5522L14.493 42.0704L13.698 42.0809C12.6476 42.0209 12.1331 41.4978 12.1128 40.4489L12.1098 38.1052V25.5003ZM29.2721 25.525L24.4466 18.1732C24.2782 17.9167 24.1128 17.8319 23.8023 17.8657L21.7455 18.0044L17.9617 18.2815C17.0317 18.3667 16.4692 19.2412 16.7268 20.1479L18.7308 20.3193V36.5542L17.3658 36.9393C16.7606 37.1178 16.5015 37.6278 16.7051 38.2795L21.3206 38.0144L23.1386 37.8652C23.9223 37.7362 24.3442 37.2558 24.4496 36.472L21.9258 35.8964V23.6853L22.1133 23.9478L27.9138 33.0048C28.7665 34.3274 29.6421 35.6351 30.5403 36.9273C31.1805 37.846 32.124 38.1273 33.1845 37.8985C33.8482 37.7568 34.4853 37.4872 35.1356 37.2775C35.4742 37.1677 35.5897 36.9655 35.5882 36.586L35.577 19.8985C35.577 18.9232 35.577 18.9232 36.5418 18.7285C37.5176 18.532 37.7621 18.1424 37.5393 17.0995L31.7081 17.4539C31.0736 17.4993 30.5932 18.0295 30.4968 18.6464C30.4496 18.9438 30.5111 19.1077 30.867 19.1283L32.6325 19.3233V30.6404C31.5142 28.9346 30.3941 27.2299 29.2721 25.5265V25.525ZM33.5812 5.79066C34.5385 6.4517 35.493 7.1167 36.4447 7.78566C37.0702 8.22293 37.69 8.66834 38.304 9.12178C38.478 9.25078 38.6115 9.43378 38.8413 9.67266L38.361 9.76041L25.8322 10.5119L14.1941 11.2417C12.7158 11.3485 11.4255 11.1052 10.3166 10.0522C9.73196 9.49716 9.05396 9.03853 8.41646 8.53603C8.14833 8.32341 7.86446 8.12578 7.61808 7.88991C7.48496 7.76241 7.30308 7.52991 7.34433 7.41366C7.39983 7.24978 7.62858 7.06828 7.80708 7.03603C8.34333 6.93928 8.88971 6.89953 9.43308 6.86016L27.4143 5.55366L31.1981 5.28966C32.0182 5.24466 32.8151 5.37591 33.5812 5.79066Z" fill="white"/>
<path d="M29.2925 25.5509L32.6326 30.6385V19.321L30.8675 19.126C30.5112 19.1058 30.4497 18.9419 30.4966 18.6445C30.5933 18.0277 31.0741 17.4974 31.7078 17.452L37.5395 17.0977C37.7622 18.1402 37.5177 18.5302 36.542 18.7263C35.5767 18.9198 35.5767 18.9198 35.5767 19.8967L35.5883 36.5842C35.5898 36.9637 35.4743 37.1658 35.1357 37.2757L33.1846 37.8967C32.1241 38.1239 31.1806 37.8442 30.5408 36.9254C29.643 35.633 28.7674 34.3253 27.9143 33.0029L22.1131 23.9455C22.0722 23.881 22.0253 23.821 21.9256 23.6834V35.8945L24.4497 36.4702C24.3443 37.2539 23.9225 37.7339 23.1387 37.8633C22.541 37.9612 21.9275 37.9758 21.3207 38.0125L16.7052 38.2777C16.5016 37.6259 16.7607 37.1159 17.366 36.9374L18.731 36.5523V20.3174L16.727 20.146C16.4693 19.2393 17.0318 18.3648 17.9618 18.2797C19.2203 18.1623 20.4845 18.0907 21.7456 18.0029C22.4311 17.956 23.1196 17.9384 23.8025 17.8638C24.113 17.83 24.2787 17.9148 24.4467 18.1713L29.2925 25.5509Z" fill="black"/>
</g>
<defs>
<clipPath id="clip0_1010_71513">
<rect width="48" height="48" fill="white"/>
</clipPath>
</defs>
</svg>
