<svg width="54" height="54" viewBox="0 0 54 54" fill="none" xmlns="http://www.w3.org/2000/svg">
<rect width="54" height="54" rx="27" fill="#1A1A1A"/>
<g clip-path="url(#clip0_647_9942)">
<path d="M15 15.75C15 15.5511 15.079 15.3603 15.2197 15.2197C15.3603 15.079 15.5511 15 15.75 15H20.25C20.4489 15 20.6397 15.079 20.7803 15.2197C20.921 15.3603 21 15.5511 21 15.75C21 15.9489 20.921 16.1397 20.7803 16.2803C20.6397 16.421 20.4489 16.5 20.25 16.5H16.5V20.25C16.5 20.4489 16.421 20.6397 16.2803 20.7803C16.1397 20.921 15.9489 21 15.75 21C15.5511 21 15.3603 20.921 15.2197 20.7803C15.079 20.6397 15 20.4489 15 20.25V15.75ZM33 15.75C33 15.5511 33.079 15.3603 33.2197 15.2197C33.3603 15.079 33.5511 15 33.75 15H38.25C38.4489 15 38.6397 15.079 38.7803 15.2197C38.921 15.3603 39 15.5511 39 15.75V20.25C39 20.4489 38.921 20.6397 38.7803 20.7803C38.6397 20.921 38.4489 21 38.25 21C38.0511 21 37.8603 20.921 37.7197 20.7803C37.579 20.6397 37.5 20.4489 37.5 20.25V16.5H33.75C33.5511 16.5 33.3603 16.421 33.2197 16.2803C33.079 16.1397 33 15.9489 33 15.75ZM15.75 33C15.9489 33 16.1397 33.079 16.2803 33.2197C16.421 33.3603 16.5 33.5511 16.5 33.75V37.5H20.25C20.4489 37.5 20.6397 37.579 20.7803 37.7197C20.921 37.8603 21 38.0511 21 38.25C21 38.4489 20.921 38.6397 20.7803 38.7803C20.6397 38.921 20.4489 39 20.25 39H15.75C15.5511 39 15.3603 38.921 15.2197 38.7803C15.079 38.6397 15 38.4489 15 38.25V33.75C15 33.5511 15.079 33.3603 15.2197 33.2197C15.3603 33.079 15.5511 33 15.75 33ZM38.25 33C38.4489 33 38.6397 33.079 38.7803 33.2197C38.921 33.3603 39 33.5511 39 33.75V38.25C39 38.4489 38.921 38.6397 38.7803 38.7803C38.6397 38.921 38.4489 39 38.25 39H33.75C33.5511 39 33.3603 38.921 33.2197 38.7803C33.079 38.6397 33 38.4489 33 38.25C33 38.0511 33.079 37.8603 33.2197 37.7197C33.3603 37.579 33.5511 37.5 33.75 37.5H37.5V33.75C37.5 33.5511 37.579 33.3603 37.7197 33.2197C37.8603 33.079 38.0511 33 38.25 33ZM21 21H22.5V22.5H21V21Z" fill="white"/>
<path d="M25.5 18H18V25.5H25.5V18ZM19.5 19.5H24V24H19.5V19.5ZM22.5 31.5H21V33H22.5V31.5Z" fill="white"/>
<path d="M25.5 28.5H18V36H25.5V28.5ZM19.5 30H24V34.5H19.5V30ZM31.5 21H33V22.5H31.5V21Z" fill="white"/>
<path d="M28.5 18H36V25.5H28.5V18ZM30 19.5V24H34.5V19.5H30ZM27 27V30H28.5V31.5H27V33H30V30H31.5V33H33V31.5H36V30H31.5V27H27ZM30 30H28.5V28.5H30V30ZM36 33H34.5V34.5H31.5V36H36V33ZM30 36V34.5H27V36H30Z" fill="white"/>
<path d="M33 28.5H36V27H33V28.5Z" fill="white"/>
</g>
<defs>
<clipPath id="clip0_647_9942">
<rect width="24" height="24" fill="white" transform="translate(15 15)"/>
</clipPath>
</defs>
</svg>
