<svg width="64" height="64" viewBox="0 0 64 64" fill="none" xmlns="http://www.w3.org/2000/svg">
<g clip-path="url(#clip0_599_25263)">
<path d="M31.9995 5.33252C41.9408 5.33252 50.1862 12.5859 51.7382 22.0872C55.7052 23.3066 59.1033 25.9085 61.315 29.4203C63.5268 32.9321 64.4055 37.1207 63.7916 41.2252C63.1778 45.3298 61.1119 49.078 57.9695 51.789C54.827 54.5 50.8164 55.9938 46.6662 55.9992H17.3328C13.1778 56.0023 9.15981 54.5128 6.0109 51.8019C2.86199 49.091 0.791654 45.3391 0.177043 41.2298C-0.437569 37.1204 0.44444 32.927 2.6624 29.4134C4.88036 25.8998 8.28667 23.2999 12.2608 22.0872C13.0304 17.4076 15.4377 13.1538 19.0532 10.0849C22.6687 7.01596 27.2571 5.33164 31.9995 5.33252ZM39.9995 34.4365L43.7702 30.6659L31.9995 18.8952L20.2288 30.6659L23.9995 34.4365L29.3328 29.1032V45.3325H34.6662V29.1032L39.9995 34.4365Z" fill="#DBDCDF"/>
</g>
<defs>
<clipPath id="clip0_599_25263">
<rect width="64" height="64" fill="white"/>
</clipPath>
</defs>
</svg>
