<svg width="48" height="48" viewBox="0 0 48 48" fill="none" xmlns="http://www.w3.org/2000/svg">
<path d="M43.9965 14.373C43.7586 13.5277 43.2904 12.7561 42.6388 12.1355C41.9872 11.5149 41.1749 11.0669 40.283 10.8362C37.0087 10 23.875 10 23.875 10C23.875 10 10.7413 10 7.46525 10.8362C6.57371 11.0671 5.76176 11.5152 5.11046 12.1359C4.45915 12.7565 3.99127 13.5279 3.7535 14.373C2.875 17.4926 2.875 24 2.875 24C2.875 24 2.875 30.5074 3.7535 33.627C3.99142 34.4723 4.45957 35.2439 5.1112 35.8645C5.76283 36.4851 6.57513 36.9331 7.467 37.1638C10.7413 38 23.875 38 23.875 38C23.875 38 37.0088 38 40.2848 37.1638C41.1766 36.9331 41.9889 36.4851 42.6406 35.8645C43.2922 35.2439 43.7603 34.4723 43.9983 33.627C44.875 30.5074 44.875 24 44.875 24C44.875 24 44.875 17.4926 43.9965 14.373ZM19.5788 29.908V18.092L30.5565 24L19.5788 29.908Z" fill="#FF0000"/>
</svg>
