<svg width="324" height="180" viewBox="0 0 324 180" fill="none" xmlns="http://www.w3.org/2000/svg">
<rect width="324" height="180" fill="#294D51"/>
<path d="M149.4 127V126.676H149.432C150.21 126.676 150.836 126.471 151.312 126.06C151.787 125.65 152.024 125.056 152.024 124.278V105.616C152.024 104.838 151.787 104.212 151.312 103.737C150.836 103.262 150.21 103.024 149.432 103.024H149.4V102.7H159.736V103.024H159.606C158.828 103.024 158.202 103.262 157.727 103.737C157.252 104.212 157.014 104.838 157.014 105.616V124.408C157.014 125.099 157.176 125.639 157.5 126.028C157.846 126.395 158.44 126.579 159.282 126.579H159.962C161.885 126.579 163.505 125.985 164.822 124.797C166.14 123.609 166.972 121.935 167.317 119.775H167.641L166.669 127H149.4ZM177.667 127.454C175.896 127.454 174.34 127.097 173.001 126.384C171.684 125.672 170.658 124.667 169.923 123.371C169.189 122.075 168.822 120.542 168.822 118.77C168.822 116.999 169.189 115.466 169.923 114.17C170.658 112.874 171.684 111.869 173.001 111.156C174.34 110.444 175.896 110.087 177.667 110.087C179.438 110.087 180.982 110.444 182.3 111.156C183.618 111.869 184.644 112.874 185.378 114.17C186.112 115.466 186.48 116.999 186.48 118.77C186.48 120.542 186.112 122.075 185.378 123.371C184.644 124.667 183.618 125.672 182.3 126.384C180.982 127.097 179.438 127.454 177.667 127.454ZM177.634 127.032C178.39 127.032 179.038 126.654 179.578 125.898C180.118 125.142 180.54 124.138 180.842 122.885C181.144 121.611 181.296 120.228 181.296 118.738C181.296 117.118 181.134 115.692 180.81 114.461C180.507 113.208 180.075 112.236 179.514 111.545C178.974 110.832 178.358 110.476 177.667 110.476C176.932 110.476 176.284 110.854 175.723 111.61C175.183 112.366 174.762 113.37 174.459 114.623C174.157 115.876 174.006 117.248 174.006 118.738C174.006 120.38 174.168 121.827 174.492 123.08C174.816 124.332 175.248 125.304 175.788 125.996C176.349 126.687 176.965 127.032 177.634 127.032ZM195.22 134.258C192.931 134.258 191.073 133.944 189.647 133.318C188.243 132.713 187.541 131.914 187.541 130.92C187.541 130.164 187.898 129.484 188.611 128.879C189.345 128.296 190.339 127.842 191.591 127.518C189.561 127 188.546 126.082 188.546 124.764C188.546 124.052 188.827 123.393 189.388 122.788C189.95 122.162 190.738 121.665 191.753 121.298C190.673 120.822 189.831 120.131 189.226 119.224C188.643 118.317 188.351 117.248 188.351 116.016C188.351 114.224 188.967 112.787 190.198 111.707C191.451 110.627 193.125 110.087 195.22 110.087C196.214 110.087 197.186 110.238 198.136 110.541H204.098L203.774 111.124H199.367C200.231 111.621 200.89 112.29 201.344 113.133C201.819 113.954 202.057 114.915 202.057 116.016C202.057 117.809 201.441 119.256 200.21 120.358C199 121.438 197.337 121.978 195.22 121.978C194.054 121.978 193.028 121.805 192.142 121.46C191.451 121.827 191.105 122.259 191.105 122.756C191.105 123.188 191.408 123.479 192.013 123.63C192.315 123.717 192.747 123.792 193.309 123.857C193.87 123.922 194.551 123.965 195.35 123.987L196.484 124.052C198.968 124.138 200.879 124.613 202.219 125.477C203.579 126.341 204.26 127.518 204.26 129.009C204.26 130.672 203.461 131.957 201.862 132.864C200.264 133.793 198.05 134.258 195.22 134.258ZM195.188 121.589C195.857 121.589 196.408 121.082 196.84 120.066C197.229 119.051 197.423 117.701 197.423 116.016C197.423 114.31 197.229 112.96 196.84 111.966C196.43 110.994 195.89 110.508 195.22 110.508C194.529 110.508 193.989 110.994 193.6 111.966C193.211 112.96 193.017 114.31 193.017 116.016C193.017 117.723 193.211 119.084 193.6 120.099C193.989 121.092 194.518 121.589 195.188 121.589ZM195.577 133.836C196.57 133.836 197.488 133.685 198.331 133.383C199.173 133.102 199.843 132.702 200.339 132.184C200.858 131.666 201.117 131.072 201.117 130.402C201.117 129.668 200.739 129.084 199.983 128.652C199.184 128.242 197.963 128.026 196.322 128.004L195.188 127.94C194.561 127.918 193.978 127.875 193.438 127.81C192.92 127.767 192.455 127.702 192.045 127.616C191.591 127.767 191.257 128.069 191.041 128.523C190.825 128.976 190.717 129.516 190.717 130.143C190.717 131.266 191.138 132.162 191.98 132.832C192.823 133.502 194.021 133.836 195.577 133.836ZM212.756 127.454C210.985 127.454 209.43 127.097 208.091 126.384C206.773 125.672 205.747 124.667 205.013 123.371C204.278 122.075 203.911 120.542 203.911 118.77C203.911 116.999 204.278 115.466 205.013 114.17C205.747 112.874 206.773 111.869 208.091 111.156C209.43 110.444 210.985 110.087 212.756 110.087C214.527 110.087 216.072 110.444 217.389 111.156C218.707 111.869 219.733 112.874 220.467 114.17C221.202 115.466 221.569 116.999 221.569 118.77C221.569 120.542 221.202 122.075 220.467 123.371C219.733 124.667 218.707 125.672 217.389 126.384C216.072 127.097 214.527 127.454 212.756 127.454ZM212.724 127.032C213.48 127.032 214.128 126.654 214.668 125.898C215.208 125.142 215.629 124.138 215.931 122.885C216.234 121.611 216.385 120.228 216.385 118.738C216.385 117.118 216.223 115.692 215.899 114.461C215.597 113.208 215.165 112.236 214.603 111.545C214.063 110.832 213.447 110.476 212.756 110.476C212.022 110.476 211.374 110.854 210.812 111.61C210.272 112.366 209.851 113.37 209.549 114.623C209.246 115.876 209.095 117.248 209.095 118.738C209.095 120.38 209.257 121.827 209.581 123.08C209.905 124.332 210.337 125.304 210.877 125.996C211.439 126.687 212.054 127.032 212.724 127.032ZM229.609 127V126.676H229.739C230.516 126.676 231.143 126.438 231.618 125.963C232.093 125.488 232.331 124.862 232.331 124.084V105.616C232.331 104.838 232.093 104.212 231.618 103.737C231.143 103.262 230.516 103.024 229.739 103.024H229.609V102.7H239.977V103.024H239.912C239.135 103.024 238.508 103.262 238.033 103.737C237.558 104.212 237.32 104.838 237.32 105.616V113.133H248.012V105.616C248.012 104.838 247.775 104.212 247.299 103.737C246.824 103.262 246.198 103.024 245.42 103.024H245.323V102.7H255.691V103.024H255.594C254.816 103.024 254.19 103.262 253.715 103.737C253.239 104.212 253.002 104.838 253.002 105.616V124.084C253.002 124.862 253.239 125.488 253.715 125.963C254.19 126.438 254.816 126.676 255.594 126.676H255.691V127H245.323V126.676H245.42C246.198 126.676 246.824 126.438 247.299 125.963C247.775 125.488 248.012 124.862 248.012 124.084V113.586H237.32V124.084C237.32 124.862 237.558 125.488 238.033 125.963C238.508 126.438 239.135 126.676 239.912 126.676H239.977V127H229.609ZM263.226 127.389C261.735 127.389 260.407 127.022 259.241 126.287C258.096 125.553 257.199 124.538 256.551 123.242C255.903 121.924 255.579 120.423 255.579 118.738C255.579 117.01 255.936 115.498 256.649 114.202C257.361 112.906 258.333 111.902 259.565 111.189C260.817 110.454 262.232 110.087 263.809 110.087C265.127 110.087 266.293 110.346 267.308 110.865C268.345 111.383 269.166 112.118 269.771 113.068C270.397 113.997 270.753 115.077 270.84 116.308L270.872 116.794H259.986V116.956C259.986 119.246 260.493 121.082 261.509 122.464C262.524 123.825 263.885 124.505 265.591 124.505C266.628 124.505 267.611 124.257 268.539 123.76C269.49 123.242 270.257 122.55 270.84 121.686L271.131 121.784C270.764 122.885 270.192 123.857 269.414 124.7C268.637 125.542 267.719 126.201 266.66 126.676C265.602 127.151 264.457 127.389 263.226 127.389ZM260.018 116.308H266.595C266.595 114.602 266.315 113.219 265.753 112.161C265.213 111.102 264.446 110.573 263.453 110.573C262.502 110.573 261.714 111.092 261.087 112.128C260.461 113.165 260.105 114.558 260.018 116.308ZM271.284 127V126.676H271.317C272.094 126.676 272.721 126.438 273.196 125.963C273.671 125.488 273.909 124.862 273.909 124.084V113.457C273.909 112.636 273.736 111.999 273.39 111.545C273.066 111.092 272.364 110.865 271.284 110.865V110.541H274.492C275.637 110.541 276.501 110.433 277.084 110.217C277.667 109.979 278.077 109.677 278.315 109.31H278.477L278.509 114.623C278.79 113.975 279.147 113.295 279.579 112.582C280.032 111.869 280.594 111.275 281.263 110.8C281.955 110.303 282.775 110.055 283.726 110.055C284.05 110.055 284.395 110.087 284.763 110.152C285.13 110.217 285.519 110.336 285.929 110.508L284.665 114.299C283.888 113.867 283.207 113.565 282.624 113.392C282.063 113.219 281.566 113.133 281.134 113.133C280.399 113.133 279.849 113.36 279.481 113.813C279.136 114.267 278.833 114.807 278.574 115.433V124.084C278.574 124.862 278.812 125.488 279.287 125.963C279.762 126.438 280.389 126.676 281.166 126.676H281.199V127H271.284ZM293.348 127.389C291.857 127.389 290.529 127.022 289.362 126.287C288.218 125.553 287.321 124.538 286.673 123.242C286.025 121.924 285.701 120.423 285.701 118.738C285.701 117.01 286.058 115.498 286.77 114.202C287.483 112.906 288.455 111.902 289.686 111.189C290.939 110.454 292.354 110.087 293.931 110.087C295.248 110.087 296.415 110.346 297.43 110.865C298.467 111.383 299.288 112.118 299.892 113.068C300.519 113.997 300.875 115.077 300.962 116.308L300.994 116.794H290.108V116.956C290.108 119.246 290.615 121.082 291.63 122.464C292.646 123.825 294.006 124.505 295.713 124.505C296.75 124.505 297.732 124.257 298.661 123.76C299.612 123.242 300.378 122.55 300.962 121.686L301.253 121.784C300.886 122.885 300.314 123.857 299.536 124.7C298.758 125.542 297.84 126.201 296.782 126.676C295.724 127.151 294.579 127.389 293.348 127.389ZM290.14 116.308H296.717C296.717 114.602 296.436 113.219 295.875 112.161C295.335 111.102 294.568 110.573 293.574 110.573C292.624 110.573 291.836 111.092 291.209 112.128C290.583 113.165 290.226 114.558 290.14 116.308Z" fill="#FFEFE5"/>
<path d="M255.206 147.501C255.156 147.501 255.132 147.462 255.132 147.385C255.132 147.027 255.174 146.847 255.258 146.847L257.821 146.721C257.863 146.721 257.884 146.752 257.884 146.816C257.884 146.872 257.877 146.967 257.863 147.1C257.849 147.234 257.821 147.322 257.779 147.364L257.747 147.385L255.206 147.501ZM260.131 149.632C260.103 149.603 260.089 149.551 260.089 149.473C260.089 149.375 260.103 149.326 260.131 149.326C260.194 149.326 260.279 149.319 260.384 149.305C260.49 149.284 260.588 149.255 260.679 149.22C260.771 149.185 260.824 149.15 260.838 149.115C260.866 149.016 260.883 148.89 260.89 148.735C260.904 148.58 260.911 148.394 260.911 148.176V144.358C260.911 143.746 260.88 143.384 260.817 143.272C260.767 143.166 260.388 143.114 259.677 143.114C259.41 143.114 259.203 143.138 259.055 143.187C258.908 143.23 258.795 143.318 258.718 143.451C258.64 143.585 258.567 143.785 258.496 144.052C258.482 144.087 258.447 144.105 258.391 144.105C258.271 144.105 258.187 144.08 258.138 144.031L258.338 142.523C258.493 142.558 258.63 142.586 258.749 142.607C258.869 142.628 258.974 142.639 259.066 142.639C259.572 142.639 260.018 142.646 260.405 142.66C260.792 142.674 261.115 142.681 261.375 142.681C261.917 142.681 262.381 142.674 262.768 142.66C263.161 142.646 263.471 142.639 263.696 142.639C263.787 142.639 263.893 142.628 264.012 142.607C264.132 142.586 264.269 142.558 264.424 142.523L264.624 144.031C264.575 144.08 264.49 144.105 264.371 144.105C264.315 144.105 264.279 144.087 264.265 144.052C264.202 143.785 264.128 143.585 264.044 143.451C263.967 143.318 263.854 143.23 263.706 143.187C263.559 143.138 263.351 143.114 263.084 143.114C262.346 143.114 261.959 143.166 261.924 143.272C261.861 143.49 261.829 143.841 261.829 144.327V148.134C261.829 148.542 261.861 148.869 261.924 149.115C261.938 149.143 261.991 149.175 262.082 149.21C262.174 149.245 262.272 149.273 262.377 149.294C262.483 149.315 262.557 149.326 262.599 149.326C262.627 149.326 262.641 149.378 262.641 149.484C262.641 149.526 262.634 149.575 262.62 149.632C262.268 149.618 261.991 149.607 261.787 149.6C261.583 149.586 261.453 149.579 261.397 149.579L260.131 149.632ZM266.575 149.663C266.188 149.663 265.833 149.561 265.51 149.357C265.186 149.153 264.926 148.883 264.729 148.545C264.54 148.201 264.445 147.818 264.445 147.396C264.445 146.903 264.536 146.478 264.719 146.12C264.902 145.761 265.151 145.487 265.468 145.297C265.784 145.1 266.139 145.002 266.533 145.002C266.856 145.002 267.141 145.065 267.387 145.191C267.633 145.311 267.823 145.466 267.957 145.655C268.083 145.852 268.175 146.053 268.231 146.257C268.294 146.453 268.326 146.65 268.326 146.847C268.326 146.988 268.305 147.076 268.263 147.111C268.22 147.139 268.14 147.153 268.02 147.153H265.362C265.306 147.153 265.278 147.171 265.278 147.206C265.278 147.501 265.338 147.786 265.457 148.06C265.577 148.327 265.752 148.549 265.984 148.725C266.217 148.9 266.501 148.988 266.839 148.988C267.134 148.988 267.38 148.946 267.577 148.862C267.781 148.77 267.929 148.689 268.02 148.619L268.094 148.566C268.136 148.566 268.157 148.612 268.157 148.703C268.157 148.753 268.136 148.816 268.094 148.893C267.953 149.09 267.746 149.27 267.472 149.431C267.197 149.586 266.899 149.663 266.575 149.663ZM265.362 146.71H267.419C267.454 146.71 267.472 146.675 267.472 146.605C267.472 146.45 267.429 146.281 267.345 146.098C267.268 145.909 267.148 145.743 266.986 145.603C266.825 145.462 266.621 145.392 266.375 145.392C266.15 145.392 265.956 145.469 265.795 145.624C265.633 145.771 265.51 145.944 265.425 146.141C265.341 146.33 265.299 146.496 265.299 146.636C265.299 146.686 265.32 146.71 265.362 146.71ZM268.653 149.632C268.646 149.603 268.639 149.579 268.632 149.558C268.632 149.53 268.632 149.505 268.632 149.484C268.632 149.378 268.646 149.326 268.674 149.326C269.152 149.248 269.468 149.101 269.623 148.883L270.688 147.459C270.717 147.41 270.731 147.378 270.731 147.364C270.731 147.336 270.72 147.308 270.699 147.28L269.623 145.698C269.581 145.634 269.507 145.575 269.402 145.518C269.296 145.462 269.184 145.416 269.064 145.381C268.945 145.346 268.843 145.328 268.758 145.328C268.737 145.272 268.727 145.223 268.727 145.181C268.727 145.118 268.741 145.065 268.769 145.023L269.824 145.075L270.931 145.023C270.938 145.044 270.942 145.086 270.942 145.149C270.942 145.269 270.931 145.328 270.91 145.328C270.629 145.328 270.488 145.388 270.488 145.508C270.488 145.536 270.506 145.578 270.541 145.634L271.226 146.7C271.325 146.538 271.413 146.401 271.49 146.288C271.574 146.176 271.641 146.084 271.69 146.014C271.747 145.93 271.799 145.838 271.849 145.74C271.898 145.641 271.922 145.568 271.922 145.518C271.922 145.448 271.884 145.402 271.806 145.381C271.729 145.36 271.645 145.35 271.553 145.35C271.462 145.343 271.395 145.336 271.353 145.328C271.332 145.314 271.321 145.258 271.321 145.16C271.321 145.096 271.332 145.051 271.353 145.023L272.46 145.075L273.42 145.023C273.427 145.058 273.431 145.089 273.431 145.118C273.438 145.139 273.441 145.156 273.441 145.17C273.441 145.276 273.431 145.328 273.409 145.328C272.938 145.385 272.633 145.504 272.492 145.687L271.522 146.953C271.479 147.002 271.458 147.048 271.458 147.09C271.458 147.132 271.472 147.171 271.5 147.206L272.618 148.862C272.801 149.136 273.097 149.291 273.504 149.326C273.525 149.326 273.536 149.375 273.536 149.473C273.536 149.551 273.522 149.603 273.494 149.632L272.502 149.579L271.332 149.632C271.325 149.596 271.318 149.568 271.311 149.547C271.311 149.519 271.311 149.502 271.311 149.495C271.311 149.382 271.321 149.326 271.342 149.326C271.638 149.305 271.785 149.241 271.785 149.136C271.785 149.115 271.778 149.094 271.764 149.073L270.963 147.807L270.235 148.893C270.186 148.964 270.161 149.03 270.161 149.094C270.161 149.157 270.214 149.213 270.319 149.262C270.425 149.305 270.548 149.326 270.688 149.326H270.741C270.762 149.326 270.773 149.378 270.773 149.484C270.773 149.554 270.759 149.603 270.731 149.632L269.676 149.579L268.653 149.632ZM275.593 149.674C275.241 149.674 274.946 149.558 274.707 149.326C274.475 149.094 274.359 148.763 274.359 148.334V145.655H273.747C273.712 145.655 273.694 145.582 273.694 145.434C273.694 145.392 273.698 145.367 273.705 145.36C273.916 145.262 274.137 145.075 274.369 144.801C274.531 144.611 274.65 144.446 274.728 144.305C274.812 144.165 274.854 144.08 274.854 144.052C275.065 144.052 275.171 144.07 275.171 144.105V145.149L276.004 145.16H276.595C276.651 145.16 276.679 145.191 276.679 145.255C276.679 145.388 276.644 145.522 276.574 145.655H275.171V148.239C275.171 148.521 275.241 148.746 275.382 148.914C275.529 149.083 275.719 149.168 275.951 149.168C276.169 149.168 276.387 149.101 276.605 148.967C276.626 148.953 276.658 148.985 276.7 149.062C276.742 149.132 276.76 149.171 276.753 149.178C276.647 149.291 276.486 149.403 276.268 149.516C276.05 149.621 275.825 149.674 275.593 149.674ZM279.474 149.632C279.446 149.603 279.432 149.544 279.432 149.452C279.432 149.368 279.446 149.326 279.474 149.326C279.53 149.326 279.608 149.315 279.706 149.294C279.804 149.273 279.896 149.245 279.98 149.21C280.065 149.175 280.11 149.143 280.117 149.115C280.167 148.925 280.191 148.682 280.191 148.387V143.81C280.191 143.571 280.17 143.346 280.128 143.135C280.1 143.022 279.92 142.966 279.59 142.966H279.495C279.453 142.966 279.432 142.927 279.432 142.85C279.432 142.737 279.453 142.681 279.495 142.681C279.854 142.646 280.156 142.59 280.402 142.512C280.648 142.428 280.817 142.361 280.908 142.312L280.961 142.28H280.982C281.01 142.28 281.038 142.302 281.067 142.344C281.095 142.379 281.112 142.414 281.119 142.449C281.042 142.681 281.003 142.987 281.003 143.367V145.677C281.003 145.705 281.01 145.719 281.024 145.719C281.031 145.719 281.042 145.712 281.056 145.698C281.161 145.585 281.295 145.476 281.457 145.371C281.625 145.258 281.805 145.167 281.995 145.096C282.184 145.019 282.364 144.98 282.533 144.98C283.004 144.98 283.341 145.149 283.545 145.487C283.749 145.824 283.851 146.345 283.851 147.048V148.187C283.851 148.384 283.858 148.559 283.872 148.714C283.886 148.869 283.907 149.002 283.935 149.115C283.949 149.143 283.999 149.175 284.083 149.21C284.167 149.245 284.259 149.273 284.357 149.294C284.456 149.315 284.526 149.326 284.568 149.326C284.589 149.326 284.603 149.368 284.61 149.452C284.617 149.537 284.614 149.596 284.6 149.632L283.471 149.579L282.364 149.632C282.336 149.603 282.322 149.544 282.322 149.452C282.322 149.368 282.336 149.326 282.364 149.326C282.42 149.326 282.494 149.315 282.585 149.294C282.677 149.273 282.761 149.245 282.838 149.21C282.916 149.175 282.958 149.143 282.965 149.115C282.993 149.016 283.011 148.904 283.018 148.777C283.032 148.651 283.039 148.517 283.039 148.377V147.259C283.039 146.823 283 146.489 282.923 146.257C282.845 146.018 282.726 145.852 282.564 145.761C282.402 145.67 282.195 145.624 281.942 145.624C281.801 145.624 281.657 145.666 281.509 145.75C281.369 145.828 281.249 145.919 281.151 146.025C281.052 146.13 281.003 146.225 281.003 146.309V148.176C281.003 148.38 281.01 148.559 281.024 148.714C281.038 148.869 281.059 149.002 281.088 149.115C281.102 149.143 281.151 149.175 281.235 149.21C281.32 149.245 281.411 149.273 281.509 149.294C281.608 149.315 281.678 149.326 281.72 149.326C281.742 149.326 281.756 149.368 281.763 149.452C281.77 149.537 281.766 149.596 281.752 149.632L280.624 149.579L279.474 149.632ZM287.352 149.663C286.966 149.663 286.611 149.561 286.287 149.357C285.964 149.153 285.704 148.883 285.507 148.545C285.317 148.201 285.222 147.818 285.222 147.396C285.222 146.903 285.313 146.478 285.496 146.12C285.679 145.761 285.929 145.487 286.245 145.297C286.561 145.1 286.917 145.002 287.31 145.002C287.634 145.002 287.918 145.065 288.165 145.191C288.411 145.311 288.6 145.466 288.734 145.655C288.861 145.852 288.952 146.053 289.008 146.257C289.072 146.453 289.103 146.65 289.103 146.847C289.103 146.988 289.082 147.076 289.04 147.111C288.998 147.139 288.917 147.153 288.797 147.153H286.14C286.083 147.153 286.055 147.171 286.055 147.206C286.055 147.501 286.115 147.786 286.234 148.06C286.354 148.327 286.53 148.549 286.762 148.725C286.994 148.9 287.279 148.988 287.616 148.988C287.911 148.988 288.158 148.946 288.354 148.862C288.558 148.77 288.706 148.689 288.797 148.619L288.871 148.566C288.913 148.566 288.934 148.612 288.934 148.703C288.934 148.753 288.913 148.816 288.871 148.893C288.731 149.09 288.523 149.27 288.249 149.431C287.975 149.586 287.676 149.663 287.352 149.663ZM286.14 146.71H288.196C288.231 146.71 288.249 146.675 288.249 146.605C288.249 146.45 288.207 146.281 288.122 146.098C288.045 145.909 287.925 145.743 287.764 145.603C287.602 145.462 287.398 145.392 287.152 145.392C286.927 145.392 286.734 145.469 286.572 145.624C286.41 145.771 286.287 145.944 286.203 146.141C286.118 146.33 286.076 146.496 286.076 146.636C286.076 146.686 286.097 146.71 286.14 146.71ZM289.757 149.632C289.729 149.603 289.715 149.544 289.715 149.452C289.715 149.368 289.729 149.326 289.757 149.326C289.813 149.326 289.891 149.315 289.989 149.294C290.088 149.273 290.179 149.245 290.263 149.21C290.348 149.175 290.393 149.143 290.4 149.115C290.429 149.016 290.446 148.904 290.453 148.777C290.467 148.651 290.474 148.517 290.474 148.377V146.383C290.474 146.116 290.425 145.926 290.327 145.814C290.256 145.729 290.172 145.673 290.074 145.645C289.982 145.617 289.898 145.603 289.82 145.603C289.75 145.596 289.715 145.585 289.715 145.571C289.715 145.402 289.736 145.314 289.778 145.307C290.545 145.188 290.988 145.111 291.107 145.075L291.286 145.023C291.315 145.016 291.332 145.044 291.339 145.107C291.346 145.17 291.346 145.216 291.339 145.244L291.276 145.771C291.402 145.582 291.575 145.406 291.793 145.244C292.018 145.075 292.239 144.991 292.457 144.991C292.865 144.991 293.139 145.093 293.28 145.297C293.28 145.543 293.241 145.722 293.164 145.835C293.086 145.947 292.992 146.003 292.879 146.003C292.752 146.003 292.636 145.944 292.531 145.824C292.425 145.705 292.281 145.645 292.099 145.645C291.958 145.645 291.824 145.694 291.698 145.793C291.571 145.884 291.469 146.003 291.392 146.151C291.322 146.292 291.286 146.439 291.286 146.594V148.176C291.286 148.38 291.293 148.559 291.308 148.714C291.322 148.869 291.343 149.002 291.371 149.115C291.385 149.143 291.434 149.175 291.518 149.21C291.603 149.245 291.694 149.273 291.793 149.294C291.898 149.315 291.972 149.326 292.014 149.326C292.035 149.326 292.049 149.368 292.056 149.452C292.063 149.537 292.06 149.596 292.046 149.632L290.907 149.579L289.757 149.632ZM295.895 149.663C295.509 149.663 295.154 149.561 294.83 149.357C294.507 149.153 294.247 148.883 294.05 148.545C293.86 148.201 293.765 147.818 293.765 147.396C293.765 146.903 293.856 146.478 294.039 146.12C294.222 145.761 294.472 145.487 294.788 145.297C295.104 145.1 295.459 145.002 295.853 145.002C296.177 145.002 296.461 145.065 296.708 145.191C296.954 145.311 297.143 145.466 297.277 145.655C297.404 145.852 297.495 146.053 297.551 146.257C297.615 146.453 297.646 146.65 297.646 146.847C297.646 146.988 297.625 147.076 297.583 147.111C297.541 147.139 297.46 147.153 297.34 147.153H294.683C294.626 147.153 294.598 147.171 294.598 147.206C294.598 147.501 294.658 147.786 294.777 148.06C294.897 148.327 295.073 148.549 295.305 148.725C295.537 148.9 295.822 148.988 296.159 148.988C296.454 148.988 296.7 148.946 296.897 148.862C297.101 148.77 297.249 148.689 297.34 148.619L297.414 148.566C297.456 148.566 297.477 148.612 297.477 148.703C297.477 148.753 297.456 148.816 297.414 148.893C297.274 149.09 297.066 149.27 296.792 149.431C296.518 149.586 296.219 149.663 295.895 149.663ZM294.683 146.71H296.739C296.774 146.71 296.792 146.675 296.792 146.605C296.792 146.45 296.75 146.281 296.665 146.098C296.588 145.909 296.468 145.743 296.307 145.603C296.145 145.462 295.941 145.392 295.695 145.392C295.47 145.392 295.277 145.469 295.115 145.624C294.953 145.771 294.83 145.944 294.746 146.141C294.661 146.33 294.619 146.496 294.619 146.636C294.619 146.686 294.64 146.71 294.683 146.71ZM298.595 147.501C298.546 147.501 298.522 147.462 298.522 147.385C298.522 147.027 298.564 146.847 298.648 146.847L301.211 146.721C301.253 146.721 301.274 146.752 301.274 146.816C301.274 146.872 301.267 146.967 301.253 147.1C301.239 147.234 301.211 147.322 301.169 147.364L301.137 147.385L298.595 147.501Z" fill="#FFEFE5"/>
</svg>
