<svg width="324" height="180" viewBox="0 0 324 180" fill="none" xmlns="http://www.w3.org/2000/svg">
<g clip-path="url(#clip0_1094_65498)">
<rect width="324" height="180" fill="white"/>
<circle cx="-0.179985" cy="59.94" r="36.18" fill="#1A1A1A"/>
<circle cx="105.3" cy="59.94" r="36.18" fill="#1A1A1A"/>
<circle cx="149.22" cy="59.94" r="36.18" fill="#1A1A1A"/>
<path d="M248.724 153.76V128.668H256.212C258.924 128.668 260.988 129.268 262.404 130.468C263.844 131.668 264.564 133.432 264.564 135.76C264.564 138.088 263.844 139.876 262.404 141.124C260.964 142.348 258.9 142.96 256.212 142.96H251.856V153.76H248.724ZM251.856 140.152H255.888C257.616 140.152 258.96 139.804 259.92 139.108C260.904 138.388 261.396 137.284 261.396 135.796C261.396 134.332 260.916 133.252 259.956 132.556C259.02 131.86 257.664 131.512 255.888 131.512H251.856V140.152ZM276.044 154.156C273.524 154.156 271.46 153.496 269.852 152.176C268.244 150.856 267.26 149.104 266.9 146.92L269.996 146.164C270.26 147.844 270.944 149.128 272.048 150.016C273.176 150.88 274.544 151.312 276.152 151.312C277.088 151.312 277.928 151.132 278.672 150.772C279.416 150.412 280.004 149.908 280.436 149.26C280.868 148.588 281.084 147.832 281.084 146.992C281.084 146.104 280.844 145.372 280.364 144.796C279.884 144.22 279.212 143.716 278.348 143.284C277.508 142.852 276.524 142.42 275.396 141.988C274.004 141.46 272.78 140.884 271.724 140.26C270.692 139.636 269.888 138.892 269.312 138.028C268.736 137.14 268.448 136.06 268.448 134.788C268.448 133.516 268.76 132.388 269.384 131.404C270.008 130.42 270.884 129.652 272.012 129.1C273.14 128.524 274.448 128.236 275.936 128.236C277.52 128.236 278.924 128.596 280.148 129.316C281.372 130.036 282.356 131.104 283.1 132.52L280.58 134.068C280.028 133.084 279.356 132.34 278.564 131.836C277.772 131.308 276.86 131.044 275.828 131.044C275.012 131.044 274.28 131.2 273.632 131.512C273.008 131.824 272.516 132.256 272.156 132.808C271.796 133.36 271.616 133.996 271.616 134.716C271.616 135.484 271.832 136.144 272.264 136.696C272.696 137.224 273.32 137.692 274.136 138.1C274.952 138.508 275.936 138.928 277.088 139.36C278.552 139.912 279.812 140.512 280.868 141.16C281.924 141.808 282.74 142.588 283.316 143.5C283.916 144.388 284.216 145.492 284.216 146.812C284.216 148.228 283.868 149.488 283.172 150.592C282.476 151.696 281.516 152.572 280.292 153.22C279.068 153.844 277.652 154.156 276.044 154.156ZM295.069 154.192C292.741 154.192 290.833 153.484 289.345 152.068C287.857 150.652 287.029 148.708 286.861 146.236L289.993 145.912C290.113 147.736 290.617 149.08 291.505 149.944C292.393 150.808 293.581 151.24 295.069 151.24C296.773 151.24 298.009 150.676 298.777 149.548C299.569 148.42 299.965 146.8 299.965 144.688V131.512H290.029V128.668H303.133V144.868C303.133 146.812 302.809 148.48 302.161 149.872C301.537 151.264 300.625 152.332 299.425 153.076C298.225 153.82 296.773 154.192 295.069 154.192Z" fill="black"/>
</g>
<defs>
<clipPath id="clip0_1094_65498">
<rect width="324" height="180" fill="white"/>
</clipPath>
</defs>
</svg>
