<svg width="324" height="180" viewBox="0 0 324 180" fill="none" xmlns="http://www.w3.org/2000/svg">
<g clip-path="url(#clip0_1094_65506)">
<rect width="324" height="180" fill="#403B3B"/>
<path d="M33.1201 154.548C32.7001 154.548 32.3371 154.444 32.0311 154.237C31.7251 154.03 31.4896 153.745 31.3246 153.382C31.1596 153.019 31.0771 152.604 31.0771 152.136C31.0771 151.629 31.1626 151.197 31.3336 150.84C31.5046 150.48 31.7431 150.205 32.0491 150.016C32.3551 149.827 32.7121 149.733 33.1201 149.733C33.4651 149.733 33.7816 149.811 34.0696 149.967C34.3576 150.12 34.5871 150.358 34.7581 150.682C34.9321 151.003 35.0191 151.416 35.0191 151.92C35.0191 151.992 35.0161 152.076 35.0101 152.172C35.0071 152.265 35.0011 152.361 34.9921 152.46H31.8781C31.9081 152.739 31.9771 152.983 32.0851 153.193C32.1931 153.403 32.3356 153.568 32.5126 153.688C32.6896 153.805 32.8981 153.864 33.1381 153.864C33.3331 153.864 33.5131 153.829 33.6781 153.76C33.8461 153.691 34.0021 153.585 34.1461 153.441L34.6051 153.954C34.4341 154.125 34.2211 154.267 33.9661 154.381C33.7141 154.492 33.4321 154.548 33.1201 154.548ZM31.8691 151.776H34.2271C34.2271 151.515 34.1836 151.282 34.0966 151.078C34.0126 150.871 33.8881 150.709 33.7231 150.592C33.5581 150.475 33.3571 150.417 33.1201 150.417C32.7871 150.417 32.5006 150.525 32.2606 150.741C32.0236 150.957 31.8931 151.302 31.8691 151.776ZM36.2778 154.44V149.841H37.0608V150.273C37.1928 150.096 37.3623 149.962 37.5693 149.872C37.7793 149.779 38.0118 149.733 38.2668 149.733C38.5338 149.733 38.7753 149.793 38.9913 149.913C39.2103 150.03 39.3798 150.195 39.4998 150.408C39.6408 150.192 39.8268 150.025 40.0578 149.908C40.2918 149.791 40.5498 149.733 40.8318 149.733C41.3268 149.733 41.7198 149.886 42.0108 150.192C42.3048 150.495 42.4518 150.906 42.4518 151.425V154.44H41.6688V151.65C41.6688 151.266 41.5878 150.97 41.4258 150.763C41.2668 150.556 41.0388 150.453 40.7418 150.453C40.5438 150.453 40.3698 150.504 40.2198 150.606C40.0728 150.708 39.9573 150.852 39.8733 151.038C39.7923 151.221 39.7518 151.434 39.7518 151.677V154.44H38.9688V151.65C38.9688 151.257 38.8908 150.96 38.7348 150.759C38.5818 150.555 38.3538 150.453 38.0508 150.453C37.7448 150.453 37.5033 150.559 37.3263 150.772C37.1493 150.985 37.0608 151.275 37.0608 151.641V154.44H36.2778ZM45.2738 154.548C44.7758 154.548 44.3843 154.41 44.0993 154.134C43.8143 153.858 43.6718 153.48 43.6718 153C43.6718 152.691 43.7423 152.422 43.8833 152.194C44.0243 151.966 44.2238 151.791 44.4818 151.668C44.7398 151.542 45.0428 151.479 45.3908 151.479C45.6158 151.479 45.8258 151.504 46.0208 151.555C46.2188 151.603 46.4048 151.677 46.5788 151.776V151.452C46.5788 151.095 46.4978 150.834 46.3358 150.669C46.1738 150.501 45.9218 150.417 45.5798 150.417C45.3608 150.417 45.1328 150.457 44.8958 150.538C44.6618 150.619 44.4428 150.732 44.2388 150.876L44.0138 150.219C44.2448 150.066 44.5073 149.947 44.8013 149.863C45.0983 149.776 45.3908 149.733 45.6788 149.733C46.2248 149.733 46.6343 149.872 46.9073 150.151C47.1803 150.427 47.3168 150.84 47.3168 151.389V154.44H46.5788V154.017C46.3988 154.188 46.1963 154.32 45.9713 154.413C45.7463 154.503 45.5138 154.548 45.2738 154.548ZM45.3908 153.864C45.6038 153.864 45.8138 153.811 46.0208 153.706C46.2308 153.601 46.4168 153.453 46.5788 153.261V152.469C46.4258 152.373 46.2518 152.298 46.0568 152.244C45.8618 152.19 45.6758 152.163 45.4988 152.163C45.1628 152.163 44.8973 152.239 44.7023 152.392C44.5073 152.542 44.4098 152.748 44.4098 153.009C44.4098 153.273 44.4968 153.481 44.6708 153.634C44.8448 153.787 45.0848 153.864 45.3908 153.864ZM48.6881 154.44V149.841H49.4711V154.44H48.6881ZM49.0751 149.004C48.9401 149.004 48.8246 148.957 48.7286 148.864C48.6356 148.768 48.5891 148.653 48.5891 148.518C48.5891 148.377 48.6356 148.258 48.7286 148.162C48.8246 148.063 48.9401 148.014 49.0751 148.014C49.2161 148.014 49.3331 148.063 49.4261 148.162C49.5221 148.258 49.5701 148.377 49.5701 148.518C49.5701 148.653 49.5221 148.768 49.4261 148.864C49.3331 148.957 49.2161 149.004 49.0751 149.004ZM51.0093 154.44V148.311L51.7923 147.942V154.44H51.0093ZM53.9858 154.44V149.418H52.9328V148.887C53.1398 148.887 53.3273 148.864 53.4953 148.819C53.6633 148.771 53.8073 148.693 53.9273 148.585C54.0473 148.477 54.1388 148.329 54.2018 148.14H54.7688V154.44H53.9858ZM56.5602 154.44C56.5602 154.026 56.6187 153.661 56.7357 153.346C56.8557 153.028 57.0147 152.749 57.2127 152.509C57.4137 152.266 57.6387 152.052 57.8877 151.866C58.1367 151.68 58.3902 151.512 58.6482 151.362C58.8732 151.23 59.0832 151.092 59.2782 150.948C59.4732 150.801 59.6307 150.637 59.7507 150.457C59.8737 150.277 59.9352 150.069 59.9352 149.832C59.9352 149.529 59.8242 149.275 59.6022 149.071C59.3802 148.864 59.0802 148.761 58.7022 148.761C58.3152 148.761 58.0167 148.846 57.8067 149.017C57.5997 149.185 57.4512 149.409 57.3612 149.688L56.6592 149.373C56.7822 148.986 57.0267 148.666 57.3927 148.414C57.7617 148.159 58.2072 148.032 58.7292 148.032C59.1492 148.032 59.5092 148.108 59.8092 148.261C60.1122 148.414 60.3432 148.627 60.5022 148.9C60.6642 149.173 60.7452 149.49 60.7452 149.85C60.7452 150.219 60.6642 150.532 60.5022 150.79C60.3402 151.045 60.1257 151.27 59.8587 151.465C59.5947 151.66 59.3082 151.848 58.9992 152.028C58.7412 152.178 58.5057 152.334 58.2927 152.496C58.0797 152.655 57.9012 152.83 57.7572 153.022C57.6132 153.214 57.5172 153.432 57.4692 153.675H60.7992V154.44H56.5602ZM64.0599 154.548C63.5349 154.548 63.0909 154.423 62.7279 154.174C62.3679 153.925 62.0949 153.561 61.9089 153.081L62.6379 152.784C62.9139 153.462 63.3879 153.801 64.0599 153.801C64.4799 153.801 64.8099 153.7 65.0499 153.499C65.2899 153.295 65.4099 153.021 65.4099 152.676C65.4099 152.316 65.2944 152.035 65.0634 151.834C64.8354 151.633 64.5159 151.533 64.1049 151.533H63.6549V150.795H64.0599C64.3929 150.795 64.6599 150.703 64.8609 150.52C65.0649 150.334 65.1669 150.093 65.1669 149.796C65.1669 149.484 65.0679 149.235 64.8699 149.049C64.6719 148.863 64.4109 148.77 64.0869 148.77C63.8139 148.77 63.5679 148.842 63.3489 148.986C63.1329 149.13 62.9619 149.34 62.8359 149.616L62.1069 149.337C62.2659 148.926 62.5194 148.606 62.8674 148.378C63.2184 148.147 63.6249 148.032 64.0869 148.032C64.4529 148.032 64.7784 148.105 65.0634 148.252C65.3514 148.396 65.5764 148.594 65.7384 148.846C65.9034 149.098 65.9859 149.385 65.9859 149.706C65.9859 149.997 65.9139 150.265 65.7699 150.511C65.6259 150.754 65.4279 150.942 65.1759 151.074C65.5149 151.209 65.7744 151.413 65.9544 151.686C66.1374 151.959 66.2289 152.28 66.2289 152.649C66.2289 153.018 66.1359 153.345 65.9499 153.63C65.7669 153.915 65.5119 154.14 65.1849 154.305C64.8579 154.467 64.4829 154.548 64.0599 154.548ZM70.302 154.44V152.874H67.08V152.406L70.347 148.14H71.085V152.172H71.976V152.874H71.085V154.44H70.302ZM68.106 152.172H70.302V149.247L68.106 152.172ZM76.1168 154.548C75.5168 154.548 74.9768 154.426 74.4968 154.183C74.0168 153.937 73.6373 153.582 73.3583 153.117C73.0793 152.649 72.9398 152.082 72.9398 151.416C72.9398 150.918 73.0268 150.463 73.2008 150.052C73.3748 149.638 73.6133 149.281 73.9163 148.981C74.2223 148.678 74.5748 148.444 74.9738 148.279C75.3728 148.114 75.7958 148.032 76.2428 148.032C76.8398 148.032 77.3618 148.15 77.8088 148.387C78.2588 148.621 78.6083 148.942 78.8573 149.35C79.1063 149.755 79.2308 150.216 79.2308 150.732C79.2308 151.17 79.1573 151.56 79.0103 151.902C78.8663 152.241 78.6743 152.508 78.4343 152.703C78.1943 152.895 77.9318 152.991 77.6468 152.991C77.5118 152.991 77.3903 152.967 77.2823 152.919C77.1773 152.868 77.0903 152.797 77.0213 152.707C76.9523 152.614 76.9058 152.505 76.8818 152.379C76.8008 152.523 76.7048 152.644 76.5938 152.743C76.4858 152.842 76.3628 152.917 76.2248 152.968C76.0898 153.019 75.9428 153.045 75.7838 153.045C75.5318 153.045 75.3068 152.98 75.1088 152.851C74.9138 152.719 74.7593 152.538 74.6453 152.307C74.5343 152.076 74.4788 151.809 74.4788 151.506C74.4788 151.212 74.5463 150.922 74.6813 150.637C74.8193 150.349 75.0113 150.112 75.2573 149.926C75.5063 149.737 75.7988 149.643 76.1348 149.643C76.3658 149.643 76.5623 149.701 76.7243 149.818C76.8893 149.932 77.0078 150.105 77.0798 150.336L77.1788 149.76H77.8628L77.5388 151.569C77.5178 151.677 77.5013 151.774 77.4893 151.861C77.4803 151.945 77.4758 152.013 77.4758 152.064C77.4758 152.175 77.4998 152.26 77.5478 152.32C77.5958 152.377 77.6648 152.406 77.7548 152.406C77.9018 152.406 78.0383 152.331 78.1643 152.181C78.2903 152.031 78.3908 151.828 78.4658 151.573C78.5438 151.318 78.5828 151.032 78.5828 150.714C78.5828 150.3 78.4838 149.941 78.2858 149.638C78.0908 149.332 77.8193 149.097 77.4713 148.932C77.1263 148.764 76.7288 148.68 76.2788 148.68C75.8798 148.68 75.5183 148.749 75.1943 148.887C74.8703 149.025 74.5928 149.218 74.3618 149.467C74.1338 149.716 73.9583 150.007 73.8353 150.34C73.7123 150.673 73.6508 151.035 73.6508 151.425C73.6508 151.911 73.7498 152.34 73.9478 152.712C74.1488 153.084 74.4353 153.375 74.8073 153.585C75.1823 153.795 75.6308 153.9 76.1528 153.9C76.3598 153.9 76.5698 153.886 76.7828 153.859C76.9958 153.832 77.1848 153.795 77.3498 153.747L77.1878 154.449C77.0348 154.485 76.8668 154.51 76.6838 154.525C76.5008 154.54 76.3118 154.548 76.1168 154.548ZM75.9368 152.388C76.1348 152.388 76.3058 152.329 76.4498 152.212C76.5968 152.095 76.7093 151.944 76.7873 151.758C76.8683 151.572 76.9088 151.377 76.9088 151.173C76.9088 150.912 76.8413 150.703 76.7063 150.547C76.5743 150.388 76.4048 150.309 76.1978 150.309C75.9968 150.309 75.8213 150.364 75.6713 150.475C75.5243 150.586 75.4103 150.733 75.3293 150.916C75.2483 151.099 75.2078 151.299 75.2078 151.515C75.2078 151.779 75.2723 151.99 75.4013 152.149C75.5333 152.308 75.7118 152.388 75.9368 152.388ZM81.9258 154.548C81.5058 154.548 81.1428 154.444 80.8368 154.237C80.5308 154.03 80.2953 153.745 80.1303 153.382C79.9653 153.019 79.8828 152.604 79.8828 152.136C79.8828 151.629 79.9683 151.197 80.1393 150.84C80.3103 150.48 80.5488 150.205 80.8548 150.016C81.1608 149.827 81.5178 149.733 81.9258 149.733C82.2708 149.733 82.5873 149.811 82.8753 149.967C83.1633 150.12 83.3928 150.358 83.5638 150.682C83.7378 151.003 83.8248 151.416 83.8248 151.92C83.8248 151.992 83.8218 152.076 83.8158 152.172C83.8128 152.265 83.8068 152.361 83.7978 152.46H80.6838C80.7138 152.739 80.7828 152.983 80.8908 153.193C80.9988 153.403 81.1413 153.568 81.3183 153.688C81.4953 153.805 81.7038 153.864 81.9438 153.864C82.1388 153.864 82.3188 153.829 82.4838 153.76C82.6518 153.691 82.8078 153.585 82.9518 153.441L83.4108 153.954C83.2398 154.125 83.0268 154.267 82.7718 154.381C82.5198 154.492 82.2378 154.548 81.9258 154.548ZM80.6748 151.776H83.0328C83.0328 151.515 82.9893 151.282 82.9023 151.078C82.8183 150.871 82.6938 150.709 82.5288 150.592C82.3638 150.475 82.1628 150.417 81.9258 150.417C81.5928 150.417 81.3063 150.525 81.0663 150.741C80.8293 150.957 80.6988 151.302 80.6748 151.776ZM85.0834 154.44V149.841H85.8664V150.273C85.9984 150.096 86.1679 149.962 86.3749 149.872C86.5849 149.779 86.8174 149.733 87.0724 149.733C87.3394 149.733 87.5809 149.793 87.7969 149.913C88.0159 150.03 88.1854 150.195 88.3054 150.408C88.4464 150.192 88.6324 150.025 88.8634 149.908C89.0974 149.791 89.3554 149.733 89.6374 149.733C90.1324 149.733 90.5254 149.886 90.8164 150.192C91.1104 150.495 91.2574 150.906 91.2574 151.425V154.44H90.4744V151.65C90.4744 151.266 90.3934 150.97 90.2314 150.763C90.0724 150.556 89.8444 150.453 89.5474 150.453C89.3494 150.453 89.1754 150.504 89.0254 150.606C88.8784 150.708 88.7629 150.852 88.6789 151.038C88.5979 151.221 88.5574 151.434 88.5574 151.677V154.44H87.7744V151.65C87.7744 151.257 87.6964 150.96 87.5404 150.759C87.3874 150.555 87.1594 150.453 86.8564 150.453C86.5504 150.453 86.3089 150.559 86.1319 150.772C85.9549 150.985 85.8664 151.275 85.8664 151.641V154.44H85.0834ZM94.0795 154.548C93.5815 154.548 93.19 154.41 92.905 154.134C92.62 153.858 92.4775 153.48 92.4775 153C92.4775 152.691 92.548 152.422 92.689 152.194C92.83 151.966 93.0295 151.791 93.2875 151.668C93.5455 151.542 93.8485 151.479 94.1965 151.479C94.4215 151.479 94.6315 151.504 94.8265 151.555C95.0245 151.603 95.2105 151.677 95.3845 151.776V151.452C95.3845 151.095 95.3035 150.834 95.1415 150.669C94.9795 150.501 94.7275 150.417 94.3855 150.417C94.1665 150.417 93.9385 150.457 93.7015 150.538C93.4675 150.619 93.2485 150.732 93.0445 150.876L92.8195 150.219C93.0505 150.066 93.313 149.947 93.607 149.863C93.904 149.776 94.1965 149.733 94.4845 149.733C95.0305 149.733 95.44 149.872 95.713 150.151C95.986 150.427 96.1225 150.84 96.1225 151.389V154.44H95.3845V154.017C95.2045 154.188 95.002 154.32 94.777 154.413C94.552 154.503 94.3195 154.548 94.0795 154.548ZM94.1965 153.864C94.4095 153.864 94.6195 153.811 94.8265 153.706C95.0365 153.601 95.2225 153.453 95.3845 153.261V152.469C95.2315 152.373 95.0575 152.298 94.8625 152.244C94.6675 152.19 94.4815 152.163 94.3045 152.163C93.9685 152.163 93.703 152.239 93.508 152.392C93.313 152.542 93.2155 152.748 93.2155 153.009C93.2155 153.273 93.3025 153.481 93.4765 153.634C93.6505 153.787 93.8905 153.864 94.1965 153.864ZM97.4938 154.44V149.841H98.2768V154.44H97.4938ZM97.8808 149.004C97.7458 149.004 97.6303 148.957 97.5343 148.864C97.4413 148.768 97.3948 148.653 97.3948 148.518C97.3948 148.377 97.4413 148.258 97.5343 148.162C97.6303 148.063 97.7458 148.014 97.8808 148.014C98.0218 148.014 98.1388 148.063 98.2318 148.162C98.3278 148.258 98.3758 148.377 98.3758 148.518C98.3758 148.653 98.3278 148.768 98.2318 148.864C98.1388 148.957 98.0218 149.004 97.8808 149.004ZM99.8149 154.44V148.311L100.598 147.942V154.44H99.8149ZM102.386 154.557C102.212 154.557 102.065 154.495 101.945 154.372C101.825 154.249 101.765 154.107 101.765 153.945C101.765 153.783 101.825 153.639 101.945 153.513C102.065 153.387 102.212 153.324 102.386 153.324C102.563 153.324 102.712 153.387 102.832 153.513C102.955 153.639 103.016 153.783 103.016 153.945C103.016 154.107 102.955 154.249 102.832 154.372C102.712 154.495 102.563 154.557 102.386 154.557ZM105.468 154.548C105.072 154.548 104.732 154.452 104.447 154.26C104.162 154.065 103.943 153.789 103.79 153.432C103.637 153.072 103.56 152.643 103.56 152.145C103.56 151.644 103.638 151.213 103.794 150.853C103.95 150.493 104.172 150.217 104.46 150.025C104.751 149.83 105.099 149.733 105.504 149.733C105.9 149.733 106.236 149.824 106.512 150.007C106.788 150.19 106.989 150.456 107.115 150.804L106.377 151.074C106.302 150.876 106.19 150.724 106.04 150.619C105.893 150.514 105.717 150.462 105.513 150.462C105.141 150.462 104.856 150.606 104.658 150.894C104.46 151.182 104.361 151.599 104.361 152.145C104.361 152.679 104.459 153.09 104.654 153.378C104.849 153.666 105.126 153.81 105.486 153.81C105.717 153.81 105.914 153.75 106.076 153.63C106.241 153.51 106.356 153.342 106.422 153.126L107.151 153.369C107.04 153.747 106.838 154.038 106.544 154.242C106.25 154.446 105.891 154.548 105.468 154.548ZM110.165 154.548C109.535 154.548 109.038 154.333 108.675 153.904C108.312 153.472 108.131 152.886 108.131 152.145C108.131 151.65 108.213 151.222 108.378 150.862C108.543 150.502 108.777 150.225 109.08 150.03C109.386 149.832 109.748 149.733 110.165 149.733C110.585 149.733 110.946 149.83 111.249 150.025C111.555 150.217 111.789 150.493 111.951 150.853C112.116 151.213 112.199 151.641 112.199 152.136C112.199 152.631 112.116 153.06 111.951 153.423C111.786 153.783 111.551 154.06 111.245 154.255C110.942 154.45 110.582 154.548 110.165 154.548ZM110.165 153.819C110.552 153.819 110.855 153.67 111.074 153.373C111.296 153.073 111.407 152.661 111.407 152.136C111.407 151.608 111.296 151.195 111.074 150.898C110.855 150.601 110.552 150.453 110.165 150.453C109.775 150.453 109.47 150.601 109.251 150.898C109.032 151.192 108.923 151.608 108.923 152.145C108.923 152.67 109.032 153.081 109.251 153.378C109.47 153.672 109.775 153.819 110.165 153.819ZM113.375 154.44V149.841H114.158V150.273C114.29 150.096 114.46 149.962 114.667 149.872C114.877 149.779 115.109 149.733 115.364 149.733C115.631 149.733 115.873 149.793 116.089 149.913C116.308 150.03 116.477 150.195 116.597 150.408C116.738 150.192 116.924 150.025 117.155 149.908C117.389 149.791 117.647 149.733 117.929 149.733C118.424 149.733 118.817 149.886 119.108 150.192C119.402 150.495 119.549 150.906 119.549 151.425V154.44H118.766V151.65C118.766 151.266 118.685 150.97 118.523 150.763C118.364 150.556 118.136 150.453 117.839 150.453C117.641 150.453 117.467 150.504 117.317 150.606C117.17 150.708 117.055 150.852 116.971 151.038C116.89 151.221 116.849 151.434 116.849 151.677V154.44H116.066V151.65C116.066 151.257 115.988 150.96 115.832 150.759C115.679 150.555 115.451 150.453 115.148 150.453C114.842 150.453 114.601 150.559 114.424 150.772C114.247 150.985 114.158 151.275 114.158 151.641V154.44H113.375Z" fill="#EBE8E0"/>
<path d="M33.1021 122.868V121.131H31.3921V120.375H33.1021V118.638H33.8941V120.375H35.6221V121.131H33.8941V122.868H33.1021ZM39.1459 123.948C38.7319 123.948 38.3659 123.865 38.0479 123.7C37.7299 123.532 37.4809 123.304 37.3009 123.016C37.1209 122.725 37.0309 122.397 37.0309 122.031C37.0309 121.638 37.1314 121.297 37.3324 121.009C37.5364 120.721 37.7959 120.51 38.1109 120.375C37.9399 120.288 37.7944 120.178 37.6744 120.046C37.5544 119.914 37.4629 119.766 37.3999 119.601C37.3399 119.436 37.3099 119.259 37.3099 119.07C37.3099 118.767 37.3879 118.492 37.5439 118.246C37.6999 117.997 37.9159 117.799 38.1919 117.652C38.4679 117.505 38.7859 117.432 39.1459 117.432C39.5089 117.432 39.8284 117.505 40.1044 117.652C40.3834 117.799 40.6009 117.997 40.7569 118.246C40.9129 118.492 40.9909 118.767 40.9909 119.07C40.9909 119.259 40.9594 119.436 40.8964 119.601C40.8364 119.766 40.7464 119.914 40.6264 120.046C40.5064 120.178 40.3579 120.288 40.1809 120.375C40.5049 120.513 40.7674 120.726 40.9684 121.014C41.1694 121.299 41.2699 121.638 41.2699 122.031C41.2699 122.397 41.1799 122.725 40.9999 123.016C40.8199 123.304 40.5694 123.532 40.2484 123.7C39.9304 123.865 39.5629 123.948 39.1459 123.948ZM39.1459 123.21C39.3979 123.21 39.6229 123.16 39.8209 123.061C40.0189 122.959 40.1749 122.815 40.2889 122.629C40.4029 122.443 40.4599 122.223 40.4599 121.968C40.4599 121.743 40.4044 121.536 40.2934 121.347C40.1824 121.155 40.0279 121.002 39.8299 120.888C39.6319 120.774 39.4039 120.717 39.1459 120.717C38.8879 120.717 38.6599 120.774 38.4619 120.888C38.2669 121.002 38.1139 121.155 38.0029 121.347C37.8949 121.536 37.8409 121.743 37.8409 121.968C37.8409 122.223 37.8964 122.443 38.0074 122.629C38.1214 122.815 38.2759 122.959 38.4709 123.061C38.6689 123.16 38.8939 123.21 39.1459 123.21ZM39.1459 120.06C39.4609 120.06 39.7144 119.971 39.9064 119.794C40.1014 119.614 40.1989 119.394 40.1989 119.133C40.1989 118.836 40.0999 118.6 39.9019 118.426C39.7039 118.249 39.4519 118.161 39.1459 118.161C38.8459 118.161 38.5969 118.249 38.3989 118.426C38.2009 118.6 38.1019 118.836 38.1019 119.133C38.1019 119.394 38.1964 119.614 38.3854 119.794C38.5774 119.971 38.8309 120.06 39.1459 120.06ZM42.3571 123.84C42.3571 123.426 42.4156 123.061 42.5326 122.746C42.6526 122.428 42.8116 122.149 43.0096 121.909C43.2106 121.666 43.4356 121.452 43.6846 121.266C43.9336 121.08 44.1871 120.912 44.4451 120.762C44.6701 120.63 44.8801 120.492 45.0751 120.348C45.2701 120.201 45.4276 120.037 45.5476 119.857C45.6706 119.677 45.7321 119.469 45.7321 119.232C45.7321 118.929 45.6211 118.675 45.3991 118.471C45.1771 118.264 44.8771 118.161 44.4991 118.161C44.1121 118.161 43.8136 118.246 43.6036 118.417C43.3966 118.585 43.2481 118.809 43.1581 119.088L42.4561 118.773C42.5791 118.386 42.8236 118.066 43.1896 117.814C43.5586 117.559 44.0041 117.432 44.5261 117.432C44.9461 117.432 45.3061 117.508 45.6061 117.661C45.9091 117.814 46.1401 118.027 46.2991 118.3C46.4611 118.573 46.5421 118.89 46.5421 119.25C46.5421 119.619 46.4611 119.932 46.2991 120.19C46.1371 120.445 45.9226 120.67 45.6556 120.865C45.3916 121.06 45.1051 121.248 44.7961 121.428C44.5381 121.578 44.3026 121.734 44.0896 121.896C43.8766 122.055 43.6981 122.23 43.5541 122.422C43.4101 122.614 43.3141 122.832 43.2661 123.075H46.5961V123.84H42.3571ZM50.769 123.84V118.818H49.716V118.287C49.923 118.287 50.1105 118.264 50.2785 118.219C50.4465 118.171 50.5905 118.093 50.7105 117.985C50.8305 117.877 50.922 117.729 50.985 117.54H51.552V123.84H50.769ZM55.6024 123.948C55.1794 123.948 54.8254 123.853 54.5404 123.664C54.2584 123.475 54.0334 123.223 53.8654 122.908C53.6974 122.59 53.5774 122.239 53.5054 121.855C53.4334 121.468 53.3974 121.08 53.3974 120.69C53.3974 120.414 53.4169 120.126 53.4559 119.826C53.4979 119.523 53.5669 119.23 53.6629 118.948C53.7589 118.663 53.8909 118.407 54.0589 118.179C54.2269 117.951 54.4369 117.769 54.6889 117.634C54.9439 117.499 55.2484 117.432 55.6024 117.432C56.0254 117.432 56.3779 117.528 56.6599 117.72C56.9449 117.909 57.1714 118.162 57.3394 118.48C57.5074 118.798 57.6274 119.149 57.6994 119.533C57.7714 119.917 57.8074 120.303 57.8074 120.69C57.8074 120.966 57.7864 121.255 57.7444 121.558C57.7024 121.858 57.6319 122.151 57.5329 122.436C57.4369 122.718 57.3049 122.973 57.1369 123.201C56.9689 123.429 56.7589 123.61 56.5069 123.745C56.2549 123.88 55.9534 123.948 55.6024 123.948ZM55.6024 123.21C55.8874 123.21 56.1199 123.133 56.2999 122.98C56.4799 122.824 56.6194 122.622 56.7184 122.373C56.8174 122.121 56.8849 121.848 56.9209 121.554C56.9599 121.26 56.9794 120.972 56.9794 120.69C56.9794 120.378 56.9584 120.073 56.9164 119.776C56.8744 119.476 56.8024 119.205 56.7004 118.962C56.6014 118.716 56.4619 118.521 56.2819 118.377C56.1049 118.233 55.8784 118.161 55.6024 118.161C55.3144 118.161 55.0789 118.239 54.8959 118.395C54.7129 118.548 54.5719 118.75 54.4729 119.002C54.3739 119.254 54.3049 119.529 54.2659 119.826C54.2269 120.12 54.2074 120.408 54.2074 120.69C54.2074 120.999 54.2284 121.303 54.2704 121.603C54.3124 121.903 54.3844 122.175 54.4864 122.418C54.5914 122.658 54.7339 122.85 54.9139 122.994C55.0969 123.138 55.3264 123.21 55.6024 123.21ZM62.019 123.84V118.818H60.966V118.287C61.173 118.287 61.3605 118.264 61.5285 118.219C61.6965 118.171 61.8405 118.093 61.9605 117.985C62.0805 117.877 62.172 117.729 62.235 117.54H62.802V123.84H62.019ZM64.5934 123.84C64.5934 123.426 64.6519 123.061 64.7689 122.746C64.8889 122.428 65.0479 122.149 65.2459 121.909C65.4469 121.666 65.6719 121.452 65.9209 121.266C66.1699 121.08 66.4234 120.912 66.6814 120.762C66.9064 120.63 67.1164 120.492 67.3114 120.348C67.5064 120.201 67.6639 120.037 67.7839 119.857C67.9069 119.677 67.9684 119.469 67.9684 119.232C67.9684 118.929 67.8574 118.675 67.6354 118.471C67.4134 118.264 67.1134 118.161 66.7354 118.161C66.3484 118.161 66.0499 118.246 65.8399 118.417C65.6329 118.585 65.4844 118.809 65.3944 119.088L64.6924 118.773C64.8154 118.386 65.0599 118.066 65.4259 117.814C65.7949 117.559 66.2404 117.432 66.7624 117.432C67.1824 117.432 67.5424 117.508 67.8424 117.661C68.1454 117.814 68.3764 118.027 68.5354 118.3C68.6974 118.573 68.7784 118.89 68.7784 119.25C68.7784 119.619 68.6974 119.932 68.5354 120.19C68.3734 120.445 68.1589 120.67 67.8919 120.865C67.6279 121.06 67.3414 121.248 67.0324 121.428C66.7744 121.578 66.5389 121.734 66.3259 121.896C66.1129 122.055 65.9344 122.23 65.7904 122.422C65.6464 122.614 65.5504 122.832 65.5024 123.075H68.8324V123.84H64.5934ZM72.0931 123.948C71.5681 123.948 71.1241 123.823 70.7611 123.574C70.4011 123.325 70.1281 122.961 69.9421 122.481L70.6711 122.184C70.9471 122.862 71.4211 123.201 72.0931 123.201C72.5131 123.201 72.8431 123.1 73.0831 122.899C73.3231 122.695 73.4431 122.421 73.4431 122.076C73.4431 121.716 73.3276 121.435 73.0966 121.234C72.8686 121.033 72.5491 120.933 72.1381 120.933H71.6881V120.195H72.0931C72.4261 120.195 72.6931 120.103 72.8941 119.92C73.0981 119.734 73.2001 119.493 73.2001 119.196C73.2001 118.884 73.1011 118.635 72.9031 118.449C72.7051 118.263 72.4441 118.17 72.1201 118.17C71.8471 118.17 71.6011 118.242 71.3821 118.386C71.1661 118.53 70.9951 118.74 70.8691 119.016L70.1401 118.737C70.2991 118.326 70.5526 118.006 70.9006 117.778C71.2516 117.547 71.6581 117.432 72.1201 117.432C72.4861 117.432 72.8116 117.505 73.0966 117.652C73.3846 117.796 73.6096 117.994 73.7716 118.246C73.9366 118.498 74.0191 118.785 74.0191 119.106C74.0191 119.397 73.9471 119.665 73.8031 119.911C73.6591 120.154 73.4611 120.342 73.2091 120.474C73.5481 120.609 73.8076 120.813 73.9876 121.086C74.1706 121.359 74.2621 121.68 74.2621 122.049C74.2621 122.418 74.1691 122.745 73.9831 123.03C73.8001 123.315 73.5451 123.54 73.2181 123.705C72.8911 123.867 72.5161 123.948 72.0931 123.948ZM78.3352 123.84V122.274H75.1132V121.806L78.3802 117.54H79.1182V121.572H80.0092V122.274H79.1182V123.84H78.3352ZM76.1392 121.572H78.3352V118.647L76.1392 121.572ZM85.2152 123.948C84.8762 123.948 84.5732 123.912 84.3062 123.84C84.0422 123.771 83.8172 123.684 83.6312 123.579C83.4452 123.471 83.3012 123.363 83.1992 123.255L83.6672 122.652C83.7842 122.754 83.9117 122.848 84.0497 122.935C84.1907 123.022 84.3542 123.093 84.5402 123.147C84.7262 123.201 84.9482 123.228 85.2062 123.228C85.5062 123.228 85.7717 123.165 86.0027 123.039C86.2337 122.913 86.4152 122.743 86.5472 122.53C86.6792 122.317 86.7452 122.079 86.7452 121.815C86.7452 121.551 86.6912 121.32 86.5832 121.122C86.4782 120.921 86.3282 120.765 86.1332 120.654C85.9412 120.54 85.7162 120.483 85.4582 120.483C85.1612 120.483 84.9062 120.535 84.6932 120.64C84.4802 120.742 84.3122 120.861 84.1892 120.996L83.4152 120.726L83.7842 117.54H87.1502V118.269H84.4682L84.2252 120.168C84.3872 120.036 84.5837 119.931 84.8147 119.853C85.0487 119.775 85.2932 119.736 85.5482 119.736C85.9592 119.736 86.3147 119.827 86.6147 120.01C86.9177 120.193 87.1517 120.438 87.3167 120.744C87.4817 121.05 87.5642 121.389 87.5642 121.761C87.5642 122.16 87.4682 122.526 87.2762 122.859C87.0842 123.189 86.8112 123.453 86.4572 123.651C86.1062 123.849 85.6922 123.948 85.2152 123.948ZM90.904 123.948C90.55 123.948 90.2395 123.886 89.9725 123.763C89.7055 123.64 89.482 123.468 89.302 123.246C89.125 123.024 88.9915 122.766 88.9015 122.472C88.8145 122.175 88.771 121.854 88.771 121.509C88.771 120.861 88.903 120.255 89.167 119.691C89.431 119.124 89.8105 118.642 90.3055 118.246C90.8035 117.847 91.402 117.576 92.101 117.432V118.125C91.729 118.212 91.378 118.363 91.048 118.579C90.718 118.792 90.4345 119.056 90.1975 119.371C89.9635 119.686 89.803 120.036 89.716 120.42C89.851 120.267 90.037 120.144 90.274 120.051C90.511 119.955 90.784 119.907 91.093 119.907C91.456 119.907 91.7815 119.997 92.0695 120.177C92.3575 120.354 92.584 120.592 92.749 120.892C92.917 121.192 93.001 121.524 93.001 121.887C93.001 122.286 92.9095 122.641 92.7265 122.953C92.5435 123.262 92.293 123.505 91.975 123.682C91.66 123.859 91.303 123.948 90.904 123.948ZM90.895 123.21C91.156 123.21 91.3855 123.157 91.5835 123.052C91.7845 122.944 91.9405 122.794 92.0515 122.602C92.1625 122.41 92.218 122.187 92.218 121.932C92.218 121.539 92.0965 121.225 91.8535 120.991C91.6105 120.754 91.291 120.636 90.895 120.636C90.637 120.636 90.4075 120.69 90.2065 120.798C90.0055 120.903 89.848 121.053 89.734 121.248C89.62 121.443 89.563 121.671 89.563 121.932C89.563 122.187 89.6215 122.41 89.7385 122.602C89.8555 122.794 90.0145 122.944 90.2155 123.052C90.4165 123.157 90.643 123.21 90.895 123.21ZM94.9554 123.84C94.9614 123.153 95.0259 122.5 95.1489 121.882C95.2719 121.261 95.4684 120.655 95.7384 120.064C96.0114 119.47 96.3744 118.872 96.8274 118.269H93.6954V117.54H97.7004V118.251C97.3044 118.707 96.9804 119.185 96.7284 119.686C96.4764 120.184 96.2799 120.682 96.1389 121.18C95.9979 121.675 95.8989 122.151 95.8419 122.607C95.7879 123.06 95.7594 123.471 95.7564 123.84H94.9554ZM100.555 123.948C100.141 123.948 99.7751 123.865 99.4571 123.7C99.1391 123.532 98.8901 123.304 98.7101 123.016C98.5301 122.725 98.4401 122.397 98.4401 122.031C98.4401 121.638 98.5406 121.297 98.7416 121.009C98.9456 120.721 99.2051 120.51 99.5201 120.375C99.3491 120.288 99.2036 120.178 99.0836 120.046C98.9636 119.914 98.8721 119.766 98.8091 119.601C98.7491 119.436 98.7191 119.259 98.7191 119.07C98.7191 118.767 98.7971 118.492 98.9531 118.246C99.1091 117.997 99.3251 117.799 99.6011 117.652C99.8771 117.505 100.195 117.432 100.555 117.432C100.918 117.432 101.238 117.505 101.514 117.652C101.793 117.799 102.01 117.997 102.166 118.246C102.322 118.492 102.4 118.767 102.4 119.07C102.4 119.259 102.369 119.436 102.306 119.601C102.246 119.766 102.156 119.914 102.036 120.046C101.916 120.178 101.767 120.288 101.59 120.375C101.914 120.513 102.177 120.726 102.378 121.014C102.579 121.299 102.679 121.638 102.679 122.031C102.679 122.397 102.589 122.725 102.409 123.016C102.229 123.304 101.979 123.532 101.658 123.7C101.34 123.865 100.972 123.948 100.555 123.948ZM100.555 123.21C100.807 123.21 101.032 123.16 101.23 123.061C101.428 122.959 101.584 122.815 101.698 122.629C101.812 122.443 101.869 122.223 101.869 121.968C101.869 121.743 101.814 121.536 101.703 121.347C101.592 121.155 101.437 121.002 101.239 120.888C101.041 120.774 100.813 120.717 100.555 120.717C100.297 120.717 100.069 120.774 99.8711 120.888C99.6761 121.002 99.5231 121.155 99.4121 121.347C99.3041 121.536 99.2501 121.743 99.2501 121.968C99.2501 122.223 99.3056 122.443 99.4166 122.629C99.5306 122.815 99.6851 122.959 99.8801 123.061C100.078 123.16 100.303 123.21 100.555 123.21ZM100.555 120.06C100.87 120.06 101.124 119.971 101.316 119.794C101.511 119.614 101.608 119.394 101.608 119.133C101.608 118.836 101.509 118.6 101.311 118.426C101.113 118.249 100.861 118.161 100.555 118.161C100.255 118.161 100.006 118.249 99.8081 118.426C99.6101 118.6 99.5111 118.836 99.5111 119.133C99.5111 119.394 99.6056 119.614 99.7946 119.794C99.9866 119.971 100.24 120.06 100.555 120.06Z" fill="#EBE8E0"/>
<path d="M32.4937 110.96V106.51H30.7441V105.92H34.9201V106.51H33.1705V110.96H32.4937ZM35.7849 110.96V105.92H39.0249V106.51H36.4617V108.073H38.8089V108.663H36.4617V110.37H39.0249V110.96H35.7849ZM40.1795 110.96V105.92H40.8563V110.37H43.4195V110.96H40.1795Z" fill="#AFACAC"/>
<path d="M31.3201 142.64V137.6H32.0257L33.7105 140.804L35.3953 137.6H36.0721V142.64H35.3953V138.824L33.9481 141.56H33.4441L31.9969 138.824V142.64H31.3201ZM38.4578 142.712C38.1794 142.712 37.9418 142.662 37.745 142.561C37.553 142.455 37.4066 142.314 37.3058 142.136C37.205 141.954 37.1546 141.75 37.1546 141.524C37.1546 141.145 37.265 140.871 37.4858 140.703C37.7114 140.535 38.033 140.451 38.4506 140.451H39.689V140.192C39.689 139.866 39.6146 139.64 39.4658 139.515C39.3218 139.39 39.1034 139.328 38.8106 139.328C38.537 139.328 38.3378 139.381 38.213 139.486C38.0882 139.587 38.0186 139.702 38.0042 139.832H37.3706C37.385 139.626 37.4546 139.443 37.5794 139.285C37.7042 139.122 37.8746 138.992 38.0906 138.896C38.3066 138.8 38.5586 138.752 38.8466 138.752C39.149 138.752 39.4106 138.8 39.6314 138.896C39.8522 138.987 40.0226 139.134 40.1426 139.335C40.2626 139.532 40.3226 139.794 40.3226 140.12V141.668C40.3226 141.87 40.3226 142.047 40.3226 142.201C40.3274 142.35 40.3394 142.496 40.3586 142.64H39.8042C39.7898 142.53 39.7802 142.426 39.7754 142.33C39.7706 142.23 39.7682 142.117 39.7682 141.992C39.6674 142.194 39.5042 142.364 39.2786 142.503C39.053 142.642 38.7794 142.712 38.4578 142.712ZM38.5946 142.136C38.7962 142.136 38.9786 142.1 39.1418 142.028C39.3098 141.956 39.4418 141.85 39.5378 141.711C39.6386 141.572 39.689 141.402 39.689 141.2V140.941H38.5586C38.3234 140.941 38.1386 140.989 38.0042 141.085C37.8698 141.176 37.8026 141.322 37.8026 141.524C37.8026 141.702 37.865 141.848 37.9898 141.963C38.1194 142.078 38.321 142.136 38.5946 142.136ZM41.5137 142.64V138.824H42.1473V142.64H41.5137ZM41.8305 138.32C41.7057 138.32 41.6025 138.279 41.5209 138.198C41.4393 138.116 41.3985 138.013 41.3985 137.888C41.3985 137.763 41.4393 137.66 41.5209 137.578C41.6025 137.497 41.7057 137.456 41.8305 137.456C41.9553 137.456 42.0585 137.497 42.1401 137.578C42.2217 137.66 42.2625 137.763 42.2625 137.888C42.2625 138.013 42.2217 138.116 42.1401 138.198C42.0585 138.279 41.9553 138.32 41.8305 138.32ZM44.5203 142.676C44.2563 142.676 44.0403 142.635 43.8723 142.554C43.7091 142.467 43.5891 142.335 43.5123 142.158C43.4403 141.975 43.4043 141.74 43.4043 141.452V137.6H44.0379V141.452C44.0379 141.702 44.0787 141.872 44.1603 141.963C44.2419 142.054 44.3859 142.1 44.5923 142.1C44.6451 142.1 44.6907 142.1 44.7291 142.1C44.7675 142.095 44.8059 142.09 44.8443 142.086V142.647C44.8203 142.652 44.7867 142.657 44.7435 142.662C44.7051 142.666 44.6643 142.669 44.6211 142.669C44.5827 142.674 44.5491 142.676 44.5203 142.676Z" fill="#AFACAC"/>
<path d="M155.88 127.84V115.096H156.528V127.84H155.88ZM157.176 127.84V115.096H157.824V127.84H157.176ZM159.768 127.84V115.096H161.064V127.84H159.768ZM160.243 133.262H158.623L158.126 134.73H157.565L159.401 129.633H159.465L161.323 134.73H160.74L160.243 133.262ZM160.092 132.83L159.444 130.929L158.774 132.83H160.092ZM163.01 127.84V115.096H163.658V127.84H163.01ZM166.25 127.84V115.096H166.898V127.84H166.25ZM168.194 127.84V115.096H169.49V127.84H168.194ZM166.444 134.817C166.185 134.817 165.94 134.738 165.71 134.579C165.479 134.435 165.292 134.219 165.148 133.931C165.004 133.629 164.932 133.269 164.932 132.851C164.932 132.434 165.004 132.081 165.148 131.793C165.306 131.519 165.501 131.31 165.731 131.166C165.962 131.037 166.206 130.972 166.466 130.972C166.725 130.972 166.941 131.022 167.114 131.123C167.301 131.238 167.445 131.397 167.546 131.598V129.395H168.15V129.438C168.122 129.482 168.1 129.518 168.086 129.546C168.086 129.59 168.086 129.654 168.086 129.741V134.169C168.086 134.298 168.093 134.399 168.107 134.471C168.107 134.558 168.129 134.644 168.172 134.73H167.61C167.567 134.644 167.538 134.558 167.524 134.471C167.524 134.399 167.524 134.298 167.524 134.169C167.409 134.37 167.258 134.529 167.07 134.644C166.883 134.759 166.674 134.817 166.444 134.817ZM166.53 134.298C166.862 134.298 167.106 134.169 167.265 133.91C167.423 133.65 167.502 133.305 167.502 132.873C167.502 132.441 167.416 132.095 167.243 131.836C167.07 131.577 166.818 131.447 166.487 131.447C166.17 131.447 165.926 131.562 165.753 131.793C165.58 132.038 165.494 132.362 165.494 132.765C165.494 133.24 165.58 133.614 165.753 133.888C165.94 134.162 166.199 134.298 166.53 134.298ZM170.139 127.84V115.096H170.787V127.84H170.139ZM173.379 127.84V115.096H174.027V127.84H173.379ZM175.323 127.84V115.096H176.619V127.84H175.323ZM173.574 134.817C173.314 134.817 173.07 134.738 172.839 134.579C172.609 134.435 172.422 134.219 172.278 133.931C172.134 133.629 172.062 133.269 172.062 132.851C172.062 132.434 172.134 132.081 172.278 131.793C172.436 131.519 172.63 131.31 172.861 131.166C173.091 131.037 173.336 130.972 173.595 130.972C173.854 130.972 174.07 131.022 174.243 131.123C174.43 131.238 174.574 131.397 174.675 131.598V129.395H175.28V129.438C175.251 129.482 175.23 129.518 175.215 129.546C175.215 129.59 175.215 129.654 175.215 129.741V134.169C175.215 134.298 175.222 134.399 175.237 134.471C175.237 134.558 175.258 134.644 175.302 134.73H174.74C174.697 134.644 174.668 134.558 174.654 134.471C174.654 134.399 174.654 134.298 174.654 134.169C174.538 134.37 174.387 134.529 174.2 134.644C174.013 134.759 173.804 134.817 173.574 134.817ZM173.66 134.298C173.991 134.298 174.236 134.169 174.394 133.91C174.553 133.65 174.632 133.305 174.632 132.873C174.632 132.441 174.546 132.095 174.373 131.836C174.2 131.577 173.948 131.447 173.617 131.447C173.3 131.447 173.055 131.562 172.882 131.793C172.71 132.038 172.623 132.362 172.623 132.765C172.623 133.24 172.71 133.614 172.882 133.888C173.07 134.162 173.329 134.298 173.66 134.298ZM177.269 127.84V115.096H177.917V127.84H177.269ZM179.213 127.84V115.096H179.861V127.84H179.213ZM181.157 127.84V115.096H183.749V127.84H181.157ZM181.524 130.972C181.913 130.972 182.237 131.109 182.496 131.382L182.237 131.814L182.215 131.901L182.151 131.858C182.136 131.8 182.122 131.757 182.107 131.728C182.079 131.685 182.028 131.642 181.956 131.598C181.827 131.512 181.668 131.469 181.481 131.469C181.294 131.469 181.114 131.519 180.941 131.62C180.768 131.706 180.631 131.85 180.531 132.052C180.415 132.254 180.358 132.498 180.358 132.786V134.73H179.775V131.058H180.379L180.358 131.728C180.459 131.498 180.617 131.31 180.833 131.166C181.049 131.037 181.279 130.972 181.524 130.972ZM184.399 127.84V115.096H185.047V127.84H184.399ZM185.695 127.84V115.096H186.991V127.84H185.695ZM188.287 127.84V115.096H188.935V127.84H188.287ZM188.135 134.817C187.588 134.817 187.156 134.651 186.839 134.32C186.508 133.989 186.343 133.521 186.343 132.916C186.343 132.513 186.422 132.16 186.58 131.858C186.724 131.57 186.926 131.354 187.185 131.21C187.43 131.051 187.711 130.972 188.027 130.972C188.474 130.972 188.834 131.116 189.107 131.404C189.381 131.706 189.518 132.146 189.518 132.722C189.518 132.779 189.518 132.866 189.518 132.981H186.904C186.919 133.427 187.041 133.766 187.271 133.996C187.502 134.226 187.797 134.342 188.157 134.342C188.546 134.342 188.863 134.205 189.107 133.931L189.431 134.255C189.115 134.63 188.683 134.817 188.135 134.817ZM188.935 132.527C188.935 132.182 188.848 131.908 188.675 131.706C188.503 131.505 188.272 131.404 187.984 131.404C187.725 131.404 187.495 131.498 187.293 131.685C187.091 131.872 186.969 132.153 186.926 132.527H188.935ZM191.528 127.84V115.096H192.176V127.84H191.528ZM192.824 127.84V115.096H195.416V127.84H192.824ZM196.712 127.84V115.096H197.36V127.84H196.712ZM195.092 134.817C194.473 134.817 193.955 134.622 193.537 134.234L193.861 133.694L193.904 133.607L193.969 133.65C193.969 133.665 193.969 133.686 193.969 133.715C193.984 133.758 193.998 133.794 194.012 133.823C194.041 133.866 194.07 133.91 194.099 133.953C194.228 134.068 194.372 134.162 194.531 134.234C194.689 134.291 194.884 134.32 195.114 134.32C195.402 134.32 195.632 134.27 195.805 134.169C195.964 134.068 196.043 133.924 196.043 133.737C196.043 133.578 195.978 133.449 195.848 133.348C195.719 133.247 195.474 133.146 195.114 133.046C194.192 132.772 193.732 132.39 193.732 131.901C193.732 131.613 193.854 131.39 194.099 131.231C194.329 131.058 194.66 130.972 195.092 130.972C195.424 130.972 195.704 131.022 195.935 131.123C196.165 131.21 196.374 131.354 196.561 131.555L196.216 131.944L196.172 132.009L196.129 131.966C196.129 131.908 196.115 131.865 196.086 131.836C196.072 131.793 196.036 131.75 195.978 131.706C195.848 131.606 195.712 131.534 195.568 131.49C195.409 131.433 195.258 131.404 195.114 131.404C194.884 131.404 194.689 131.447 194.531 131.534C194.387 131.606 194.315 131.714 194.315 131.858C194.315 132.002 194.394 132.124 194.552 132.225C194.696 132.34 194.963 132.455 195.352 132.57C195.812 132.714 196.136 132.866 196.324 133.024C196.525 133.182 196.626 133.398 196.626 133.672C196.626 134.003 196.496 134.277 196.237 134.493C195.978 134.709 195.596 134.817 195.092 134.817ZM198.658 127.84V115.096H199.306V127.84H198.658ZM199.954 127.84V115.096H202.546V127.84H199.954ZM203.842 127.84V115.096H204.49V127.84H203.842ZM202.222 134.817C201.603 134.817 201.084 134.622 200.667 134.234L200.991 133.694L201.034 133.607L201.099 133.65C201.099 133.665 201.099 133.686 201.099 133.715C201.113 133.758 201.128 133.794 201.142 133.823C201.171 133.866 201.2 133.91 201.228 133.953C201.358 134.068 201.502 134.162 201.66 134.234C201.819 134.291 202.013 134.32 202.244 134.32C202.532 134.32 202.762 134.27 202.935 134.169C203.093 134.068 203.172 133.924 203.172 133.737C203.172 133.578 203.108 133.449 202.978 133.348C202.848 133.247 202.604 133.146 202.244 133.046C201.322 132.772 200.861 132.39 200.861 131.901C200.861 131.613 200.984 131.39 201.228 131.231C201.459 131.058 201.79 130.972 202.222 130.972C202.553 130.972 202.834 131.022 203.064 131.123C203.295 131.21 203.504 131.354 203.691 131.555L203.345 131.944L203.302 132.009L203.259 131.966C203.259 131.908 203.244 131.865 203.216 131.836C203.201 131.793 203.165 131.75 203.108 131.706C202.978 131.606 202.841 131.534 202.697 131.49C202.539 131.433 202.388 131.404 202.244 131.404C202.013 131.404 201.819 131.447 201.66 131.534C201.516 131.606 201.444 131.714 201.444 131.858C201.444 132.002 201.524 132.124 201.682 132.225C201.826 132.34 202.092 132.455 202.481 132.57C202.942 132.714 203.266 132.866 203.453 133.024C203.655 133.182 203.756 133.398 203.756 133.672C203.756 134.003 203.626 134.277 203.367 134.493C203.108 134.709 202.726 134.817 202.222 134.817ZM205.788 127.84V115.096H207.084V127.84H205.788ZM207.732 127.84V115.096H209.028V127.84H207.732ZM210.324 127.84V115.096H211.62V127.84H210.324ZM212.917 127.84V115.096H214.213V127.84H212.917ZM216.157 127.84V115.096H216.805V127.84H216.157ZM217.453 127.84V115.096H218.101V127.84H217.453ZM214.883 129.719H215.531V129.784C215.502 129.813 215.481 129.849 215.466 129.892C215.466 129.921 215.466 129.986 215.466 130.086V131.858H217.41V129.719H218.08V129.784C218.051 129.813 218.029 129.849 218.015 129.892C218.015 129.921 218.015 129.986 218.015 130.086V134.73H217.41V132.354H215.466V134.73H214.883V129.719ZM220.047 127.84V115.096H220.695V127.84H220.047ZM221.343 127.84V115.096H222.639V127.84H221.343ZM223.935 127.84V115.096H224.583V127.84H223.935ZM223.784 134.817C223.237 134.817 222.805 134.651 222.488 134.32C222.157 133.989 221.991 133.521 221.991 132.916C221.991 132.513 222.07 132.16 222.229 131.858C222.373 131.57 222.574 131.354 222.833 131.21C223.078 131.051 223.359 130.972 223.676 130.972C224.122 130.972 224.482 131.116 224.756 131.404C225.029 131.706 225.166 132.146 225.166 132.722C225.166 132.779 225.166 132.866 225.166 132.981H222.553C222.567 133.427 222.689 133.766 222.92 133.996C223.15 134.226 223.445 134.342 223.805 134.342C224.194 134.342 224.511 134.205 224.756 133.931L225.08 134.255C224.763 134.63 224.331 134.817 223.784 134.817ZM224.583 132.527C224.583 132.182 224.497 131.908 224.324 131.706C224.151 131.505 223.921 131.404 223.633 131.404C223.373 131.404 223.143 131.498 222.941 131.685C222.74 131.872 222.617 132.153 222.574 132.527H224.583ZM227.177 127.84V115.096H227.825V127.84H227.177ZM229.121 127.84V115.096H229.769V127.84H229.121ZM231.065 127.84V115.096H233.657V127.84H231.065ZM231.432 130.972C231.821 130.972 232.145 131.109 232.404 131.382L232.145 131.814L232.123 131.901L232.058 131.858C232.044 131.8 232.03 131.757 232.015 131.728C231.986 131.685 231.936 131.642 231.864 131.598C231.734 131.512 231.576 131.469 231.389 131.469C231.202 131.469 231.022 131.519 230.849 131.62C230.676 131.706 230.539 131.85 230.438 132.052C230.323 132.254 230.266 132.498 230.266 132.786V134.73H229.682V131.058H230.287L230.266 131.728C230.366 131.498 230.525 131.31 230.741 131.166C230.957 131.037 231.187 130.972 231.432 130.972ZM234.306 127.84V115.096H234.954V127.84H234.306ZM235.602 127.84V115.096H236.898V127.84H235.602ZM238.194 127.84V115.096H238.842V127.84H238.194ZM238.043 134.817C237.496 134.817 237.064 134.651 236.747 134.32C236.416 133.989 236.25 133.521 236.25 132.916C236.25 132.513 236.33 132.16 236.488 131.858C236.632 131.57 236.834 131.354 237.093 131.21C237.338 131.051 237.618 130.972 237.935 130.972C238.382 130.972 238.742 131.116 239.015 131.404C239.289 131.706 239.426 132.146 239.426 132.722C239.426 132.779 239.426 132.866 239.426 132.981H236.812C236.826 133.427 236.949 133.766 237.179 133.996C237.41 134.226 237.705 134.342 238.065 134.342C238.454 134.342 238.77 134.205 239.015 133.931L239.339 134.255C239.022 134.63 238.59 134.817 238.043 134.817ZM238.842 132.527C238.842 132.182 238.756 131.908 238.583 131.706C238.41 131.505 238.18 131.404 237.892 131.404C237.633 131.404 237.402 131.498 237.201 131.685C236.999 131.872 236.877 132.153 236.834 132.527H238.842ZM241.436 127.84V115.096H242.732V127.84H241.436ZM243.38 127.84V115.096H244.676V127.84H243.38ZM245.972 127.84V115.096H247.268V127.84H245.972ZM155.88 149.84V137.096H156.528V149.84H155.88ZM157.176 149.84V137.096H157.824V149.84H157.176ZM159.768 149.84V137.096H161.064V149.84H159.768ZM160.243 155.262H158.623L158.126 156.73H157.565L159.401 151.633H159.465L161.323 156.73H160.74L160.243 155.262ZM160.092 154.83L159.444 152.929L158.774 154.83H160.092ZM163.01 149.84V137.096H163.658V149.84H163.01ZM166.25 149.84V137.096H166.898V149.84H166.25ZM168.194 149.84V137.096H169.49V149.84H168.194ZM166.444 156.817C166.185 156.817 165.94 156.738 165.71 156.579C165.479 156.435 165.292 156.219 165.148 155.931C165.004 155.629 164.932 155.269 164.932 154.851C164.932 154.434 165.004 154.081 165.148 153.793C165.306 153.519 165.501 153.31 165.731 153.166C165.962 153.037 166.206 152.972 166.466 152.972C166.725 152.972 166.941 153.022 167.114 153.123C167.301 153.238 167.445 153.397 167.546 153.598V151.395H168.15V151.438C168.122 151.482 168.1 151.518 168.086 151.546C168.086 151.59 168.086 151.654 168.086 151.741V156.169C168.086 156.298 168.093 156.399 168.107 156.471C168.107 156.558 168.129 156.644 168.172 156.73H167.61C167.567 156.644 167.538 156.558 167.524 156.471C167.524 156.399 167.524 156.298 167.524 156.169C167.409 156.37 167.258 156.529 167.07 156.644C166.883 156.759 166.674 156.817 166.444 156.817ZM166.53 156.298C166.862 156.298 167.106 156.169 167.265 155.91C167.423 155.65 167.502 155.305 167.502 154.873C167.502 154.441 167.416 154.095 167.243 153.836C167.07 153.577 166.818 153.447 166.487 153.447C166.17 153.447 165.926 153.562 165.753 153.793C165.58 154.038 165.494 154.362 165.494 154.765C165.494 155.24 165.58 155.614 165.753 155.888C165.94 156.162 166.199 156.298 166.53 156.298ZM170.139 149.84V137.096H170.787V149.84H170.139ZM173.379 149.84V137.096H174.027V149.84H173.379ZM175.323 149.84V137.096H176.619V149.84H175.323ZM173.574 156.817C173.314 156.817 173.07 156.738 172.839 156.579C172.609 156.435 172.422 156.219 172.278 155.931C172.134 155.629 172.062 155.269 172.062 154.851C172.062 154.434 172.134 154.081 172.278 153.793C172.436 153.519 172.63 153.31 172.861 153.166C173.091 153.037 173.336 152.972 173.595 152.972C173.854 152.972 174.07 153.022 174.243 153.123C174.43 153.238 174.574 153.397 174.675 153.598V151.395H175.28V151.438C175.251 151.482 175.23 151.518 175.215 151.546C175.215 151.59 175.215 151.654 175.215 151.741V156.169C175.215 156.298 175.222 156.399 175.237 156.471C175.237 156.558 175.258 156.644 175.302 156.73H174.74C174.697 156.644 174.668 156.558 174.654 156.471C174.654 156.399 174.654 156.298 174.654 156.169C174.538 156.37 174.387 156.529 174.2 156.644C174.013 156.759 173.804 156.817 173.574 156.817ZM173.66 156.298C173.991 156.298 174.236 156.169 174.394 155.91C174.553 155.65 174.632 155.305 174.632 154.873C174.632 154.441 174.546 154.095 174.373 153.836C174.2 153.577 173.948 153.447 173.617 153.447C173.3 153.447 173.055 153.562 172.882 153.793C172.71 154.038 172.623 154.362 172.623 154.765C172.623 155.24 172.71 155.614 172.882 155.888C173.07 156.162 173.329 156.298 173.66 156.298ZM177.269 149.84V137.096H177.917V149.84H177.269ZM179.213 149.84V137.096H179.861V149.84H179.213ZM181.157 149.84V137.096H183.749V149.84H181.157ZM181.524 152.972C181.913 152.972 182.237 153.109 182.496 153.382L182.237 153.814L182.215 153.901L182.151 153.858C182.136 153.8 182.122 153.757 182.107 153.728C182.079 153.685 182.028 153.642 181.956 153.598C181.827 153.512 181.668 153.469 181.481 153.469C181.294 153.469 181.114 153.519 180.941 153.62C180.768 153.706 180.631 153.85 180.531 154.052C180.415 154.254 180.358 154.498 180.358 154.786V156.73H179.775V153.058H180.379L180.358 153.728C180.459 153.498 180.617 153.31 180.833 153.166C181.049 153.037 181.279 152.972 181.524 152.972ZM184.399 149.84V137.096H185.047V149.84H184.399ZM185.695 149.84V137.096H186.991V149.84H185.695ZM188.287 149.84V137.096H188.935V149.84H188.287ZM188.135 156.817C187.588 156.817 187.156 156.651 186.839 156.32C186.508 155.989 186.343 155.521 186.343 154.916C186.343 154.513 186.422 154.16 186.58 153.858C186.724 153.57 186.926 153.354 187.185 153.21C187.43 153.051 187.711 152.972 188.027 152.972C188.474 152.972 188.834 153.116 189.107 153.404C189.381 153.706 189.518 154.146 189.518 154.722C189.518 154.779 189.518 154.866 189.518 154.981H186.904C186.919 155.427 187.041 155.766 187.271 155.996C187.502 156.226 187.797 156.342 188.157 156.342C188.546 156.342 188.863 156.205 189.107 155.931L189.431 156.255C189.115 156.63 188.683 156.817 188.135 156.817ZM188.935 154.527C188.935 154.182 188.848 153.908 188.675 153.706C188.503 153.505 188.272 153.404 187.984 153.404C187.725 153.404 187.495 153.498 187.293 153.685C187.091 153.872 186.969 154.153 186.926 154.527H188.935ZM191.528 149.84V137.096H192.176V149.84H191.528ZM192.824 149.84V137.096H195.416V149.84H192.824ZM196.712 149.84V137.096H197.36V149.84H196.712ZM195.092 156.817C194.473 156.817 193.955 156.622 193.537 156.234L193.861 155.694L193.904 155.607L193.969 155.65C193.969 155.665 193.969 155.686 193.969 155.715C193.984 155.758 193.998 155.794 194.012 155.823C194.041 155.866 194.07 155.91 194.099 155.953C194.228 156.068 194.372 156.162 194.531 156.234C194.689 156.291 194.884 156.32 195.114 156.32C195.402 156.32 195.632 156.27 195.805 156.169C195.964 156.068 196.043 155.924 196.043 155.737C196.043 155.578 195.978 155.449 195.848 155.348C195.719 155.247 195.474 155.146 195.114 155.046C194.192 154.772 193.732 154.39 193.732 153.901C193.732 153.613 193.854 153.39 194.099 153.231C194.329 153.058 194.66 152.972 195.092 152.972C195.424 152.972 195.704 153.022 195.935 153.123C196.165 153.21 196.374 153.354 196.561 153.555L196.216 153.944L196.172 154.009L196.129 153.966C196.129 153.908 196.115 153.865 196.086 153.836C196.072 153.793 196.036 153.75 195.978 153.706C195.848 153.606 195.712 153.534 195.568 153.49C195.409 153.433 195.258 153.404 195.114 153.404C194.884 153.404 194.689 153.447 194.531 153.534C194.387 153.606 194.315 153.714 194.315 153.858C194.315 154.002 194.394 154.124 194.552 154.225C194.696 154.34 194.963 154.455 195.352 154.57C195.812 154.714 196.136 154.866 196.324 155.024C196.525 155.182 196.626 155.398 196.626 155.672C196.626 156.003 196.496 156.277 196.237 156.493C195.978 156.709 195.596 156.817 195.092 156.817ZM198.658 149.84V137.096H199.306V149.84H198.658ZM199.954 149.84V137.096H202.546V149.84H199.954ZM203.842 149.84V137.096H204.49V149.84H203.842ZM202.222 156.817C201.603 156.817 201.084 156.622 200.667 156.234L200.991 155.694L201.034 155.607L201.099 155.65C201.099 155.665 201.099 155.686 201.099 155.715C201.113 155.758 201.128 155.794 201.142 155.823C201.171 155.866 201.2 155.91 201.228 155.953C201.358 156.068 201.502 156.162 201.66 156.234C201.819 156.291 202.013 156.32 202.244 156.32C202.532 156.32 202.762 156.27 202.935 156.169C203.093 156.068 203.172 155.924 203.172 155.737C203.172 155.578 203.108 155.449 202.978 155.348C202.848 155.247 202.604 155.146 202.244 155.046C201.322 154.772 200.861 154.39 200.861 153.901C200.861 153.613 200.984 153.39 201.228 153.231C201.459 153.058 201.79 152.972 202.222 152.972C202.553 152.972 202.834 153.022 203.064 153.123C203.295 153.21 203.504 153.354 203.691 153.555L203.345 153.944L203.302 154.009L203.259 153.966C203.259 153.908 203.244 153.865 203.216 153.836C203.201 153.793 203.165 153.75 203.108 153.706C202.978 153.606 202.841 153.534 202.697 153.49C202.539 153.433 202.388 153.404 202.244 153.404C202.013 153.404 201.819 153.447 201.66 153.534C201.516 153.606 201.444 153.714 201.444 153.858C201.444 154.002 201.524 154.124 201.682 154.225C201.826 154.34 202.092 154.455 202.481 154.57C202.942 154.714 203.266 154.866 203.453 155.024C203.655 155.182 203.756 155.398 203.756 155.672C203.756 156.003 203.626 156.277 203.367 156.493C203.108 156.709 202.726 156.817 202.222 156.817ZM205.788 149.84V137.096H207.084V149.84H205.788ZM207.732 149.84V137.096H209.028V149.84H207.732ZM210.324 149.84V137.096H211.62V149.84H210.324ZM212.917 149.84V137.096H214.213V149.84H212.917ZM216.157 149.84V137.096H216.805V149.84H216.157ZM217.453 149.84V137.096H218.101V149.84H217.453ZM214.883 151.719H215.531V151.784C215.502 151.813 215.481 151.849 215.466 151.892C215.466 151.921 215.466 151.986 215.466 152.086V153.858H217.41V151.719H218.08V151.784C218.051 151.813 218.029 151.849 218.015 151.892C218.015 151.921 218.015 151.986 218.015 152.086V156.73H217.41V154.354H215.466V156.73H214.883V151.719ZM220.047 149.84V137.096H220.695V149.84H220.047ZM221.343 149.84V137.096H222.639V149.84H221.343ZM223.935 149.84V137.096H224.583V149.84H223.935ZM223.784 156.817C223.237 156.817 222.805 156.651 222.488 156.32C222.157 155.989 221.991 155.521 221.991 154.916C221.991 154.513 222.07 154.16 222.229 153.858C222.373 153.57 222.574 153.354 222.833 153.21C223.078 153.051 223.359 152.972 223.676 152.972C224.122 152.972 224.482 153.116 224.756 153.404C225.029 153.706 225.166 154.146 225.166 154.722C225.166 154.779 225.166 154.866 225.166 154.981H222.553C222.567 155.427 222.689 155.766 222.92 155.996C223.15 156.226 223.445 156.342 223.805 156.342C224.194 156.342 224.511 156.205 224.756 155.931L225.08 156.255C224.763 156.63 224.331 156.817 223.784 156.817ZM224.583 154.527C224.583 154.182 224.497 153.908 224.324 153.706C224.151 153.505 223.921 153.404 223.633 153.404C223.373 153.404 223.143 153.498 222.941 153.685C222.74 153.872 222.617 154.153 222.574 154.527H224.583ZM227.177 149.84V137.096H227.825V149.84H227.177ZM229.121 149.84V137.096H229.769V149.84H229.121ZM231.065 149.84V137.096H233.657V149.84H231.065ZM231.432 152.972C231.821 152.972 232.145 153.109 232.404 153.382L232.145 153.814L232.123 153.901L232.058 153.858C232.044 153.8 232.03 153.757 232.015 153.728C231.986 153.685 231.936 153.642 231.864 153.598C231.734 153.512 231.576 153.469 231.389 153.469C231.202 153.469 231.022 153.519 230.849 153.62C230.676 153.706 230.539 153.85 230.438 154.052C230.323 154.254 230.266 154.498 230.266 154.786V156.73H229.682V153.058H230.287L230.266 153.728C230.366 153.498 230.525 153.31 230.741 153.166C230.957 153.037 231.187 152.972 231.432 152.972ZM234.306 149.84V137.096H234.954V149.84H234.306ZM235.602 149.84V137.096H236.898V149.84H235.602ZM238.194 149.84V137.096H238.842V149.84H238.194ZM238.043 156.817C237.496 156.817 237.064 156.651 236.747 156.32C236.416 155.989 236.25 155.521 236.25 154.916C236.25 154.513 236.33 154.16 236.488 153.858C236.632 153.57 236.834 153.354 237.093 153.21C237.338 153.051 237.618 152.972 237.935 152.972C238.382 152.972 238.742 153.116 239.015 153.404C239.289 153.706 239.426 154.146 239.426 154.722C239.426 154.779 239.426 154.866 239.426 154.981H236.812C236.826 155.427 236.949 155.766 237.179 155.996C237.41 156.226 237.705 156.342 238.065 156.342C238.454 156.342 238.77 156.205 239.015 155.931L239.339 156.255C239.022 156.63 238.59 156.817 238.043 156.817ZM238.842 154.527C238.842 154.182 238.756 153.908 238.583 153.706C238.41 153.505 238.18 153.404 237.892 153.404C237.633 153.404 237.402 153.498 237.201 153.685C236.999 153.872 236.877 154.153 236.834 154.527H238.842ZM241.436 149.84V137.096H242.084V149.84H241.436ZM242.732 149.84V137.096H244.028V149.84H242.732ZM245.324 149.84V137.096H247.268V149.84H245.324ZM244.309 157.832C244.467 157.702 244.597 157.551 244.698 157.378C244.799 157.22 244.849 157.09 244.849 156.99C244.849 156.946 244.835 156.91 244.806 156.882C244.777 156.838 244.727 156.788 244.655 156.73C244.583 156.658 244.525 156.601 244.482 156.558C244.453 156.5 244.439 156.442 244.439 156.385C244.439 156.241 244.482 156.126 244.568 156.039C244.655 155.953 244.763 155.91 244.892 155.91C245.051 155.91 245.18 155.967 245.281 156.082C245.396 156.212 245.454 156.378 245.454 156.579C245.454 156.997 245.166 157.494 244.59 158.07L244.309 157.832ZM248.566 149.84V137.096H249.862V149.84H248.566ZM250.51 149.84V137.096H251.806V149.84H250.51ZM253.102 149.84V137.096H254.398V149.84H253.102ZM255.696 149.84V137.096H257.64V149.84H255.696ZM258.288 149.84V137.096H258.936V149.84H258.288ZM259.584 149.84V137.096H260.88V149.84H259.584ZM257.445 151.719H258.028L259.324 155.564L260.534 151.719H261.096L259.411 156.752H259.152L257.445 151.719ZM262.825 149.84V137.096H263.473V149.84H262.825ZM264.121 149.84V137.096H264.769V149.84H264.121ZM266.713 149.84V137.096H268.009V149.84H266.713ZM267.188 155.262H265.568L265.072 156.73H264.51L266.346 151.633H266.411L268.268 156.73H267.685L267.188 155.262ZM267.037 154.83L266.389 152.929L265.72 154.83H267.037ZM269.955 149.84V137.096H271.251V149.84H269.955ZM271.899 149.84V137.096H273.195V149.84H271.899ZM274.491 149.84V137.096H275.787V149.84H274.491ZM277.085 149.84V137.096H277.733V149.84H277.085ZM279.029 149.84V137.096H280.973V149.84H279.029ZM282.269 149.84V137.096H283.565V149.84H282.269ZM280.497 152.41L279.482 152.713L279.353 152.41L280.649 151.719H281.059V156.73H280.497V152.41ZM284.214 149.84V137.096H285.51V149.84H284.214ZM286.806 149.84V137.096H288.75V149.84H286.806ZM290.046 149.84V137.096H290.694V149.84H290.046ZM286.353 156.277L287.001 155.629C287.433 155.197 287.757 154.851 287.973 154.592C288.189 154.347 288.361 154.102 288.491 153.858C288.621 153.627 288.685 153.375 288.685 153.102C288.685 152.785 288.613 152.554 288.469 152.41C288.311 152.266 288.102 152.194 287.843 152.194C287.44 152.194 287.101 152.36 286.828 152.691C286.77 152.778 286.741 152.85 286.741 152.907C286.741 152.95 286.741 152.979 286.741 152.994L286.698 153.037L286.655 152.994L286.245 152.67C286.403 152.353 286.619 152.115 286.893 151.957C287.166 151.784 287.483 151.698 287.843 151.698C288.261 151.698 288.606 151.827 288.88 152.086C289.139 152.346 289.269 152.691 289.269 153.123C289.269 153.411 289.197 153.692 289.053 153.966C288.923 154.239 288.75 154.498 288.534 154.743C288.318 154.988 288.016 155.305 287.627 155.694L287.087 156.234H288.945C289.031 156.234 289.096 156.234 289.139 156.234C289.168 156.219 289.204 156.198 289.247 156.169H289.29V156.73H286.353V156.277ZM291.344 149.84V137.096H292.64V149.84H291.344ZM293.936 149.84V137.096H294.584V149.84H293.936ZM295.232 149.84V137.096H297.176V149.84H295.232ZM294.822 156.817C294.562 156.817 294.31 156.766 294.066 156.666C293.835 156.579 293.634 156.442 293.461 156.255L293.828 155.802L293.871 155.737L293.914 155.78C293.929 155.838 293.943 155.888 293.958 155.931C293.972 155.96 294.008 156.003 294.066 156.061C294.166 156.147 294.274 156.212 294.39 156.255C294.505 156.313 294.642 156.342 294.8 156.342C295.117 156.342 295.354 156.248 295.513 156.061C295.671 155.888 295.75 155.643 295.75 155.326C295.75 154.995 295.65 154.75 295.448 154.592C295.246 154.419 294.966 154.333 294.606 154.333C294.548 154.333 294.462 154.34 294.346 154.354V153.901C294.822 153.901 295.146 153.814 295.318 153.642C295.491 153.469 295.578 153.224 295.578 152.907C295.578 152.691 295.513 152.511 295.383 152.367C295.254 152.238 295.081 152.173 294.865 152.173C294.519 152.173 294.217 152.295 293.958 152.54L293.612 152.216C293.943 151.87 294.361 151.698 294.865 151.698C295.268 151.698 295.585 151.813 295.815 152.043C296.046 152.259 296.161 152.562 296.161 152.95C296.161 153.21 296.096 153.447 295.966 153.663C295.822 153.865 295.628 154.002 295.383 154.074C295.671 154.174 295.902 154.333 296.074 154.549C296.247 154.765 296.334 155.031 296.334 155.348C296.334 155.622 296.276 155.866 296.161 156.082C296.031 156.313 295.858 156.493 295.642 156.622C295.412 156.752 295.138 156.817 294.822 156.817ZM298.474 149.84V137.096H299.77V149.84H298.474ZM301.066 149.84V137.096H301.714V149.84H301.066ZM303.01 149.84V137.096H304.954V149.84H303.01ZM302.578 155.499H300.418V155.089L302.707 151.719H303.182V155.046H303.809V155.499H303.182V156.73H302.578V155.499ZM302.578 155.024V152.734L301.066 155.024H302.578Z" fill="#EBE8E0"/>
<rect x="18.72" y="174.6" width="286.92" height="5.4" fill="#E77C46"/>
<circle cx="-21.6001" cy="51.12" r="42.48" fill="#EBE8E0"/>
<circle cx="61.2" cy="51.12" r="42.48" fill="#EBE8E0"/>
<path d="M127.44 32.4L127.894 44.4887C127.906 44.7963 128.273 44.9485 128.499 44.7391L137.368 36.5122L129.141 45.3813C128.931 45.607 129.084 45.9744 129.391 45.9859L141.48 46.44L129.391 46.8941C129.084 46.9057 128.931 47.273 129.141 47.4987L137.368 56.3678L128.499 48.1409C128.273 47.9316 127.906 48.0837 127.894 48.3913L127.44 60.48L126.986 48.3913C126.974 48.0837 126.607 47.9316 126.381 48.1409L117.512 56.3678L125.739 47.4987C125.948 47.273 125.796 46.9057 125.489 46.8941L113.4 46.44L125.489 45.9859C125.796 45.9744 125.948 45.607 125.739 45.3813L117.512 36.5122L126.381 44.7391C126.607 44.9485 126.974 44.7963 126.986 44.4887L127.44 32.4Z" fill="#E77C46"/>
<path d="M172.08 32.4L172.534 44.4887C172.546 44.7963 172.913 44.9485 173.139 44.7391L182.008 36.5122L173.781 45.3813C173.572 45.607 173.724 45.9744 174.031 45.9859L186.12 46.44L174.031 46.8941C173.724 46.9057 173.572 47.273 173.781 47.4987L182.008 56.3678L173.139 48.1409C172.913 47.9316 172.546 48.0837 172.534 48.3913L172.08 60.48L171.626 48.3913C171.614 48.0837 171.247 47.9316 171.021 48.1409L162.152 56.3678L170.379 47.4987C170.589 47.273 170.436 46.9057 170.129 46.8941L158.04 46.44L170.129 45.9859C170.436 45.9744 170.589 45.607 170.379 45.3813L162.152 36.5122L171.021 44.7391C171.247 44.9485 171.614 44.7963 171.626 44.4887L172.08 32.4Z" fill="#E77C46"/>
<path d="M216.72 32.4L217.174 44.4887C217.186 44.7963 217.553 44.9485 217.779 44.7391L226.648 36.5122L218.421 45.3813C218.211 45.607 218.364 45.9744 218.671 45.9859L230.76 46.44L218.671 46.8941C218.364 46.9057 218.211 47.273 218.421 47.4987L226.648 56.3678L217.779 48.1409C217.553 47.9316 217.186 48.0837 217.174 48.3913L216.72 60.48L216.266 48.3913C216.254 48.0837 215.887 47.9316 215.661 48.1409L206.792 56.3678L215.019 47.4987C215.228 47.273 215.076 46.9057 214.769 46.8941L202.68 46.44L214.769 45.9859C215.076 45.9744 215.228 45.607 215.019 45.3813L206.792 36.5122L215.661 44.7391C215.887 44.9485 216.254 44.7963 216.266 44.4887L216.72 32.4Z" fill="#E77C46"/>
<path d="M28.782 48.4399V40.8799H32.9292C33.3684 40.8799 33.768 40.9843 34.128 41.1931C34.4952 41.3947 34.7868 41.6719 35.0028 42.0247C35.226 42.3775 35.3376 42.7699 35.3376 43.2019C35.3376 43.6483 35.2188 44.0551 34.9812 44.4223C34.7508 44.7895 34.4376 45.0847 34.0416 45.3079C33.6528 45.5239 33.2244 45.6319 32.7564 45.6319H29.9484V48.4399H28.782ZM29.9484 44.5087H32.67C32.9292 44.5087 33.1668 44.4511 33.3828 44.3359C33.606 44.2135 33.7824 44.0551 33.912 43.8607C34.0416 43.6591 34.1064 43.4395 34.1064 43.2019C34.1064 42.9787 34.0416 42.7771 33.912 42.5971C33.7824 42.4171 33.606 42.2731 33.3828 42.1651C33.1668 42.0571 32.9292 42.0031 32.67 42.0031H29.9484V44.5087ZM40.8122 48.5479C40.1714 48.5479 39.6098 48.4219 39.1274 48.1699C38.645 47.9179 38.2706 47.5687 38.0042 47.1223C37.745 46.6759 37.6154 46.1683 37.6154 45.5995C37.6154 45.0235 37.7522 44.5159 38.0258 44.0767C38.3066 43.6303 38.6954 43.2811 39.1922 43.0291C39.689 42.7771 40.2542 42.6511 40.8878 42.6511C41.2838 42.6511 41.6474 42.6979 41.9786 42.7915C42.317 42.8851 42.6122 43.0111 42.8642 43.1695C43.1162 43.3279 43.3106 43.5007 43.4474 43.6879C43.5914 43.8679 43.667 44.0515 43.6742 44.2387H43.361V42.7699H44.4734V48.4399H43.361V46.9171L43.5878 46.9711C43.5806 47.1439 43.4978 47.3239 43.3394 47.5111C43.1882 47.6911 42.983 47.8603 42.7238 48.0187C42.4718 48.1771 42.1802 48.3067 41.849 48.4075C41.5178 48.5011 41.1722 48.5479 40.8122 48.5479ZM41.0714 47.5219C41.5322 47.5219 41.939 47.4391 42.2918 47.2735C42.6446 47.1007 42.9182 46.8703 43.1126 46.5823C43.307 46.2871 43.4042 45.9595 43.4042 45.5995C43.4042 45.2395 43.307 44.9155 43.1126 44.6275C42.9182 44.3395 42.6446 44.1127 42.2918 43.9471C41.939 43.7743 41.5322 43.6879 41.0714 43.6879C40.6178 43.6879 40.2146 43.7743 39.8618 43.9471C39.5162 44.1127 39.2426 44.3395 39.041 44.6275C38.8466 44.9155 38.7494 45.2395 38.7494 45.5995C38.7494 45.9595 38.8466 46.2871 39.041 46.5823C39.2426 46.8703 39.5162 47.1007 39.8618 47.2735C40.2146 47.4391 40.6178 47.5219 41.0714 47.5219ZM50.9325 48.5479C50.2989 48.5479 49.7265 48.4183 49.2153 48.1591C48.7113 47.8999 48.3117 47.5471 48.0165 47.1007C47.7213 46.6543 47.5737 46.1539 47.5737 45.5995C47.5737 45.0379 47.7213 44.5375 48.0165 44.0983C48.3117 43.6519 48.7113 43.2991 49.2153 43.0399C49.7265 42.7807 50.2989 42.6511 50.9325 42.6511C51.5661 42.6511 52.1493 42.7519 52.6821 42.9535C53.2221 43.1479 53.6433 43.4179 53.9457 43.7635L53.3193 44.6383C53.1393 44.4583 52.9161 44.2927 52.6497 44.1415C52.3905 43.9903 52.1133 43.8715 51.8181 43.7851C51.5301 43.6987 51.2421 43.6555 50.9541 43.6555C50.5149 43.6555 50.1261 43.7419 49.7877 43.9147C49.4565 44.0803 49.1937 44.3107 48.9993 44.6059C48.8121 44.8939 48.7185 45.2251 48.7185 45.5995C48.7185 45.9739 48.8193 46.3087 49.0209 46.6039C49.2225 46.8919 49.4925 47.1223 49.8309 47.2951C50.1765 47.4607 50.5545 47.5435 50.9649 47.5435C51.3177 47.5435 51.6345 47.5039 51.9153 47.4247C52.2033 47.3455 52.4625 47.2447 52.6929 47.1223C52.9305 46.9999 53.1465 46.8739 53.3409 46.7443L53.9457 47.5867C53.5785 47.8459 53.1429 48.0727 52.6389 48.2671C52.1349 48.4543 51.5661 48.5479 50.9325 48.5479ZM58.0448 46.9279L58.1312 45.7183L61.868 42.7699H63.4124L58.0448 46.9279ZM57.17 48.4399V40.4479H58.196V48.4399H57.17ZM62.03 48.4399L59.2436 45.4267L59.9888 44.7031L63.4556 48.4399H62.03ZM31.806 62.5479C31.2948 62.5479 30.8196 62.4939 30.3804 62.3859C29.9484 62.2779 29.5524 62.1159 29.1924 61.8999C28.8324 61.6839 28.5048 61.4103 28.2096 61.0791L28.9656 60.1179C29.4048 60.6075 29.8512 60.9603 30.3048 61.1763C30.7584 61.3923 31.2696 61.5003 31.8384 61.5003C32.1912 61.5003 32.5296 61.4571 32.8536 61.3707C33.1776 61.2771 33.4404 61.1439 33.642 60.9711C33.8436 60.7911 33.9444 60.5679 33.9444 60.3015C33.9444 60.1359 33.8904 59.9955 33.7824 59.8803C33.6816 59.7651 33.5412 59.6715 33.3612 59.5995C33.1884 59.5203 32.994 59.4555 32.778 59.4051C32.5692 59.3547 32.3604 59.3151 32.1516 59.2863C31.9428 59.2503 31.7556 59.2251 31.59 59.2107C31.1292 59.1387 30.7116 59.0451 30.3372 58.9299C29.97 58.8147 29.6532 58.6707 29.3868 58.4979C29.1276 58.3179 28.9296 58.1019 28.7928 57.8499C28.656 57.5979 28.5876 57.3099 28.5876 56.9859C28.5876 56.6403 28.6668 56.3307 28.8252 56.0571C28.9908 55.7835 29.2176 55.5531 29.5056 55.3659C29.8008 55.1715 30.1428 55.0239 30.5316 54.9231C30.9204 54.8223 31.3416 54.7719 31.7952 54.7719C32.2776 54.7719 32.7168 54.8223 33.1128 54.9231C33.516 55.0239 33.8724 55.1751 34.182 55.3767C34.4988 55.5711 34.758 55.8123 34.9596 56.1003L34.182 56.9427C33.9876 56.6979 33.7644 56.4927 33.5124 56.3271C33.2676 56.1615 32.9976 56.0355 32.7024 55.9491C32.4072 55.8627 32.094 55.8195 31.7628 55.8195C31.3956 55.8195 31.068 55.8627 30.78 55.9491C30.492 56.0355 30.2616 56.1579 30.0888 56.3163C29.9232 56.4675 29.8404 56.6547 29.8404 56.8779C29.8404 57.0579 29.8908 57.2163 29.9916 57.3531C30.0924 57.4899 30.2364 57.6051 30.4236 57.6987C30.6108 57.7851 30.8376 57.8607 31.104 57.9255C31.3704 57.9831 31.6692 58.0371 32.0004 58.0875C32.4252 58.1451 32.8284 58.2207 33.21 58.3143C33.5988 58.4007 33.9408 58.5195 34.236 58.6707C34.5384 58.8147 34.7724 59.0055 34.938 59.2431C35.1108 59.4735 35.1972 59.7687 35.1972 60.1287C35.1972 60.6111 35.0568 61.0359 34.776 61.4031C34.4952 61.7703 34.1028 62.0547 33.5988 62.2563C33.0948 62.4507 32.4972 62.5479 31.806 62.5479ZM41.7425 62.5047C41.0153 62.5047 40.3781 62.3535 39.8309 62.0511C39.2837 61.7415 38.8553 61.3203 38.5457 60.7875C38.2433 60.2475 38.0921 59.6391 38.0921 58.9623V54.8691H39.2585V58.9083C39.2585 59.3763 39.3665 59.7975 39.5825 60.1719C39.8057 60.5463 40.1045 60.8415 40.4789 61.0575C40.8605 61.2663 41.2781 61.3707 41.7317 61.3707C42.2213 61.3707 42.6569 61.2663 43.0385 61.0575C43.4201 60.8415 43.7225 60.5463 43.9457 60.1719C44.1689 59.7975 44.2805 59.3763 44.2805 58.9083V54.8691H45.3929V58.9623C45.3929 59.6391 45.2381 60.2475 44.9285 60.7875C44.6261 61.3203 44.2013 61.7415 43.6541 62.0511C43.1069 62.3535 42.4697 62.5047 41.7425 62.5047ZM55.866 62.5479C55.4484 62.5479 55.0776 62.4867 54.7536 62.3643C54.4296 62.2419 54.1524 62.0907 53.922 61.9107C53.6916 61.7307 53.5008 61.5507 53.3496 61.3707C53.2056 61.1907 53.1012 61.0395 53.0364 60.9171L53.8032 60.1071C53.94 60.2943 54.0768 60.4707 54.2136 60.6363C54.3504 60.8019 54.498 60.9459 54.6564 61.0683C54.822 61.1907 55.002 61.2879 55.1964 61.3599C55.3908 61.4247 55.614 61.4571 55.866 61.4571C56.2548 61.4571 56.5896 61.3707 56.8704 61.1979C57.1584 61.0251 57.378 60.7911 57.5292 60.4959C57.6876 60.2007 57.7668 59.8731 57.7668 59.5131V56.0247H55.9848V54.8799H60.3048V56.0247H58.9332V59.6211C58.9332 60.0027 58.8648 60.3699 58.728 60.7227C58.5912 61.0683 58.3896 61.3815 58.1232 61.6623C57.864 61.9359 57.5436 62.1519 57.162 62.3103C56.7876 62.4687 56.3556 62.5479 55.866 62.5479ZM65.113 62.5479C64.4002 62.5479 63.763 62.4255 63.2014 62.1807C62.647 61.9287 62.2114 61.5867 61.8946 61.1547C61.585 60.7155 61.4302 60.2187 61.4302 59.6643C61.4302 59.1963 61.5238 58.7787 61.711 58.4115C61.8982 58.0371 62.1574 57.7203 62.4886 57.4611C62.8198 57.1947 63.2014 56.9931 63.6334 56.8563C64.0654 56.7123 64.5262 56.6403 65.0158 56.6403C65.4694 56.6403 65.8942 56.7087 66.2902 56.8455C66.6862 56.9751 67.0354 57.1623 67.3378 57.4071C67.6402 57.6519 67.8742 57.9435 68.0398 58.2819C68.2054 58.6131 68.2846 58.9839 68.2774 59.3943L68.2666 59.9559H62.4238L62.1754 59.0703H67.3054L67.1434 59.1675V58.9083C67.1074 58.6635 66.985 58.4475 66.7762 58.2603C66.5674 58.0731 66.3082 57.9291 65.9986 57.8283C65.689 57.7203 65.3614 57.6663 65.0158 57.6663C64.5478 57.6663 64.123 57.7311 63.7414 57.8607C63.367 57.9831 63.0718 58.1883 62.8558 58.4763C62.6398 58.7571 62.5318 59.1279 62.5318 59.5887C62.5318 59.9775 62.647 60.3159 62.8774 60.6039C63.115 60.8919 63.4426 61.1151 63.8602 61.2735C64.2778 61.4319 64.7602 61.5111 65.3074 61.5111C65.833 61.5111 66.2722 61.4427 66.625 61.3059C66.9778 61.1691 67.2766 61.0215 67.5214 60.8631L68.0182 61.6947C67.8166 61.8387 67.5574 61.9791 67.2406 62.1159C66.931 62.2455 66.5926 62.3499 66.2254 62.4291C65.8582 62.5083 65.4874 62.5479 65.113 62.5479ZM74.4151 62.5479C73.7167 62.5479 73.0975 62.4219 72.5575 62.1699C72.0175 61.9179 71.5927 61.5687 71.2831 61.1223C70.9807 60.6759 70.8295 60.1683 70.8295 59.5995C70.8295 59.0235 70.9807 58.5159 71.2831 58.0767C71.5927 57.6303 72.0175 57.2811 72.5575 57.0291C73.0975 56.7771 73.7167 56.6511 74.4151 56.6511C75.1135 56.6511 75.7291 56.7771 76.2619 57.0291C76.8019 57.2811 77.2231 57.6303 77.5255 58.0767C77.8351 58.5159 77.9899 59.0235 77.9899 59.5995C77.9899 60.1683 77.8351 60.6759 77.5255 61.1223C77.2231 61.5687 76.8019 61.9179 76.2619 62.1699C75.7291 62.4219 75.1135 62.5479 74.4151 62.5479ZM74.4151 61.5327C74.8759 61.5327 75.2899 61.4499 75.6571 61.2843C76.0315 61.1187 76.3267 60.8919 76.5427 60.6039C76.7659 60.3087 76.8703 59.9739 76.8559 59.5995C76.8703 59.2179 76.7659 58.8831 76.5427 58.5951C76.3267 58.3071 76.0315 58.0803 75.6571 57.9147C75.2899 57.7491 74.8759 57.6663 74.4151 57.6663C73.9543 57.6663 73.5367 57.7491 73.1623 57.9147C72.7879 58.0803 72.4927 58.3071 72.2767 58.5951C72.0607 58.8831 71.9563 59.2179 71.9635 59.5995C71.9563 59.9739 72.0607 60.3087 72.2767 60.6039C72.4927 60.8919 72.7879 61.1187 73.1623 61.2843C73.5367 61.4499 73.9543 61.5327 74.4151 61.5327ZM81.2485 62.4399V56.7699H82.3609V58.2819L81.9937 58.3251C82.1449 58.0587 82.3465 57.7995 82.5985 57.5475C82.8505 57.2883 83.1493 57.0759 83.4949 56.9103C83.8477 56.7375 84.2329 56.6511 84.6505 56.6511C85.2193 56.6511 85.6909 56.7555 86.0653 56.9643C86.4469 57.1731 86.7313 57.4611 86.9185 57.8283C87.1057 58.1955 87.1993 58.6095 87.1993 59.0703V62.4399H86.0869V59.2323C86.0869 58.9155 86.0113 58.6419 85.8601 58.4115C85.7089 58.1739 85.5037 57.9939 85.2445 57.8715C84.9853 57.7419 84.6937 57.6807 84.3697 57.6879C84.0817 57.6879 83.8153 57.7383 83.5705 57.8391C83.3257 57.9399 83.1133 58.0731 82.9333 58.2387C82.7533 58.4043 82.6129 58.5843 82.5121 58.7787C82.4113 58.9731 82.3609 59.1639 82.3609 59.3511V62.4399H81.8101C81.6445 62.4399 81.5149 62.4399 81.4213 62.4399C81.3277 62.4399 81.2701 62.4399 81.2485 62.4399ZM94.2265 64.9239C93.6217 64.9239 93.0925 64.8555 92.6389 64.7187C92.1853 64.5891 91.8217 64.4307 91.5481 64.2435L91.9477 63.3255C92.0989 63.4047 92.2861 63.4911 92.5093 63.5847C92.7325 63.6783 92.9881 63.7575 93.2761 63.8223C93.5641 63.8943 93.8809 63.9303 94.2265 63.9303C94.6369 63.9303 94.9969 63.8511 95.3065 63.6927C95.6233 63.5343 95.8681 63.3003 96.0409 62.9907C96.2137 62.6883 96.3001 62.3175 96.3001 61.8783V61.1331L96.4189 61.2087C96.3757 61.4175 96.2173 61.6263 95.9437 61.8351C95.6773 62.0367 95.3425 62.2059 94.9393 62.3427C94.5361 62.4795 94.1041 62.5479 93.6433 62.5479C93.0169 62.5479 92.4625 62.4219 91.9801 62.1699C91.5049 61.9179 91.1305 61.5687 90.8569 61.1223C90.5905 60.6759 90.4573 60.1683 90.4573 59.5995C90.4573 59.0235 90.5977 58.5159 90.8785 58.0767C91.1665 57.6303 91.5589 57.2811 92.0557 57.0291C92.5597 56.7771 93.1357 56.6511 93.7837 56.6511C93.9637 56.6511 94.1689 56.6763 94.3993 56.7267C94.6369 56.7699 94.8781 56.8347 95.1229 56.9211C95.3677 57.0003 95.5981 57.0975 95.8141 57.2127C96.0301 57.3279 96.2029 57.4539 96.3325 57.5907C96.4693 57.7203 96.5377 57.8607 96.5377 58.0119L96.3001 58.0983V56.7699H97.4125V61.7487C97.4125 62.2815 97.3261 62.7459 97.1533 63.1419C96.9805 63.5451 96.7429 63.8763 96.4405 64.1355C96.1453 64.3947 95.8069 64.5891 95.4253 64.7187C95.0437 64.8555 94.6441 64.9239 94.2265 64.9239ZM94.0213 61.5219C94.4821 61.5219 94.8853 61.4391 95.2309 61.2735C95.5837 61.1079 95.8573 60.8811 96.0517 60.5931C96.2461 60.2979 96.3433 59.9667 96.3433 59.5995C96.3433 59.2251 96.2461 58.8939 96.0517 58.6059C95.8573 58.3179 95.5837 58.0911 95.2309 57.9255C94.8853 57.7527 94.4821 57.6663 94.0213 57.6663C93.5533 57.6663 93.1357 57.7527 92.7685 57.9255C92.4013 58.0911 92.1133 58.3215 91.9045 58.6167C91.6957 58.9047 91.5913 59.2323 91.5913 59.5995C91.5913 59.9595 91.6957 60.2871 91.9045 60.5823C92.1133 60.8703 92.4013 61.1007 92.7685 61.2735C93.1357 61.4391 93.5533 61.5219 94.0213 61.5219Z" fill="black"/>
</g>
<defs>
<clipPath id="clip0_1094_65506">
<rect width="324" height="180" fill="white"/>
</clipPath>
</defs>
</svg>
