<svg width="324" height="180" viewBox="0 0 324 180" fill="none" xmlns="http://www.w3.org/2000/svg">
<rect width="324" height="180" fill="#2F3240"/>
<path d="M28.2348 75.4399L28.224 70.1155H25.416V69.0787H32.4792V70.1155H29.6604V75.4399H28.2348ZM34.232 75.4399C33.872 75.4399 33.5948 75.3931 33.4004 75.2995C33.206 75.2059 33.0656 75.0871 32.9792 74.9431C32.9 74.7991 32.8496 74.6479 32.828 74.4895C32.8136 74.3311 32.8064 74.1871 32.8064 74.0575V71.9839C32.8064 71.8759 32.8136 71.7463 32.828 71.5951C32.8496 71.4367 32.9 71.2819 32.9792 71.1307C33.0656 70.9795 33.206 70.8535 33.4004 70.7527C33.602 70.6519 33.8792 70.6015 34.232 70.6015H36.554C37.0292 70.6015 37.4 70.6483 37.6664 70.7419C37.94 70.8283 38.1308 70.9723 38.2388 71.1739C38.354 71.3755 38.4116 71.6455 38.4116 71.9839V73.5823H36.5216C35.8736 73.5823 35.3444 73.5679 34.934 73.5391C34.5308 73.5103 34.2608 73.4923 34.124 73.4851V74.0791C34.1168 74.3671 34.2896 74.5111 34.6424 74.5111H35.1932C35.582 74.5111 35.96 74.5075 36.3272 74.5003C36.7016 74.4859 37.0436 74.4715 37.3532 74.4571C37.6628 74.4355 37.9112 74.4175 38.0984 74.4031L38.5304 75.1051C38.5304 75.3283 37.8212 75.4399 36.4028 75.4399H34.232ZM34.124 72.6535H37.094V71.9623C37.094 71.8183 37.076 71.7175 37.04 71.6599C37.0112 71.6023 36.9176 71.5663 36.7592 71.5519C36.6008 71.5375 36.3308 71.5303 35.9492 71.5303H34.6424C34.2968 71.5303 34.124 71.6743 34.124 71.9623V72.6535ZM39.0716 75.4399L39.2876 75.0079L41.156 73.0099L39.0716 70.6015H40.7132L42.0308 72.2755H42.1388L43.478 70.6015H45.1196L44.9468 70.9471L42.9704 73.0099L45.1196 75.4399H43.4672L42.1388 73.8199H42.0308L40.7132 75.4399H39.0716ZM47.7557 75.4399C47.2085 75.4399 46.8341 75.3247 46.6325 75.0943C46.4309 74.8639 46.3301 74.5183 46.3301 74.0575V71.5303H45.4445V70.6015H45.8981C46.0349 70.6015 46.1321 70.5799 46.1897 70.5367C46.2545 70.4935 46.3013 70.4071 46.3301 70.2775L46.5461 69.1219H47.6477V70.6015H49.8941V71.5303H47.6477V74.0683C47.6477 74.2483 47.6909 74.3671 47.7773 74.4247C47.8637 74.4823 47.9933 74.5111 48.1661 74.5111H49.6889L49.7969 75.3319C49.6457 75.3535 49.4153 75.3787 49.1057 75.4075C48.7961 75.4291 48.4577 75.4399 48.0905 75.4399H47.7557ZM53.1327 75.4399V68.4415H54.4503V70.8175C54.7527 70.7599 55.1163 70.7095 55.5411 70.6663C55.9659 70.6231 56.4519 70.6015 56.9991 70.6015H57.5391C57.8991 70.6015 58.1763 70.6519 58.3707 70.7527C58.5651 70.8535 58.7019 70.9795 58.7811 71.1307C58.8675 71.2819 58.9179 71.4367 58.9323 71.5951C58.9539 71.7463 58.9647 71.8759 58.9647 71.9839V75.4399H57.6471V71.9623C57.6471 71.6743 57.4743 71.5303 57.1287 71.5303H54.7743C54.6375 71.5303 54.5475 71.5447 54.5043 71.5735C54.4683 71.5951 54.4503 71.6599 54.4503 71.7679V75.4399H53.1327ZM61.5273 75.4399C61.1673 75.4399 60.8901 75.3931 60.6957 75.2995C60.5013 75.2059 60.3609 75.0871 60.2745 74.9431C60.1953 74.7991 60.1449 74.6479 60.1233 74.4895C60.1089 74.3311 60.1017 74.1871 60.1017 74.0575V71.9839C60.1017 71.8759 60.1089 71.7463 60.1233 71.5951C60.1449 71.4367 60.1953 71.2819 60.2745 71.1307C60.3609 70.9795 60.5013 70.8535 60.6957 70.7527C60.8973 70.6519 61.1745 70.6015 61.5273 70.6015H63.8493C64.3245 70.6015 64.6953 70.6483 64.9617 70.7419C65.2353 70.8283 65.4261 70.9723 65.5341 71.1739C65.6493 71.3755 65.7069 71.6455 65.7069 71.9839V73.5823H63.8169C63.1689 73.5823 62.6397 73.5679 62.2293 73.5391C61.8261 73.5103 61.5561 73.4923 61.4193 73.4851V74.0791C61.4121 74.3671 61.5849 74.5111 61.9377 74.5111H62.4885C62.8773 74.5111 63.2553 74.5075 63.6225 74.5003C63.9969 74.4859 64.3389 74.4715 64.6485 74.4571C64.9581 74.4355 65.2065 74.4175 65.3937 74.4031L65.8257 75.1051C65.8257 75.3283 65.1165 75.4399 63.6981 75.4399H61.5273ZM61.4193 72.6535H64.3893V71.9623C64.3893 71.8183 64.3713 71.7175 64.3353 71.6599C64.3065 71.6023 64.2129 71.5663 64.0545 71.5519C63.8961 71.5375 63.6261 71.5303 63.2445 71.5303H61.9377C61.5921 71.5303 61.4193 71.6743 61.4193 71.9623V72.6535ZM66.9069 75.4399V70.6015H67.7925L68.2029 70.8175C68.3901 70.7167 68.5917 70.6375 68.8077 70.5799C69.0237 70.5223 69.2973 70.4935 69.6285 70.4935C70.1541 70.4935 70.5789 70.5511 70.9029 70.6663C71.2341 70.7815 71.4537 70.8679 71.5617 70.9255L71.1837 71.8651C71.0973 71.8219 70.9533 71.7679 70.7517 71.7031C70.5573 71.6311 70.3269 71.5663 70.0605 71.5087C69.7941 71.4511 69.5025 71.4223 69.1857 71.4223H69.0669C68.7213 71.4223 68.4945 71.4907 68.3865 71.6275C68.2857 71.7643 68.2317 71.9911 68.2245 72.3079V75.4399H66.9069ZM73.6351 75.4399C73.2751 75.4399 72.9979 75.3931 72.8035 75.2995C72.6091 75.2059 72.4687 75.0871 72.3823 74.9431C72.3031 74.7991 72.2527 74.6479 72.2311 74.4895C72.2167 74.3311 72.2095 74.1871 72.2095 74.0575V71.9839C72.2095 71.8759 72.2167 71.7463 72.2311 71.5951C72.2527 71.4367 72.3031 71.2819 72.3823 71.1307C72.4687 70.9795 72.6091 70.8535 72.8035 70.7527C73.0051 70.6519 73.2823 70.6015 73.6351 70.6015H75.9571C76.4323 70.6015 76.8031 70.6483 77.0695 70.7419C77.3431 70.8283 77.5339 70.9723 77.6419 71.1739C77.7571 71.3755 77.8147 71.6455 77.8147 71.9839V73.5823H75.9247C75.2767 73.5823 74.7475 73.5679 74.3371 73.5391C73.9339 73.5103 73.6639 73.4923 73.5271 73.4851V74.0791C73.5199 74.3671 73.6927 74.5111 74.0455 74.5111H74.5963C74.9851 74.5111 75.3631 74.5075 75.7303 74.5003C76.1047 74.4859 76.4467 74.4715 76.7563 74.4571C77.0659 74.4355 77.3143 74.4175 77.5015 74.4031L77.9335 75.1051C77.9335 75.3283 77.2243 75.4399 75.8059 75.4399H73.6351ZM73.5271 72.6535H76.4971V71.9623C76.4971 71.8183 76.4791 71.7175 76.4431 71.6599C76.4143 71.6023 76.3207 71.5663 76.1623 71.5519C76.0039 71.5375 75.7339 71.5303 75.3523 71.5303H74.0455C73.6999 71.5303 73.5271 71.6743 73.5271 71.9623V72.6535Z" fill="#969696"/>
<path d="M28.2348 146.36L28.224 141.036H25.416V139.999H32.4792V141.036H29.6604V146.36H28.2348ZM34.232 146.36C33.872 146.36 33.5948 146.313 33.4004 146.22C33.206 146.126 33.0656 146.007 32.9792 145.863C32.9 145.719 32.8496 145.568 32.828 145.41C32.8136 145.251 32.8064 145.107 32.8064 144.978V142.904C32.8064 142.796 32.8136 142.666 32.828 142.515C32.8496 142.357 32.9 142.202 32.9792 142.051C33.0656 141.9 33.206 141.774 33.4004 141.673C33.602 141.572 33.8792 141.522 34.232 141.522H36.554C37.0292 141.522 37.4 141.568 37.6664 141.662C37.94 141.748 38.1308 141.892 38.2388 142.094C38.354 142.296 38.4116 142.566 38.4116 142.904V144.502H36.5216C35.8736 144.502 35.3444 144.488 34.934 144.459C34.5308 144.43 34.2608 144.412 34.124 144.405V144.999C34.1168 145.287 34.2896 145.431 34.6424 145.431H35.1932C35.582 145.431 35.96 145.428 36.3272 145.42C36.7016 145.406 37.0436 145.392 37.3532 145.377C37.6628 145.356 37.9112 145.338 38.0984 145.323L38.5304 146.025C38.5304 146.248 37.8212 146.36 36.4028 146.36H34.232ZM34.124 143.574H37.094V142.882C37.094 142.738 37.076 142.638 37.04 142.58C37.0112 142.522 36.9176 142.486 36.7592 142.472C36.6008 142.458 36.3308 142.45 35.9492 142.45H34.6424C34.2968 142.45 34.124 142.594 34.124 142.882V143.574ZM39.0716 146.36L39.2876 145.928L41.156 143.93L39.0716 141.522H40.7132L42.0308 143.196H42.1388L43.478 141.522H45.1196L44.9468 141.867L42.9704 143.93L45.1196 146.36H43.4672L42.1388 144.74H42.0308L40.7132 146.36H39.0716ZM47.7557 146.36C47.2085 146.36 46.8341 146.245 46.6325 146.014C46.4309 145.784 46.3301 145.438 46.3301 144.978V142.45H45.4445V141.522H45.8981C46.0349 141.522 46.1321 141.5 46.1897 141.457C46.2545 141.414 46.3013 141.327 46.3301 141.198L46.5461 140.042H47.6477V141.522H49.8941V142.45H47.6477V144.988C47.6477 145.168 47.6909 145.287 47.7773 145.345C47.8637 145.402 47.9933 145.431 48.1661 145.431H49.6889L49.7969 146.252C49.6457 146.274 49.4153 146.299 49.1057 146.328C48.7961 146.349 48.4577 146.36 48.0905 146.36H47.7557ZM53.1327 146.36V139.362H54.4503V141.738C54.7527 141.68 55.1163 141.63 55.5411 141.586C55.9659 141.543 56.4519 141.522 56.9991 141.522H57.5391C57.8991 141.522 58.1763 141.572 58.3707 141.673C58.5651 141.774 58.7019 141.9 58.7811 142.051C58.8675 142.202 58.9179 142.357 58.9323 142.515C58.9539 142.666 58.9647 142.796 58.9647 142.904V146.36H57.6471V142.882C57.6471 142.594 57.4743 142.45 57.1287 142.45H54.7743C54.6375 142.45 54.5475 142.465 54.5043 142.494C54.4683 142.515 54.4503 142.58 54.4503 142.688V146.36H53.1327ZM61.5273 146.36C61.1673 146.36 60.8901 146.313 60.6957 146.22C60.5013 146.126 60.3609 146.007 60.2745 145.863C60.1953 145.719 60.1449 145.568 60.1233 145.41C60.1089 145.251 60.1017 145.107 60.1017 144.978V142.904C60.1017 142.796 60.1089 142.666 60.1233 142.515C60.1449 142.357 60.1953 142.202 60.2745 142.051C60.3609 141.9 60.5013 141.774 60.6957 141.673C60.8973 141.572 61.1745 141.522 61.5273 141.522H63.8493C64.3245 141.522 64.6953 141.568 64.9617 141.662C65.2353 141.748 65.4261 141.892 65.5341 142.094C65.6493 142.296 65.7069 142.566 65.7069 142.904V144.502H63.8169C63.1689 144.502 62.6397 144.488 62.2293 144.459C61.8261 144.43 61.5561 144.412 61.4193 144.405V144.999C61.4121 145.287 61.5849 145.431 61.9377 145.431H62.4885C62.8773 145.431 63.2553 145.428 63.6225 145.42C63.9969 145.406 64.3389 145.392 64.6485 145.377C64.9581 145.356 65.2065 145.338 65.3937 145.323L65.8257 146.025C65.8257 146.248 65.1165 146.36 63.6981 146.36H61.5273ZM61.4193 143.574H64.3893V142.882C64.3893 142.738 64.3713 142.638 64.3353 142.58C64.3065 142.522 64.2129 142.486 64.0545 142.472C63.8961 142.458 63.6261 142.45 63.2445 142.45H61.9377C61.5921 142.45 61.4193 142.594 61.4193 142.882V143.574ZM66.9069 146.36V141.522H67.7925L68.2029 141.738C68.3901 141.637 68.5917 141.558 68.8077 141.5C69.0237 141.442 69.2973 141.414 69.6285 141.414C70.1541 141.414 70.5789 141.471 70.9029 141.586C71.2341 141.702 71.4537 141.788 71.5617 141.846L71.1837 142.785C71.0973 142.742 70.9533 142.688 70.7517 142.623C70.5573 142.551 70.3269 142.486 70.0605 142.429C69.7941 142.371 69.5025 142.342 69.1857 142.342H69.0669C68.7213 142.342 68.4945 142.411 68.3865 142.548C68.2857 142.684 68.2317 142.911 68.2245 143.228V146.36H66.9069ZM73.6351 146.36C73.2751 146.36 72.9979 146.313 72.8035 146.22C72.6091 146.126 72.4687 146.007 72.3823 145.863C72.3031 145.719 72.2527 145.568 72.2311 145.41C72.2167 145.251 72.2095 145.107 72.2095 144.978V142.904C72.2095 142.796 72.2167 142.666 72.2311 142.515C72.2527 142.357 72.3031 142.202 72.3823 142.051C72.4687 141.9 72.6091 141.774 72.8035 141.673C73.0051 141.572 73.2823 141.522 73.6351 141.522H75.9571C76.4323 141.522 76.8031 141.568 77.0695 141.662C77.3431 141.748 77.5339 141.892 77.6419 142.094C77.7571 142.296 77.8147 142.566 77.8147 142.904V144.502H75.9247C75.2767 144.502 74.7475 144.488 74.3371 144.459C73.9339 144.43 73.6639 144.412 73.5271 144.405V144.999C73.5199 145.287 73.6927 145.431 74.0455 145.431H74.5963C74.9851 145.431 75.3631 145.428 75.7303 145.42C76.1047 145.406 76.4467 145.392 76.7563 145.377C77.0659 145.356 77.3143 145.338 77.5015 145.323L77.9335 146.025C77.9335 146.248 77.2243 146.36 75.8059 146.36H73.6351ZM73.5271 143.574H76.4971V142.882C76.4971 142.738 76.4791 142.638 76.4431 142.58C76.4143 142.522 76.3207 142.486 76.1623 142.472C76.0039 142.458 75.7339 142.45 75.3523 142.45H74.0455C73.6999 142.45 73.5271 142.594 73.5271 142.882V143.574Z" fill="#CACACA"/>
<path d="M85.8348 146.36L85.824 141.036H83.016V139.999H90.0792V141.036H87.2604V146.36H85.8348ZM91.8321 146.36C91.4721 146.36 91.1949 146.313 91.0005 146.22C90.8061 146.126 90.6657 146.007 90.5793 145.863C90.5001 145.719 90.4497 145.568 90.4281 145.41C90.4137 145.251 90.4065 145.107 90.4065 144.978V142.904C90.4065 142.796 90.4137 142.666 90.4281 142.515C90.4497 142.357 90.5001 142.202 90.5793 142.051C90.6657 141.9 90.8061 141.774 91.0005 141.673C91.2021 141.572 91.4793 141.522 91.8321 141.522H94.1541C94.6293 141.522 95.0001 141.568 95.2665 141.662C95.5401 141.748 95.7309 141.892 95.8389 142.094C95.9541 142.296 96.0117 142.566 96.0117 142.904V144.502H94.1217C93.4737 144.502 92.9445 144.488 92.5341 144.459C92.1309 144.43 91.8609 144.412 91.7241 144.405V144.999C91.7169 145.287 91.8897 145.431 92.2425 145.431H92.7933C93.1821 145.431 93.5601 145.428 93.9273 145.42C94.3017 145.406 94.6437 145.392 94.9533 145.377C95.2629 145.356 95.5113 145.338 95.6985 145.323L96.1305 146.025C96.1305 146.248 95.4213 146.36 94.0029 146.36H91.8321ZM91.7241 143.574H94.6941V142.882C94.6941 142.738 94.6761 142.638 94.6401 142.58C94.6113 142.522 94.5177 142.486 94.3593 142.472C94.2009 142.458 93.9309 142.45 93.5493 142.45H92.2425C91.8969 142.45 91.7241 142.594 91.7241 142.882V143.574ZM96.6717 146.36L96.8877 145.928L98.7561 143.93L96.6717 141.522H98.3133L99.6309 143.196H99.7389L101.078 141.522H102.72L102.547 141.867L100.571 143.93L102.72 146.36H101.067L99.7389 144.74H99.6309L98.3133 146.36H96.6717ZM105.356 146.36C104.809 146.36 104.434 146.245 104.233 146.014C104.031 145.784 103.93 145.438 103.93 144.978V142.45H103.045V141.522H103.498C103.635 141.522 103.732 141.5 103.79 141.457C103.855 141.414 103.901 141.327 103.93 141.198L104.146 140.042H105.248V141.522H107.494V142.45H105.248V144.988C105.248 145.168 105.291 145.287 105.377 145.345C105.464 145.402 105.593 145.431 105.766 145.431H107.289L107.397 146.252C107.246 146.274 107.015 146.299 106.706 146.328C106.396 146.349 106.058 146.36 105.691 146.36H105.356ZM110.733 146.36V139.362H112.05V141.738C112.353 141.68 112.716 141.63 113.141 141.586C113.566 141.543 114.052 141.522 114.599 141.522H115.139C115.499 141.522 115.776 141.572 115.971 141.673C116.165 141.774 116.302 141.9 116.381 142.051C116.468 142.202 116.518 142.357 116.532 142.515C116.554 142.666 116.565 142.796 116.565 142.904V146.36H115.247V142.882C115.247 142.594 115.074 142.45 114.729 142.45H112.374C112.238 142.45 112.148 142.465 112.104 142.494C112.068 142.515 112.05 142.58 112.05 142.688V146.36H110.733ZM119.127 146.36C118.767 146.36 118.49 146.313 118.296 146.22C118.101 146.126 117.961 146.007 117.875 145.863C117.795 145.719 117.745 145.568 117.723 145.41C117.709 145.251 117.702 145.107 117.702 144.978V142.904C117.702 142.796 117.709 142.666 117.723 142.515C117.745 142.357 117.795 142.202 117.875 142.051C117.961 141.9 118.101 141.774 118.296 141.673C118.497 141.572 118.775 141.522 119.127 141.522H121.449C121.925 141.522 122.295 141.568 122.562 141.662C122.835 141.748 123.026 141.892 123.134 142.094C123.249 142.296 123.307 142.566 123.307 142.904V144.502H121.417C120.769 144.502 120.24 144.488 119.829 144.459C119.426 144.43 119.156 144.412 119.019 144.405V144.999C119.012 145.287 119.185 145.431 119.538 145.431H120.089C120.477 145.431 120.855 145.428 121.223 145.42C121.597 145.406 121.939 145.392 122.249 145.377C122.558 145.356 122.807 145.338 122.994 145.323L123.426 146.025C123.426 146.248 122.717 146.36 121.298 146.36H119.127ZM119.019 143.574H121.989V142.882C121.989 142.738 121.971 142.638 121.935 142.58C121.907 142.522 121.813 142.486 121.655 142.472C121.496 142.458 121.226 142.45 120.845 142.45H119.538C119.192 142.45 119.019 142.594 119.019 142.882V143.574ZM124.507 146.36V141.522H125.393L125.803 141.738C125.99 141.637 126.192 141.558 126.408 141.5C126.624 141.442 126.897 141.414 127.229 141.414C127.754 141.414 128.179 141.471 128.503 141.586C128.834 141.702 129.054 141.788 129.162 141.846L128.784 142.785C128.697 142.742 128.553 142.688 128.352 142.623C128.157 142.551 127.927 142.486 127.661 142.429C127.394 142.371 127.103 142.342 126.786 142.342H126.667C126.321 142.342 126.095 142.411 125.987 142.548C125.886 142.684 125.832 142.911 125.825 143.228V146.36H124.507ZM131.235 146.36C130.875 146.36 130.598 146.313 130.404 146.22C130.209 146.126 130.069 146.007 129.982 145.863C129.903 145.719 129.853 145.568 129.831 145.41C129.817 145.251 129.81 145.107 129.81 144.978V142.904C129.81 142.796 129.817 142.666 129.831 142.515C129.853 142.357 129.903 142.202 129.982 142.051C130.069 141.9 130.209 141.774 130.404 141.673C130.605 141.572 130.882 141.522 131.235 141.522H133.557C134.032 141.522 134.403 141.568 134.67 141.662C134.943 141.748 135.134 141.892 135.242 142.094C135.357 142.296 135.415 142.566 135.415 142.904V144.502H133.525C132.877 144.502 132.348 144.488 131.937 144.459C131.534 144.43 131.264 144.412 131.127 144.405V144.999C131.12 145.287 131.293 145.431 131.646 145.431H132.196C132.585 145.431 132.963 145.428 133.33 145.42C133.705 145.406 134.047 145.392 134.356 145.377C134.666 145.356 134.914 145.338 135.102 145.323L135.534 146.025C135.534 146.248 134.824 146.36 133.406 146.36H131.235ZM131.127 143.574H134.097V142.882C134.097 142.738 134.079 142.638 134.043 142.58C134.014 142.522 133.921 142.486 133.762 142.472C133.604 142.458 133.334 142.45 132.952 142.45H131.646C131.3 142.45 131.127 142.594 131.127 142.882V143.574Z" fill="#969696"/>
<path d="M27.792 54.16L28.116 51.568V35.1088H32.3928V51.0496H45.8064L47.1024 53.8036C47.1024 53.89 46.8108 53.9764 46.2276 54.0628C45.6444 54.1276 44.64 54.16 43.2144 54.16H27.792ZM53.3085 54.16C51.8613 54.16 50.7813 53.8684 50.0685 53.2852C49.3773 52.702 49.0317 51.7516 49.0317 50.434V43.792C49.0317 43.468 49.0533 43.0792 49.0965 42.6256C49.1613 42.1504 49.3125 41.686 49.5501 41.2324C49.8093 40.7788 50.2305 40.4008 50.8137 40.0984C51.4185 39.796 52.2501 39.6448 53.3085 39.6448H62.2509C63.3309 39.6448 64.1625 39.796 64.7457 40.0984C65.3289 40.4008 65.7393 40.7788 65.9769 41.2324C66.2361 41.686 66.3873 42.1504 66.4305 42.6256C66.4953 43.0792 66.5277 43.468 66.5277 43.792V50.0128C66.5277 50.4016 66.4953 50.8336 66.4305 51.3088C66.3873 51.784 66.2361 52.2376 65.9769 52.6696C65.7177 53.1016 65.2965 53.458 64.7133 53.7388C64.1301 54.0196 63.3093 54.16 62.2509 54.16H53.3085ZM54.5397 51.3736H61.0197C62.0781 51.3736 62.6073 50.9416 62.6073 50.0776V43.7272C62.6073 42.8632 62.0781 42.4312 61.0197 42.4312H54.5397C53.5029 42.4312 52.9845 42.8632 52.9845 43.7272V50.0776C52.9845 50.9416 53.5029 51.3736 54.5397 51.3736ZM80.7399 59.8624C78.3639 59.8624 76.4307 59.8408 74.9403 59.7976C73.4499 59.7544 72.3051 59.6896 71.5059 59.6032C70.7067 59.5168 70.1559 59.4088 69.8535 59.2792C69.5727 59.1496 69.4323 59.0092 69.4323 58.858L70.4043 56.428C70.7499 56.536 71.3547 56.6656 72.2187 56.8168C73.1043 56.9896 74.2275 57.076 75.5883 57.076H81.1287C81.9279 57.076 82.4895 56.9572 82.8135 56.7196C83.1591 56.482 83.3319 56.0608 83.3319 55.456V53.512C82.4031 53.6848 81.3015 53.836 80.0271 53.9656C78.7743 54.0952 77.3271 54.16 75.6855 54.16H74.0655C72.9855 54.16 72.1539 54.0196 71.5707 53.7388C70.9875 53.458 70.5663 53.1016 70.3071 52.6696C70.0695 52.2376 69.9183 51.784 69.8535 51.3088C69.8103 50.8336 69.7887 50.4016 69.7887 50.0128V43.792C69.7887 43.468 69.8103 43.0792 69.8535 42.6256C69.9183 42.1504 70.0695 41.686 70.3071 41.2324C70.5663 40.7788 70.9875 40.4008 71.5707 40.0984C72.1755 39.796 73.0071 39.6448 74.0655 39.6448H75.7179C77.9859 39.6448 79.7463 39.688 80.9991 39.7744C82.2735 39.8608 83.2023 39.958 83.7855 40.066L84.6279 39.6448H87.2847V55.7152C87.2847 56.104 87.2199 56.536 87.0903 57.0112C86.9823 57.4864 86.7555 57.94 86.4099 58.372C86.0643 58.804 85.5675 59.1604 84.9195 59.4412C84.2715 59.722 83.4183 59.8624 82.3599 59.8624H80.7399ZM75.2967 51.3736H82.3275C82.8243 51.3736 83.1159 51.3304 83.2023 51.244C83.2887 51.1576 83.3319 50.8768 83.3319 50.4016V42.658C82.5975 42.6148 81.6687 42.5716 80.5455 42.5284C79.4223 42.4636 78.2235 42.4312 76.9491 42.4312H75.2967C74.2599 42.4312 73.7415 42.8632 73.7415 43.7272V50.0776C73.7199 50.9416 74.2383 51.3736 75.2967 51.3736ZM95.1374 54.16C93.6902 54.16 92.6102 53.8684 91.8974 53.2852C91.2062 52.702 90.8606 51.7516 90.8606 50.434V43.792C90.8606 43.468 90.8822 43.0792 90.9254 42.6256C90.9902 42.1504 91.1414 41.686 91.379 41.2324C91.6382 40.7788 92.0594 40.4008 92.6426 40.0984C93.2474 39.796 94.079 39.6448 95.1374 39.6448H104.08C105.16 39.6448 105.991 39.796 106.575 40.0984C107.158 40.4008 107.568 40.7788 107.806 41.2324C108.065 41.686 108.216 42.1504 108.259 42.6256C108.324 43.0792 108.357 43.468 108.357 43.792V50.0128C108.357 50.4016 108.324 50.8336 108.259 51.3088C108.216 51.784 108.065 52.2376 107.806 52.6696C107.547 53.1016 107.125 53.458 106.542 53.7388C105.959 54.0196 105.138 54.16 104.08 54.16H95.1374ZM96.3686 51.3736H102.849C103.907 51.3736 104.436 50.9416 104.436 50.0776V43.7272C104.436 42.8632 103.907 42.4312 102.849 42.4312H96.3686C95.3318 42.4312 94.8134 42.8632 94.8134 43.7272V50.0776C94.8134 50.9416 95.3318 51.3736 96.3686 51.3736ZM119.676 54.16V35.1088H123.953V43.0144H136.654V35.1088H140.931V54.16H136.654V46.1248H123.953V54.16H119.676ZM149.433 54.16C148.353 54.16 147.521 54.0196 146.938 53.7388C146.355 53.458 145.933 53.1016 145.674 52.6696C145.437 52.2376 145.285 51.784 145.221 51.3088C145.177 50.8336 145.156 50.4016 145.156 50.0128V43.792C145.156 43.468 145.177 43.0792 145.221 42.6256C145.285 42.1504 145.437 41.686 145.674 41.2324C145.933 40.7788 146.355 40.4008 146.938 40.0984C147.543 39.796 148.374 39.6448 149.433 39.6448H156.399C157.824 39.6448 158.937 39.7852 159.736 40.066C160.557 40.3252 161.129 40.7572 161.453 41.362C161.799 41.9668 161.971 42.7768 161.971 43.792V48.5872H156.301C154.357 48.5872 152.77 48.544 151.539 48.4576C150.329 48.3712 149.519 48.3172 149.109 48.2956V50.0776C149.087 50.9416 149.605 51.3736 150.664 51.3736H152.316C153.483 51.3736 154.617 51.3628 155.718 51.3412C156.841 51.298 157.867 51.2548 158.796 51.2116C159.725 51.1468 160.47 51.0928 161.032 51.0496L162.328 53.1556C162.328 53.8252 160.2 54.16 155.945 54.16H149.433ZM149.109 45.8008H158.019V43.7272C158.019 43.2952 157.965 42.9928 157.857 42.82C157.77 42.6472 157.489 42.5392 157.014 42.496C156.539 42.4528 155.729 42.4312 154.584 42.4312H150.664C149.627 42.4312 149.109 42.8632 149.109 43.7272V45.8008ZM165.572 54.16V39.6448H168.228L169.46 40.2928C170.021 39.9904 170.626 39.7528 171.274 39.58C171.922 39.4072 172.743 39.3208 173.736 39.3208C175.313 39.3208 176.588 39.4936 177.56 39.8392C178.553 40.1848 179.212 40.444 179.536 40.6168L178.402 43.4356C178.143 43.306 177.711 43.144 177.106 42.9496C176.523 42.7336 175.832 42.5392 175.032 42.3664C174.233 42.1936 173.358 42.1072 172.408 42.1072H172.052C171.015 42.1072 170.334 42.3124 170.01 42.7228C169.708 43.1332 169.546 43.8136 169.524 44.764V54.16H165.572ZM185.756 54.16C184.676 54.16 183.845 54.0196 183.261 53.7388C182.678 53.458 182.257 53.1016 181.998 52.6696C181.76 52.2376 181.609 51.784 181.544 51.3088C181.501 50.8336 181.479 50.4016 181.479 50.0128V43.792C181.479 43.468 181.501 43.0792 181.544 42.6256C181.609 42.1504 181.76 41.686 181.998 41.2324C182.257 40.7788 182.678 40.4008 183.261 40.0984C183.866 39.796 184.698 39.6448 185.756 39.6448H192.722C194.148 39.6448 195.26 39.7852 196.059 40.066C196.88 40.3252 197.453 40.7572 197.777 41.362C198.122 41.9668 198.295 42.7768 198.295 43.792V48.5872H192.625C190.681 48.5872 189.093 48.544 187.862 48.4576C186.653 48.3712 185.843 48.3172 185.432 48.2956V50.0776C185.411 50.9416 185.929 51.3736 186.987 51.3736H188.64C189.806 51.3736 190.94 51.3628 192.042 51.3412C193.165 51.298 194.191 51.2548 195.12 51.2116C196.049 51.1468 196.794 51.0928 197.355 51.0496L198.651 53.1556C198.651 53.8252 196.524 54.16 192.269 54.16H185.756ZM185.432 45.8008H194.342V43.7272C194.342 43.2952 194.288 42.9928 194.18 42.82C194.094 42.6472 193.813 42.5392 193.338 42.496C192.863 42.4528 192.053 42.4312 190.908 42.4312H186.987C185.951 42.4312 185.432 42.8632 185.432 43.7272V45.8008Z" fill="white"/>
<rect x="23.76" y="152.28" width="262.44" height="1.44" fill="url(#paint0_linear_1094_65523)"/>
<defs>
<linearGradient id="paint0_linear_1094_65523" x1="23.76" y1="153" x2="286.2" y2="153" gradientUnits="userSpaceOnUse">
<stop stop-color="#7436E0"/>
<stop offset="1" stop-color="#3F1D7A"/>
</linearGradient>
</defs>
</svg>
