<svg width="324" height="180" viewBox="0 0 324 180" fill="none" xmlns="http://www.w3.org/2000/svg">
<rect width="324" height="180" fill="#B2B2B2"/>
<rect x="14.3999" y="14.4" width="295.2" height="151.2" fill="white"/>
<path d="M103.779 100.52H92.2617V98.0521H103.779V100.52ZM92.8629 100.52H89.7938V77.4856H92.8629V100.52ZM106.041 91.7872C106.041 90.1313 106.358 88.6495 106.99 87.3417C107.623 86.0339 108.52 85.0003 109.68 84.2409C110.84 83.471 112.216 83.086 113.809 83.086C115.423 83.086 116.815 83.471 117.986 84.2409C119.156 85.0003 120.053 86.0339 120.675 87.3417C121.308 88.6495 121.624 90.1313 121.624 91.7872V92.1511C121.624 93.7964 121.308 95.2782 120.675 96.5966C120.053 97.9044 119.156 98.938 117.986 99.6974C116.825 100.457 115.444 100.836 113.841 100.836C112.238 100.836 110.851 100.457 109.68 99.6974C108.52 98.938 107.623 97.9044 106.99 96.5966C106.358 95.2782 106.041 93.7964 106.041 92.1511V91.7872ZM109 92.1511C109 93.2796 109.179 94.3237 109.538 95.2835C109.896 96.2433 110.429 97.0132 111.135 97.5933C111.853 98.1733 112.754 98.4634 113.841 98.4634C114.916 98.4634 115.808 98.1733 116.514 97.5933C117.231 97.0132 117.769 96.2433 118.128 95.2835C118.487 94.3237 118.666 93.2796 118.666 92.1511V91.7872C118.666 90.6587 118.487 89.6146 118.128 88.6548C117.769 87.695 117.231 86.9251 116.514 86.345C115.797 85.7544 114.895 85.4591 113.809 85.4591C112.744 85.4591 111.853 85.7544 111.135 86.345C110.418 86.9251 109.88 87.695 109.522 88.6548C109.174 89.6146 109 90.6587 109 91.7872V92.1511ZM131.828 107.275C131.238 107.275 130.542 107.18 129.74 106.991C128.949 106.811 128.169 106.5 127.399 106.057C126.639 105.625 126.001 105.039 125.484 104.301L127.019 102.577C127.736 103.442 128.485 104.043 129.265 104.38C130.056 104.728 130.837 104.902 131.607 104.902C132.988 104.902 134.085 104.507 134.897 103.716C135.72 102.935 136.131 101.796 136.131 100.299V87.1677L136.4 83.4024H139.09V100.156C139.09 101.664 138.779 102.951 138.156 104.016C137.545 105.082 136.69 105.888 135.594 106.437C134.507 106.996 133.252 107.275 131.828 107.275ZM131.354 100.836C129.983 100.836 128.791 100.462 127.778 99.7132C126.776 98.9538 125.996 97.9202 125.437 96.6124C124.888 95.3046 124.614 93.8175 124.614 92.1511V91.8188C124.614 90.0786 124.888 88.5546 125.437 87.2468C125.985 85.9284 126.766 84.9054 127.778 84.1776C128.791 83.4499 129.993 83.086 131.385 83.086C132.461 83.086 133.4 83.2759 134.201 83.6556C135.013 84.0247 135.699 84.5626 136.258 85.2692C136.828 85.9759 137.276 86.8302 137.603 87.8321C137.94 88.8341 138.172 89.9626 138.299 91.2177V92.7522C138.141 94.4081 137.787 95.8425 137.239 97.0554C136.701 98.2577 135.947 99.1911 134.977 99.8556C134.006 100.509 132.799 100.836 131.354 100.836ZM132.081 98.3685C133.052 98.3685 133.848 98.1628 134.47 97.7515C135.093 97.3401 135.594 96.797 135.973 96.122C136.353 95.447 136.648 94.714 136.859 93.9229V90.0786C136.733 89.4985 136.553 88.9396 136.321 88.4017C136.089 87.8532 135.783 87.3681 135.404 86.9462C135.024 86.5138 134.56 86.171 134.012 85.9179C133.474 85.6647 132.841 85.5382 132.113 85.5382C131.048 85.5382 130.178 85.8229 129.503 86.3925C128.838 86.962 128.348 87.7267 128.031 88.6864C127.726 89.6356 127.573 90.6798 127.573 91.8188V92.1511C127.573 93.2901 127.726 94.329 128.031 95.2677C128.348 96.2063 128.838 96.9604 129.503 97.53C130.167 98.089 131.027 98.3685 132.081 98.3685ZM142.744 91.7872C142.744 90.1313 143.061 88.6495 143.694 87.3417C144.326 86.0339 145.223 85.0003 146.383 84.2409C147.543 83.471 148.92 83.086 150.512 83.086C152.126 83.086 153.518 83.471 154.689 84.2409C155.859 85.0003 156.756 86.0339 157.378 87.3417C158.011 88.6495 158.327 90.1313 158.327 91.7872V92.1511C158.327 93.7964 158.011 95.2782 157.378 96.5966C156.756 97.9044 155.859 98.938 154.689 99.6974C153.529 100.457 152.147 100.836 150.544 100.836C148.941 100.836 147.554 100.457 146.383 99.6974C145.223 98.938 144.326 97.9044 143.694 96.5966C143.061 95.2782 142.744 93.7964 142.744 92.1511V91.7872ZM145.703 92.1511C145.703 93.2796 145.882 94.3237 146.241 95.2835C146.599 96.2433 147.132 97.0132 147.838 97.5933C148.556 98.1733 149.457 98.4634 150.544 98.4634C151.62 98.4634 152.511 98.1733 153.217 97.5933C153.935 97.0132 154.472 96.2433 154.831 95.2835C155.19 94.3237 155.369 93.2796 155.369 92.1511V91.7872C155.369 90.6587 155.19 89.6146 154.831 88.6548C154.472 87.695 153.935 86.9251 153.217 86.345C152.5 85.7544 151.598 85.4591 150.512 85.4591C149.447 85.4591 148.556 85.7544 147.838 86.345C147.121 86.9251 146.583 87.695 146.225 88.6548C145.877 89.6146 145.703 90.6587 145.703 91.7872V92.1511ZM185.538 89.8571H173.104V87.3892H185.538V89.8571ZM173.578 100.52H170.509V77.4856H173.578V100.52ZM188.228 100.52H185.159V77.4856H188.228V100.52ZM200.299 100.836C198.706 100.836 197.319 100.483 196.138 99.7765C194.967 99.0593 194.055 98.0784 193.401 96.8339C192.758 95.5894 192.436 94.1655 192.436 92.5624V91.8821C192.436 90.0259 192.789 88.4438 193.496 87.136C194.213 85.8177 195.141 84.8157 196.28 84.1302C197.43 83.4341 198.643 83.086 199.919 83.086C201.564 83.086 202.904 83.4552 203.937 84.1935C204.981 84.9212 205.746 85.9179 206.231 87.1835C206.727 88.4386 206.975 89.8624 206.975 91.455V92.7681H194.192V90.395H204.016V90.1735C203.974 89.4142 203.821 88.6759 203.558 87.9587C203.294 87.231 202.872 86.6351 202.292 86.171C201.712 85.6964 200.921 85.4591 199.919 85.4591C199.033 85.4591 198.247 85.7122 197.562 86.2185C196.887 86.7142 196.354 87.4419 195.964 88.4017C195.584 89.3509 195.394 90.511 195.394 91.8821V92.5624C195.394 93.6487 195.595 94.6401 195.996 95.5366C196.396 96.4226 196.976 97.1345 197.736 97.6724C198.495 98.1997 199.402 98.4634 200.457 98.4634C201.49 98.4634 202.366 98.2524 203.083 97.8306C203.8 97.4087 204.428 96.8444 204.966 96.1378L206.753 97.53C206.205 98.3737 205.414 99.1384 204.38 99.8239C203.357 100.499 201.997 100.836 200.299 100.836ZM213.35 100.52H210.392V83.4024H213.271L213.35 86.0919V100.52ZM218.682 86.0128C218.429 85.9601 218.191 85.9284 217.97 85.9179C217.759 85.8968 217.516 85.8862 217.242 85.8862C216.346 85.8862 215.586 86.0708 214.964 86.4399C214.352 86.8091 213.878 87.3206 213.54 87.9745C213.203 88.6179 212.992 89.3562 212.907 90.1894L212.069 90.664C212.069 89.2823 212.254 88.022 212.623 86.8829C212.992 85.7333 213.567 84.8157 214.347 84.1302C215.138 83.4341 216.151 83.086 217.385 83.086C217.585 83.086 217.822 83.1124 218.096 83.1651C218.381 83.2073 218.576 83.2548 218.682 83.3075V86.0128ZM228.49 100.836C226.898 100.836 225.511 100.483 224.33 99.7765C223.159 99.0593 222.247 98.0784 221.593 96.8339C220.949 95.5894 220.628 94.1655 220.628 92.5624V91.8821C220.628 90.0259 220.981 88.4438 221.688 87.136C222.405 85.8177 223.333 84.8157 224.472 84.1302C225.622 83.4341 226.835 83.086 228.111 83.086C229.756 83.086 231.096 83.4552 232.129 84.1935C233.173 84.9212 233.938 85.9179 234.423 87.1835C234.919 88.4386 235.167 89.8624 235.167 91.455V92.7681H222.384V90.395H232.208V90.1735C232.166 89.4142 232.013 88.6759 231.749 87.9587C231.486 87.231 231.064 86.6351 230.484 86.171C229.904 85.6964 229.113 85.4591 228.111 85.4591C227.225 85.4591 226.439 85.7122 225.754 86.2185C225.079 86.7142 224.546 87.4419 224.156 88.4017C223.776 89.3509 223.586 90.511 223.586 91.8821V92.5624C223.586 93.6487 223.787 94.6401 224.187 95.5366C224.588 96.4226 225.168 97.1345 225.928 97.6724C226.687 98.1997 227.594 98.4634 228.649 98.4634C229.682 98.4634 230.558 98.2524 231.275 97.8306C231.992 97.4087 232.62 96.8444 233.157 96.1378L234.945 97.53C234.397 98.3737 233.606 99.1384 232.572 99.8239C231.549 100.499 230.188 100.836 228.49 100.836Z" fill="black"/>
<path d="M156.677 109.082H158.041V116.325C158.041 117 157.903 117.572 157.627 118.04C157.35 118.504 156.968 118.858 156.48 119.102C155.993 119.341 155.435 119.461 154.807 119.461C154.179 119.461 153.621 119.353 153.134 119.137C152.646 118.922 152.264 118.593 151.987 118.153C151.711 117.712 151.573 117.157 151.573 116.486H152.937C152.937 117.133 153.11 117.609 153.457 117.914C153.809 118.214 154.259 118.364 154.807 118.364C155.163 118.364 155.482 118.286 155.763 118.132C156.044 117.977 156.267 117.75 156.431 117.45C156.595 117.145 156.677 116.77 156.677 116.325V109.082ZM159.792 115.439C159.792 114.703 159.933 114.044 160.214 113.463C160.495 112.882 160.894 112.422 161.409 112.085C161.925 111.743 162.537 111.572 163.244 111.572C163.962 111.572 164.58 111.743 165.101 112.085C165.621 112.422 166.019 112.882 166.296 113.463C166.577 114.044 166.718 114.703 166.718 115.439V115.6C166.718 116.332 166.577 116.99 166.296 117.576C166.019 118.157 165.621 118.617 165.101 118.954C164.585 119.292 163.971 119.461 163.259 119.461C162.546 119.461 161.93 119.292 161.409 118.954C160.894 118.617 160.495 118.157 160.214 117.576C159.933 116.99 159.792 116.332 159.792 115.6V115.439ZM161.107 115.6C161.107 116.102 161.187 116.566 161.346 116.993C161.505 117.419 161.742 117.761 162.056 118.019C162.375 118.277 162.776 118.406 163.259 118.406C163.737 118.406 164.133 118.277 164.447 118.019C164.766 117.761 165.005 117.419 165.164 116.993C165.323 116.566 165.403 116.102 165.403 115.6V115.439C165.403 114.937 165.323 114.473 165.164 114.047C165.005 113.62 164.766 113.278 164.447 113.02C164.128 112.757 163.727 112.626 163.244 112.626C162.771 112.626 162.375 112.757 162.056 113.02C161.737 113.278 161.498 113.62 161.339 114.047C161.184 114.473 161.107 114.937 161.107 115.439V115.6ZM171.851 119.461C171.204 119.461 170.665 119.315 170.234 119.025C169.802 118.729 169.467 118.314 169.228 117.78C168.989 117.241 168.832 116.604 168.757 115.868V115.186C168.832 114.44 168.989 113.798 169.228 113.259C169.467 112.72 169.8 112.305 170.227 112.014C170.658 111.719 171.194 111.572 171.837 111.572C172.474 111.572 173.013 111.733 173.454 112.057C173.894 112.38 174.23 112.835 174.459 113.421C174.689 114.002 174.804 114.679 174.804 115.453V115.6C174.804 116.341 174.689 117.002 174.459 117.583C174.23 118.164 173.894 118.624 173.454 118.961C173.013 119.294 172.479 119.461 171.851 119.461ZM168.356 119.32V108.52H169.671V117.843L169.559 119.32H168.356ZM171.52 118.364C171.989 118.364 172.366 118.239 172.652 117.991C172.943 117.738 173.154 117.403 173.285 116.986C173.421 116.568 173.489 116.107 173.489 115.6V115.453C173.489 114.947 173.426 114.482 173.299 114.061C173.173 113.634 172.964 113.294 172.673 113.041C172.387 112.788 171.998 112.661 171.506 112.661C171.183 112.661 170.899 112.718 170.655 112.83C170.416 112.943 170.212 113.095 170.044 113.287C169.875 113.475 169.737 113.69 169.629 113.934C169.526 114.173 169.448 114.422 169.397 114.679V116.388C169.472 116.716 169.594 117.032 169.762 117.337C169.931 117.637 170.159 117.883 170.444 118.075C170.735 118.268 171.094 118.364 171.52 118.364Z" fill="#969696"/>
<circle cx="22.5001" cy="22.5" r="9.9" fill="white"/>
<circle cx="293.4" cy="149.4" r="19.8" fill="black"/>
<rect x="270.36" y="151.2" width="39.24" height="14.4" fill="white"/>
<rect x="309.6" y="126.36" width="39.24" height="14.4" transform="rotate(90 309.6 126.36)" fill="white"/>
<rect x="21.96" y="11.88" width="32.4" height="9.36" transform="rotate(90 21.96 11.88)" fill="black"/>
<rect x="44.28" y="21.24" width="31.68" height="9.36" transform="rotate(180 44.28 21.24)" fill="black"/>
</svg>
