<svg width="324" height="180" viewBox="0 0 324 180" fill="none" xmlns="http://www.w3.org/2000/svg">
<g clip-path="url(#clip0_1094_65539)">
<rect width="324" height="180" fill="#FCFBF8"/>
<rect x="324" width="9.36" height="9.36" transform="rotate(90 324 0)" fill="#1A64AD"/>
<rect x="315" y="9.35999" width="9.36" height="9.36" transform="rotate(90 315 9.35999)" fill="#1A64AD"/>
<rect x="324" y="18.72" width="9.36" height="9.36" transform="rotate(90 324 18.72)" fill="#1A64AD"/>
<rect x="324" y="37.4399" width="9.36" height="9.36" transform="rotate(90 324 37.4399)" fill="#1A64AD"/>
<rect x="324" y="56.16" width="9.36" height="9.36" transform="rotate(90 324 56.16)" fill="#1A64AD"/>
<rect x="324" y="74.88" width="9.36" height="9.36" transform="rotate(90 324 74.88)" fill="#1A64AD"/>
<rect x="324" y="93.6" width="9.36" height="9.36" transform="rotate(90 324 93.6)" fill="#1A64AD"/>
<rect x="324" y="112.32" width="9.36" height="9.36" transform="rotate(90 324 112.32)" fill="#1A64AD"/>
<rect x="315" y="28.08" width="9.36" height="9.36" transform="rotate(90 315 28.08)" fill="#1A64AD"/>
<rect x="315" y="46.8" width="9.36" height="9.36" transform="rotate(90 315 46.8)" fill="#1A64AD"/>
<rect x="315" y="65.52" width="9.36" height="9.36" transform="rotate(90 315 65.52)" fill="#1A64AD"/>
<rect x="315" y="84.24" width="9.36" height="9.36" transform="rotate(90 315 84.24)" fill="#1A64AD"/>
<rect x="315" y="102.96" width="9.36" height="9.36" transform="rotate(90 315 102.96)" fill="#1A64AD"/>
<rect x="315" y="121.68" width="9.36" height="9.36" transform="rotate(90 315 121.68)" fill="#1A64AD"/>
<ellipse cx="162" cy="90.18" rx="88.56" ry="38.34" fill="#1A64AD"/>
<path d="M104.558 81.9392H109.332V92.9984H116.957V96.8H104.558V81.9392ZM124.56 85.136C126.561 85.136 128.131 85.6472 129.269 86.6696C130.421 87.6776 130.997 89.1536 130.997 91.0976C130.997 93.0416 130.421 94.5248 129.269 95.5472C128.131 96.5552 126.561 97.0592 124.56 97.0592C122.558 97.0592 120.989 96.5552 119.851 95.5472C118.713 94.5392 118.145 93.056 118.145 91.0976C118.145 89.1392 118.713 87.656 119.851 86.648C120.989 85.64 122.558 85.136 124.56 85.136ZM124.56 88.052C123.149 88.052 122.443 88.8656 122.443 90.4928V91.724C122.443 93.3368 123.149 94.1432 124.56 94.1432C125.985 94.1432 126.698 93.3368 126.698 91.724V90.4928C126.698 88.8656 125.985 88.052 124.56 88.052ZM145.9 83.2568C145.9 84.1352 145.677 84.812 145.231 85.2872C144.799 85.7624 144.144 86.1152 143.265 86.3456C143.683 86.6624 144.007 87.0368 144.237 87.4688C144.482 87.8864 144.604 88.3328 144.604 88.808C144.604 90.0176 144.144 90.932 143.222 91.5512C142.315 92.1704 141.177 92.48 139.809 92.48H138.168C137.26 92.48 136.807 92.6888 136.807 93.1064C136.807 93.308 136.908 93.4736 137.109 93.6032C137.311 93.7184 137.664 93.776 138.168 93.776H142.056C143.323 93.776 144.28 94.1072 144.928 94.7696C145.576 95.432 145.9 96.3176 145.9 97.4264C145.9 98.2472 145.684 98.9528 145.252 99.5432C144.82 100.134 144.237 100.58 143.503 100.882C142.768 101.185 141.969 101.336 141.105 101.336H134.755C134.236 101.336 133.754 101.214 133.308 100.969C132.876 100.724 132.53 100.386 132.271 99.9536C132.012 99.536 131.882 99.068 131.882 98.5496C131.882 97.988 132.055 97.4768 132.4 97.016C132.746 96.5696 133.178 96.2312 133.696 96.0008C133.351 95.756 133.077 95.4608 132.876 95.1152C132.674 94.7696 132.573 94.3952 132.573 93.992C132.573 93.4304 132.782 92.9264 133.2 92.48C133.617 92.0192 134.136 91.7096 134.755 91.5512C134.193 91.1912 133.747 90.7808 133.416 90.32C133.084 89.8448 132.919 89.348 132.919 88.8296C132.919 87.5048 133.452 86.5616 134.517 86C135.597 85.424 137.023 85.136 138.794 85.136C139.572 85.136 140.198 85.1792 140.673 85.2656C141.379 84.8192 141.832 84.416 142.034 84.056C142.25 83.6816 142.358 83.4152 142.358 83.2568H145.9ZM138.751 87.3824C138.276 87.3824 137.887 87.5048 137.584 87.7496C137.282 87.9944 137.131 88.3472 137.131 88.808C137.131 89.2832 137.268 89.6432 137.541 89.888C137.829 90.1184 138.232 90.2336 138.751 90.2336C139.269 90.2336 139.672 90.1184 139.96 89.888C140.263 89.6432 140.414 89.2832 140.414 88.808C140.414 88.3328 140.263 87.98 139.96 87.7496C139.672 87.5048 139.269 87.3824 138.751 87.3824ZM137.088 96.8C136.756 96.8 136.483 96.8864 136.267 97.0592C136.065 97.2464 135.964 97.5056 135.964 97.8368C135.964 98.168 136.072 98.4344 136.288 98.636C136.504 98.8376 136.771 98.9384 137.088 98.9384H140.457C140.774 98.9384 141.04 98.8376 141.256 98.636C141.487 98.4488 141.602 98.1896 141.602 97.8584C141.602 97.5272 141.494 97.268 141.278 97.0808C141.062 96.8936 140.788 96.8 140.457 96.8H137.088ZM153.374 85.136C155.375 85.136 156.945 85.6472 158.083 86.6696C159.235 87.6776 159.811 89.1536 159.811 91.0976C159.811 93.0416 159.235 94.5248 158.083 95.5472C156.945 96.5552 155.375 97.0592 153.374 97.0592C151.372 97.0592 149.803 96.5552 148.665 95.5472C147.527 94.5392 146.959 93.056 146.959 91.0976C146.959 89.1392 147.527 87.656 148.665 86.648C149.803 85.64 151.372 85.136 153.374 85.136ZM153.374 88.052C151.963 88.052 151.257 88.8656 151.257 90.4928V91.724C151.257 93.3368 151.963 94.1432 153.374 94.1432C154.799 94.1432 155.512 93.3368 155.512 91.724V90.4928C155.512 88.8656 154.799 88.052 153.374 88.052ZM179.402 96.8V91.1624H174.153V96.8H169.379V81.9392H174.153V87.3608H179.402V81.9392H184.175V96.8H179.402ZM192.967 85.136C195.055 85.136 196.646 85.6256 197.74 86.6048C198.849 87.584 199.404 89.0816 199.404 91.0976V91.832H190.85C190.85 92.6528 191.03 93.272 191.39 93.6896C191.764 94.1072 192.348 94.316 193.14 94.316C193.86 94.316 194.385 94.1648 194.716 93.8624C195.062 93.56 195.235 93.1568 195.235 92.6528H199.404C199.404 94.0352 198.878 95.1152 197.827 95.8928C196.776 96.6704 195.242 97.0592 193.226 97.0592C191.109 97.0592 189.468 96.5696 188.301 95.5904C187.135 94.5968 186.552 93.0992 186.552 91.0976C186.552 89.1392 187.12 87.656 188.258 86.648C189.396 85.64 190.965 85.136 192.967 85.136ZM193.14 87.8792C191.786 87.8792 191.03 88.52 190.872 89.8016H195.062C195.062 89.2112 194.889 88.7432 194.544 88.3976C194.212 88.052 193.744 87.8792 193.14 87.8792ZM208.411 85.1144C208.742 85.1144 209.037 85.1576 209.296 85.244C209.555 85.316 209.685 85.3592 209.685 85.3736V88.9808H208.303C207.41 88.9808 206.762 89.2112 206.359 89.672C205.97 90.1328 205.775 90.8168 205.775 91.724V96.8H201.477V85.3952H204.998L205.279 87.1232C205.538 86.4608 205.948 85.964 206.51 85.6328C207.071 85.2872 207.705 85.1144 208.411 85.1144ZM217.309 85.136C219.397 85.136 220.988 85.6256 222.083 86.6048C223.191 87.584 223.746 89.0816 223.746 91.0976V91.832H215.192C215.192 92.6528 215.372 93.272 215.732 93.6896C216.107 94.1072 216.69 94.316 217.482 94.316C218.202 94.316 218.727 94.1648 219.059 93.8624C219.404 93.56 219.577 93.1568 219.577 92.6528H223.746C223.746 94.0352 223.22 95.1152 222.169 95.8928C221.118 96.6704 219.584 97.0592 217.568 97.0592C215.451 97.0592 213.81 96.5696 212.643 95.5904C211.477 94.5968 210.894 93.0992 210.894 91.0976C210.894 89.1392 211.463 87.656 212.6 86.648C213.738 85.64 215.307 85.136 217.309 85.136ZM217.482 87.8792C216.128 87.8792 215.372 88.52 215.214 89.8016H219.404C219.404 89.2112 219.231 88.7432 218.886 88.3976C218.555 88.052 218.087 87.8792 217.482 87.8792Z" fill="#FCFBF8"/>
<rect x="174.24" y="161.56" width="9.36" height="9.36" fill="#1A64AD"/>
<rect x="183.6" y="170.64" width="9.36" height="9.36" fill="#1A64AD"/>
<rect x="192.96" y="161.56" width="9.36" height="9.36" fill="#1A64AD"/>
<rect x="211.68" y="161.56" width="9.36" height="9.36" fill="#1A64AD"/>
<rect x="230.4" y="161.56" width="9.36" height="9.36" fill="#1A64AD"/>
<rect x="249.12" y="161.56" width="9.36" height="9.36" fill="#1A64AD"/>
<rect x="267.84" y="161.56" width="9.36" height="9.36" fill="#1A64AD"/>
<rect x="286.56" y="161.56" width="9.36" height="9.36" fill="#1A64AD"/>
<rect x="305.28" y="161.56" width="9.36" height="9.36" fill="#1A64AD"/>
<rect x="202.32" y="170.64" width="9.36" height="9.36" fill="#1A64AD"/>
<rect x="221.04" y="170.64" width="9.36" height="9.36" fill="#1A64AD"/>
<rect x="239.76" y="170.64" width="9.36" height="9.36" fill="#1A64AD"/>
<rect x="258.48" y="170.64" width="9.36" height="9.36" fill="#1A64AD"/>
<rect x="277.2" y="170.64" width="9.36" height="9.36" fill="#1A64AD"/>
<rect x="295.92" y="170.64" width="9.36" height="9.36" fill="#1A64AD"/>
<rect x="314.64" y="170.64" width="9.36" height="9.36" fill="#1A64AD"/>
<rect width="9.36" height="9.36" fill="#1A64AD"/>
<rect x="9.35986" y="9.0802" width="9.36" height="9.36" fill="#1A64AD"/>
<rect x="18.72" width="9.36" height="9.36" fill="#1A64AD"/>
<rect x="37.4399" width="9.36" height="9.36" fill="#1A64AD"/>
<rect x="56.1599" width="9.36" height="9.36" fill="#1A64AD"/>
<rect x="74.8799" width="9.36" height="9.36" fill="#1A64AD"/>
<rect x="93.5999" width="9.36" height="9.36" fill="#1A64AD"/>
<rect x="112.32" width="9.36" height="9.36" fill="#1A64AD"/>
<rect x="131.04" width="9.36" height="9.36" fill="#1A64AD"/>
<rect x="28.0798" y="9.0802" width="9.36" height="9.36" fill="#1A64AD"/>
<rect x="46.7998" y="9.0802" width="9.36" height="9.36" fill="#1A64AD"/>
<rect x="65.52" y="9.0802" width="9.36" height="9.36" fill="#1A64AD"/>
<rect x="84.24" y="9.0802" width="9.36" height="9.36" fill="#1A64AD"/>
<rect x="102.96" y="9.0802" width="9.36" height="9.36" fill="#1A64AD"/>
<rect x="121.68" y="9.0802" width="9.36" height="9.36" fill="#1A64AD"/>
<rect x="140.4" y="9.0802" width="9.36" height="9.36" fill="#1A64AD"/>
<rect x="18.3599" y="48.96" width="9.36" height="9.36" transform="rotate(90 18.3599 48.96)" fill="#1A64AD"/>
<rect x="9.35986" y="58.3199" width="9.36" height="9.36" transform="rotate(90 9.35986 58.3199)" fill="#1A64AD"/>
<rect x="18.3599" y="67.6801" width="9.36" height="9.36" transform="rotate(90 18.3599 67.6801)" fill="#1A64AD"/>
<rect x="18.3599" y="86.4" width="9.36" height="9.36" transform="rotate(90 18.3599 86.4)" fill="#1A64AD"/>
<rect x="18.3599" y="105.12" width="9.36" height="9.36" transform="rotate(90 18.3599 105.12)" fill="#1A64AD"/>
<rect x="18.3599" y="123.84" width="9.36" height="9.36" transform="rotate(90 18.3599 123.84)" fill="#1A64AD"/>
<rect x="18.3599" y="142.56" width="9.36" height="9.36" transform="rotate(90 18.3599 142.56)" fill="#1A64AD"/>
<rect x="18.3599" y="161.28" width="9.36" height="9.36" transform="rotate(90 18.3599 161.28)" fill="#1A64AD"/>
<rect x="9.35986" y="77.04" width="9.36" height="9.36" transform="rotate(90 9.35986 77.04)" fill="#1A64AD"/>
<rect x="9.35986" y="95.76" width="9.36" height="9.36" transform="rotate(90 9.35986 95.76)" fill="#1A64AD"/>
<rect x="9.35986" y="114.48" width="9.36" height="9.36" transform="rotate(90 9.35986 114.48)" fill="#1A64AD"/>
<rect x="9.35986" y="133.2" width="9.36" height="9.36" transform="rotate(90 9.35986 133.2)" fill="#1A64AD"/>
<rect x="9.35986" y="151.92" width="9.36" height="9.36" transform="rotate(90 9.35986 151.92)" fill="#1A64AD"/>
<rect x="9.35986" y="170.64" width="9.36" height="9.36" transform="rotate(90 9.35986 170.64)" fill="#1A64AD"/>
</g>
<defs>
<clipPath id="clip0_1094_65539">
<rect width="324" height="180" fill="white"/>
</clipPath>
</defs>
</svg>
