<svg width="324" height="180" viewBox="0 0 324 180" fill="none" xmlns="http://www.w3.org/2000/svg">
<g clip-path="url(#clip0_1094_65602)">
<rect width="324" height="180" fill="#FF5912"/>
<path d="M28.339 140.682H9.74136L2.25696 183.32H-11.4266L-3.94224 140.682H-22.6154L-20.4986 128.888H30.4558L28.339 140.682ZM42.5736 184.378C32.0904 184.378 26.8488 180.75 26.8488 173.492C26.8488 172.484 26.9496 171.4 27.1512 170.241L28.7388 160.867C29.5956 156.028 31.8132 152.324 35.3916 149.754C39.0204 147.133 43.8084 145.822 49.7556 145.822C59.886 145.822 64.9512 149.653 64.9512 157.314C64.9512 158.422 64.8504 159.632 64.6488 160.942L63.7416 166.31H40.6836L40.3812 168.049C40.2804 168.654 40.23 169.208 40.23 169.712C40.23 172.484 41.868 173.87 45.144 173.87C46.3536 173.87 47.3868 173.492 48.2436 172.736C49.1004 171.98 49.6044 171.098 49.7556 170.09L62.3052 170.241C60.642 179.666 54.0648 184.378 42.5736 184.378ZM51.6456 161.698C51.8472 160.842 51.948 160.06 51.948 159.355C51.948 158.599 51.6204 157.843 50.9652 157.087C50.31 156.331 49.2516 155.953 47.79 155.953C46.3788 155.953 45.0684 156.432 43.8588 157.389C42.6996 158.347 41.8932 159.783 41.4396 161.698H51.6456ZM105.56 183.32H91.4986L86.131 172.812L77.059 183.32H62.9974L79.327 164.722L69.499 146.427H83.7874L88.9282 156.784L97.7734 146.427H112.062L95.6566 164.798L105.56 183.32ZM128.088 184.378C122.241 184.378 118.033 183.068 115.463 180.447C113.547 178.532 112.59 175.962 112.59 172.736C112.59 171.678 112.691 170.544 112.892 169.334L118.033 140.077L131.868 134.331L129.675 146.956H150.541L148.651 157.616H127.785L126.273 166.159C126.072 167.116 125.971 167.973 125.971 168.729C125.971 171.904 127.483 173.492 130.507 173.492C132.12 173.492 133.455 172.812 134.514 171.451C135.623 170.09 136.379 168.276 136.782 166.008H149.331C147.215 178.255 140.133 184.378 128.088 184.378ZM222.895 128.888L213.369 183.32H199.686L203.163 163.664H188.421L185.019 183.32H171.336L180.937 128.888H194.545L190.463 151.87H205.205L209.287 128.888H222.895ZM239.547 184.378C229.064 184.378 223.822 180.75 223.822 173.492C223.822 172.484 223.923 171.4 224.125 170.241L225.712 160.867C226.569 156.028 228.787 152.324 232.365 149.754C235.994 147.133 240.782 145.822 246.729 145.822C256.859 145.822 261.925 149.653 261.925 157.314C261.925 158.422 261.824 159.632 261.622 160.942L260.715 166.31H237.657L237.355 168.049C237.254 168.654 237.203 169.208 237.203 169.712C237.203 172.484 238.841 173.87 242.117 173.87C243.327 173.87 244.36 173.492 245.217 172.736C246.074 171.98 246.578 171.098 246.729 170.09L259.279 170.241C257.615 179.666 251.038 184.378 239.547 184.378ZM248.619 161.698C248.821 160.842 248.921 160.06 248.921 159.355C248.921 158.599 248.594 157.843 247.939 157.087C247.283 156.331 246.225 155.953 244.763 155.953C243.352 155.953 242.042 156.432 240.832 157.389C239.673 158.347 238.867 159.783 238.413 161.698H248.619ZM302.655 154.668C302.655 156.381 302.352 158.044 301.748 159.657C301.193 161.27 300.639 162.454 300.084 163.21L299.253 164.269H287.837C289.097 163.11 289.727 161.673 289.727 159.96C289.727 159.052 289.425 158.322 288.82 157.767C288.266 157.162 287.484 156.86 286.476 156.86C284.763 156.86 283.276 157.717 282.016 159.43L277.782 183.32H264.93L271.356 146.956H283.301L282.394 152.022C285.267 147.939 288.744 145.898 292.827 145.898C296.103 145.898 298.547 146.679 300.16 148.242C301.823 149.804 302.655 151.946 302.655 154.668ZM320.094 184.378C309.61 184.378 304.369 180.75 304.369 173.492C304.369 172.484 304.47 171.4 304.671 170.241L306.259 160.867C307.116 156.028 309.333 152.324 312.912 149.754C316.54 147.133 321.328 145.822 327.276 145.822C337.406 145.822 342.471 149.653 342.471 157.314C342.471 158.422 342.37 159.632 342.169 160.942L341.262 166.31H318.204L317.901 168.049C317.8 168.654 317.75 169.208 317.75 169.712C317.75 172.484 319.388 173.87 322.664 173.87C323.874 173.87 324.907 173.492 325.764 172.736C326.62 171.98 327.124 171.098 327.276 170.09L339.825 170.241C338.162 179.666 331.585 184.378 320.094 184.378ZM329.166 161.698C329.367 160.842 329.468 160.06 329.468 159.355C329.468 158.599 329.14 157.843 328.485 157.087C327.83 156.331 326.772 155.953 325.31 155.953C323.899 155.953 322.588 156.432 321.379 157.389C320.22 158.347 319.413 159.783 318.96 161.698H329.166Z" fill="white"/>
<path d="M214.136 47.3124C214.014 47.3124 213.902 47.262 213.801 47.1612C213.708 47.0532 213.661 46.9344 213.661 46.8048C213.661 46.704 213.661 46.6032 213.661 46.5024C213.668 46.4016 213.693 46.3008 213.736 46.2C213.78 46.0992 213.862 46.0056 213.985 45.9192C214.381 45.6312 214.766 45.3648 215.14 45.12C215.522 44.868 215.875 44.6268 216.199 44.3964C216.53 44.166 216.818 43.9356 217.063 43.7052C217.308 43.4748 217.498 43.2372 217.635 42.9924C217.779 42.7404 217.851 42.4668 217.851 42.1716C217.851 41.8764 217.79 41.6244 217.668 41.4156C217.552 41.1996 217.376 41.034 217.138 40.9188C216.901 40.7964 216.606 40.7352 216.253 40.7352C215.994 40.7352 215.763 40.7748 215.562 40.854C215.36 40.926 215.191 41.034 215.054 41.178C214.917 41.322 214.813 41.4984 214.741 41.7072C214.669 41.916 214.633 42.1536 214.633 42.42C214.633 42.528 214.622 42.618 214.6 42.69C214.586 42.762 214.543 42.816 214.471 42.852C214.406 42.888 214.294 42.906 214.136 42.906C213.978 42.906 213.862 42.8808 213.79 42.8304C213.726 42.78 213.686 42.7116 213.672 42.6252C213.664 42.5388 213.661 42.4416 213.661 42.3336C213.661 41.9592 213.718 41.6172 213.834 41.3076C213.949 40.9908 214.118 40.7172 214.341 40.4868C214.564 40.2564 214.834 40.08 215.151 39.9576C215.468 39.828 215.832 39.7632 216.242 39.7632C216.768 39.7632 217.221 39.8604 217.603 40.0548C217.992 40.2492 218.294 40.5336 218.51 40.908C218.726 41.2752 218.834 41.7288 218.834 42.2688C218.834 42.5136 218.798 42.7476 218.726 42.9708C218.654 43.194 218.546 43.41 218.402 43.6188C218.265 43.8204 218.1 44.0184 217.905 44.2128C217.718 44.4 217.502 44.5872 217.257 44.7744C217.02 44.9616 216.76 45.1524 216.48 45.3468C216.199 45.534 215.904 45.7248 215.594 45.9192L214.914 46.3296H218.672C218.773 46.3296 218.859 46.3404 218.931 46.362C219.003 46.3836 219.057 46.4304 219.093 46.5024C219.136 46.5744 219.158 46.6824 219.158 46.8264C219.158 46.9632 219.136 47.0676 219.093 47.1396C219.05 47.2116 218.992 47.2584 218.92 47.28C218.848 47.3016 218.758 47.3124 218.65 47.3124H214.136ZM222.783 47.4312C222.409 47.4312 222.063 47.3772 221.746 47.2692C221.429 47.154 221.149 46.9992 220.904 46.8048C220.666 46.6032 220.479 46.3764 220.342 46.1244C220.205 45.8724 220.126 45.6096 220.105 45.336C220.105 45.084 220.274 44.958 220.612 44.958C220.735 44.958 220.825 44.9724 220.882 45.0012C220.94 45.03 220.983 45.0804 221.012 45.1524C221.041 45.2172 221.069 45.3108 221.098 45.4332C221.177 45.6492 221.296 45.84 221.455 46.0056C221.613 46.164 221.804 46.29 222.027 46.3836C222.257 46.47 222.513 46.5132 222.794 46.5132C223.132 46.5132 223.427 46.452 223.679 46.3296C223.939 46.2072 224.14 46.0416 224.284 45.8328C224.428 45.6168 224.5 45.3756 224.5 45.1092C224.5 44.85 224.428 44.6196 224.284 44.418C224.147 44.2164 223.957 44.0616 223.712 43.9536C223.474 43.8456 223.201 43.7916 222.891 43.7916C222.769 43.7916 222.664 43.7808 222.578 43.7592C222.491 43.7376 222.427 43.6944 222.383 43.6296C222.347 43.5576 222.329 43.4496 222.329 43.3056C222.329 43.1688 222.347 43.068 222.383 43.0032C222.427 42.9384 222.491 42.8952 222.578 42.8736C222.664 42.852 222.772 42.8412 222.902 42.8412C223.19 42.8412 223.431 42.798 223.625 42.7116C223.827 42.618 223.978 42.4992 224.079 42.3552C224.18 42.204 224.23 42.042 224.23 41.8692C224.23 41.6316 224.173 41.4228 224.057 41.2428C223.949 41.0556 223.791 40.9116 223.582 40.8108C223.381 40.71 223.147 40.6596 222.88 40.6596C222.65 40.6596 222.445 40.692 222.265 40.7568C222.092 40.8144 221.933 40.9008 221.789 41.016C221.653 41.1312 221.523 41.2788 221.401 41.4588C221.3 41.6172 221.203 41.7108 221.109 41.7396C221.015 41.7612 220.882 41.7216 220.709 41.6208C220.594 41.5416 220.519 41.4624 220.483 41.3832C220.454 41.304 220.465 41.2068 220.515 41.0916C220.551 41.0196 220.605 40.9296 220.677 40.8216C220.749 40.7064 220.846 40.5876 220.969 40.4652C221.091 40.3428 221.239 40.2276 221.411 40.1196C221.584 40.0116 221.786 39.9252 222.016 39.8604C222.254 39.7884 222.527 39.7524 222.837 39.7524C223.204 39.7524 223.535 39.81 223.831 39.9252C224.133 40.0332 224.385 40.1844 224.587 40.3788C224.788 40.5732 224.943 40.7964 225.051 41.0484C225.159 41.2932 225.213 41.5524 225.213 41.826C225.213 42.0564 225.166 42.2724 225.073 42.474C224.986 42.6756 224.867 42.8484 224.716 42.9924C224.565 43.1292 224.41 43.2372 224.252 43.3164C224.446 43.3812 224.619 43.482 224.77 43.6188C224.921 43.7484 225.047 43.896 225.148 44.0616C225.256 44.2272 225.335 44.4 225.386 44.58C225.443 44.76 225.472 44.9292 225.472 45.0876C225.472 45.534 225.357 45.9336 225.127 46.2864C224.903 46.6392 224.59 46.92 224.187 47.1288C223.784 47.3304 223.316 47.4312 222.783 47.4312ZM226.724 48.252C226.724 48.252 226.713 48.2484 226.692 48.2412C226.67 48.234 226.649 48.2124 226.627 48.1764C226.605 48.1476 226.595 48.0936 226.595 48.0144C226.595 47.8992 226.609 47.8272 226.638 47.7984C226.674 47.7696 226.699 47.7552 226.713 47.7552C226.713 47.748 226.753 47.712 226.832 47.6472C226.911 47.5896 226.958 47.4816 226.973 47.3232C226.915 47.316 226.865 47.3016 226.821 47.28C226.778 47.2584 226.739 47.2296 226.703 47.1936C226.645 47.1432 226.613 47.0784 226.605 46.9992C226.598 46.9128 226.595 46.8336 226.595 46.7616C226.595 46.668 226.602 46.578 226.616 46.4916C226.631 46.4052 226.677 46.3368 226.757 46.2864C226.836 46.2288 226.973 46.2 227.167 46.2C227.383 46.2 227.534 46.2432 227.621 46.3296C227.671 46.38 227.7 46.4448 227.707 46.524C227.721 46.6032 227.729 46.686 227.729 46.7724C227.729 46.8156 227.729 46.8552 227.729 46.8912C227.729 46.9272 227.721 46.9668 227.707 47.01C227.693 47.226 227.639 47.4276 227.545 47.6148C227.451 47.8092 227.333 47.964 227.189 48.0792C227.045 48.1944 226.89 48.252 226.724 48.252ZM238.417 46.6968C238.475 46.8048 238.504 46.8984 238.504 46.9776C238.511 47.0496 238.489 47.118 238.439 47.1828C238.389 47.2404 238.309 47.2944 238.201 47.3448C238.029 47.424 237.892 47.442 237.791 47.3988C237.697 47.3556 237.611 47.2512 237.532 47.0856L234.832 41.34L232.153 47.0748C232.074 47.2404 231.984 47.3448 231.883 47.388C231.79 47.4312 231.653 47.4132 231.473 47.334C231.365 47.2908 231.286 47.2368 231.235 47.172C231.192 47.1072 231.174 47.028 231.181 46.9344C231.196 46.8408 231.232 46.7328 231.289 46.6104L234.389 40.1412C234.432 40.0548 234.493 39.9864 234.573 39.936C234.659 39.8784 234.749 39.8496 234.843 39.8496C234.907 39.8496 234.969 39.8604 235.026 39.882C235.084 39.9036 235.134 39.936 235.177 39.9792C235.221 40.0224 235.257 40.08 235.285 40.152L238.417 46.6968ZM232.801 45.2388L233.169 44.4072H236.517L236.873 45.2388H232.801ZM241.15 47.388C240.826 47.388 240.517 47.3232 240.222 47.1936C239.926 47.064 239.667 46.8804 239.444 46.6428C239.228 46.4052 239.055 46.128 238.926 45.8112C238.803 45.4872 238.742 45.1344 238.742 44.7528C238.742 44.3784 238.803 44.0328 238.926 43.716C239.055 43.3992 239.228 43.1256 239.444 42.8952C239.667 42.6576 239.926 42.474 240.222 42.3444C240.517 42.2148 240.826 42.15 241.15 42.15C241.503 42.15 241.82 42.2148 242.101 42.3444C242.389 42.474 242.634 42.6576 242.835 42.8952C243.044 43.1256 243.202 43.4028 243.31 43.7268C243.418 44.0436 243.472 44.3892 243.472 44.7636C243.48 45.1452 243.426 45.4944 243.31 45.8112C243.202 46.128 243.048 46.4052 242.846 46.6428C242.644 46.8804 242.4 47.064 242.112 47.1936C241.831 47.3232 241.51 47.388 241.15 47.388ZM241.291 46.47C241.593 46.47 241.863 46.398 242.101 46.254C242.346 46.11 242.536 45.912 242.673 45.66C242.817 45.4008 242.889 45.1056 242.889 44.7744C242.889 44.436 242.817 44.1408 242.673 43.8888C242.536 43.6296 242.346 43.428 242.101 43.284C241.863 43.14 241.593 43.068 241.291 43.068C240.988 43.068 240.715 43.14 240.47 43.284C240.225 43.428 240.031 43.6296 239.887 43.8888C239.75 44.1408 239.682 44.436 239.682 44.7744C239.682 45.1056 239.75 45.4008 239.887 45.66C240.031 45.912 240.225 46.11 240.47 46.254C240.722 46.398 240.996 46.47 241.291 46.47ZM243.408 47.388C243.249 47.388 243.134 47.3592 243.062 47.3016C242.99 47.244 242.947 47.1468 242.932 47.01V40.2492C242.932 40.1412 242.94 40.0512 242.954 39.9792C242.976 39.9072 243.019 39.8532 243.084 39.8172C243.156 39.774 243.26 39.7524 243.397 39.7524C243.534 39.7524 243.634 39.774 243.699 39.8172C243.771 39.8532 243.818 39.9072 243.84 39.9792C243.861 40.0512 243.872 40.1376 243.872 40.2384V46.8912C243.872 46.992 243.861 47.082 243.84 47.1612C243.818 47.2332 243.775 47.2872 243.71 47.3232C243.645 47.3664 243.544 47.388 243.408 47.388ZM247.479 47.388C247.155 47.388 246.845 47.3232 246.55 47.1936C246.255 47.064 245.995 46.8804 245.772 46.6428C245.556 46.4052 245.383 46.128 245.254 45.8112C245.131 45.4872 245.07 45.1344 245.07 44.7528C245.07 44.3784 245.131 44.0328 245.254 43.716C245.383 43.3992 245.556 43.1256 245.772 42.8952C245.995 42.6576 246.255 42.474 246.55 42.3444C246.845 42.2148 247.155 42.15 247.479 42.15C247.831 42.15 248.148 42.2148 248.429 42.3444C248.717 42.474 248.962 42.6576 249.163 42.8952C249.372 43.1256 249.531 43.4028 249.639 43.7268C249.747 44.0436 249.801 44.3892 249.801 44.7636C249.808 45.1452 249.754 45.4944 249.639 45.8112C249.531 46.128 249.376 46.4052 249.174 46.6428C248.973 46.8804 248.728 47.064 248.44 47.1936C248.159 47.3232 247.839 47.388 247.479 47.388ZM247.619 46.47C247.921 46.47 248.191 46.398 248.429 46.254C248.674 46.11 248.865 45.912 249.001 45.66C249.145 45.4008 249.217 45.1056 249.217 44.7744C249.217 44.436 249.145 44.1408 249.001 43.8888C248.865 43.6296 248.674 43.428 248.429 43.284C248.191 43.14 247.921 43.068 247.619 43.068C247.317 43.068 247.043 43.14 246.798 43.284C246.553 43.428 246.359 43.6296 246.215 43.8888C246.078 44.1408 246.01 44.436 246.01 44.7744C246.01 45.1056 246.078 45.4008 246.215 45.66C246.359 45.912 246.553 46.11 246.798 46.254C247.05 46.398 247.324 46.47 247.619 46.47ZM249.736 47.388C249.577 47.388 249.462 47.3592 249.39 47.3016C249.318 47.244 249.275 47.1468 249.261 47.01V40.2492C249.261 40.1412 249.268 40.0512 249.282 39.9792C249.304 39.9072 249.347 39.8532 249.412 39.8172C249.484 39.774 249.588 39.7524 249.725 39.7524C249.862 39.7524 249.963 39.774 250.027 39.8172C250.099 39.8532 250.146 39.9072 250.168 39.9792C250.189 40.0512 250.2 40.1376 250.2 40.2384V46.8912C250.2 46.992 250.189 47.082 250.168 47.1612C250.146 47.2332 250.103 47.2872 250.038 47.3232C249.973 47.3664 249.873 47.388 249.736 47.388ZM252.025 47.388C251.888 47.388 251.783 47.3664 251.711 47.3232C251.647 47.2872 251.603 47.2332 251.582 47.1612C251.567 47.082 251.56 46.992 251.56 46.8912V42.636C251.56 42.528 251.571 42.438 251.593 42.366C251.614 42.294 251.657 42.2436 251.722 42.2148C251.787 42.1788 251.891 42.1608 252.035 42.1608C252.165 42.1608 252.262 42.1788 252.327 42.2148C252.399 42.2436 252.446 42.2904 252.467 42.3552C252.496 42.4128 252.511 42.4812 252.511 42.5604L252.467 42.8844C252.518 42.7908 252.575 42.6972 252.64 42.6036C252.712 42.51 252.799 42.4272 252.899 42.3552C253.007 42.276 253.133 42.2112 253.277 42.1608C253.429 42.1104 253.612 42.0852 253.828 42.0852C253.936 42.0852 254.037 42.096 254.131 42.1176C254.231 42.132 254.325 42.1572 254.411 42.1932C254.505 42.2292 254.584 42.2724 254.649 42.3228C254.714 42.366 254.764 42.4164 254.8 42.474C254.843 42.5244 254.865 42.5856 254.865 42.6576C254.865 42.816 254.815 42.9528 254.714 43.068C254.613 43.176 254.509 43.23 254.401 43.23C254.307 43.23 254.239 43.2192 254.195 43.1976C254.152 43.1688 254.109 43.14 254.066 43.1112C254.03 43.0824 253.976 43.0572 253.904 43.0356C253.832 43.0068 253.717 42.9924 253.558 42.9924C253.45 42.9924 253.335 43.014 253.213 43.0572C253.097 43.1004 252.986 43.1652 252.878 43.2516C252.77 43.3308 252.68 43.4352 252.608 43.5648C252.543 43.6944 252.511 43.8456 252.511 44.0184V46.9128C252.511 47.0136 252.5 47.1 252.478 47.172C252.457 47.244 252.41 47.298 252.338 47.334C252.273 47.37 252.169 47.388 252.025 47.388ZM258.072 47.442C257.64 47.442 257.255 47.37 256.917 47.226C256.578 47.082 256.29 46.8876 256.053 46.6428C255.822 46.3908 255.646 46.1028 255.524 45.7788C255.401 45.4548 255.34 45.1056 255.34 44.7312C255.34 44.2344 255.455 43.7916 255.686 43.4028C255.916 43.014 256.233 42.708 256.636 42.4848C257.046 42.2544 257.514 42.1392 258.04 42.1392C258.4 42.1392 258.72 42.1968 259.001 42.312C259.289 42.42 259.534 42.5676 259.736 42.7548C259.937 42.942 260.092 43.1508 260.2 43.3812C260.308 43.6116 260.362 43.842 260.362 44.0724C260.362 44.4396 260.276 44.6988 260.103 44.85C259.93 44.994 259.718 45.066 259.466 45.066H256.344C256.337 45.3828 256.42 45.6564 256.593 45.8868C256.773 46.11 256.996 46.2828 257.262 46.4052C257.536 46.5276 257.81 46.5888 258.083 46.5888C258.285 46.5888 258.458 46.578 258.602 46.5564C258.746 46.5348 258.872 46.506 258.98 46.47C259.088 46.434 259.181 46.398 259.26 46.362C259.34 46.326 259.408 46.29 259.466 46.254C259.53 46.218 259.592 46.1928 259.649 46.1784C259.714 46.164 259.775 46.1712 259.833 46.2C259.898 46.2216 259.948 46.2684 259.984 46.3404C260.027 46.398 260.056 46.452 260.07 46.5024C260.085 46.5528 260.092 46.6068 260.092 46.6644C260.092 46.7652 260.006 46.8768 259.833 46.9992C259.66 47.1216 259.419 47.226 259.109 47.3124C258.807 47.3988 258.461 47.442 258.072 47.442ZM256.344 44.4288H259.055C259.192 44.4288 259.293 44.4108 259.358 44.3748C259.43 44.3388 259.466 44.2416 259.466 44.0832C259.466 43.8816 259.404 43.7016 259.282 43.5432C259.16 43.3776 258.99 43.2444 258.774 43.1436C258.566 43.0428 258.324 42.9924 258.051 42.9924C257.734 42.9924 257.442 43.0572 257.176 43.1868C256.917 43.3092 256.712 43.4784 256.56 43.6944C256.409 43.9104 256.337 44.1552 256.344 44.4288ZM263.181 47.442C263.008 47.442 262.828 47.424 262.641 47.388C262.454 47.352 262.27 47.3016 262.09 47.2368C261.918 47.1648 261.763 47.082 261.626 46.9884C261.496 46.8948 261.399 46.7904 261.334 46.6752C261.298 46.6032 261.277 46.5384 261.27 46.4808C261.262 46.416 261.273 46.3548 261.302 46.2972C261.331 46.2396 261.374 46.182 261.432 46.1244C261.504 46.038 261.576 45.9984 261.648 46.0056C261.72 46.0056 261.81 46.0524 261.918 46.146C261.997 46.1964 262.09 46.254 262.198 46.3188C262.306 46.3764 262.418 46.4304 262.533 46.4808C262.648 46.524 262.764 46.5636 262.879 46.5996C263.001 46.6284 263.12 46.6428 263.235 46.6428C263.566 46.6428 263.833 46.5816 264.034 46.4592C264.236 46.3296 264.337 46.1604 264.337 45.9516C264.337 45.8292 264.312 45.7248 264.261 45.6384C264.211 45.552 264.142 45.48 264.056 45.4224C263.97 45.3576 263.872 45.3036 263.764 45.2604C263.656 45.2172 263.534 45.1776 263.397 45.1416C263.268 45.0984 263.138 45.0588 263.008 45.0228C262.814 44.9724 262.623 44.9148 262.436 44.85C262.249 44.7852 262.08 44.7024 261.928 44.6016C261.777 44.4936 261.655 44.3604 261.561 44.202C261.468 44.0364 261.421 43.8276 261.421 43.5756C261.421 43.2804 261.496 43.0248 261.648 42.8088C261.799 42.5928 262.011 42.4272 262.285 42.312C262.558 42.1896 262.879 42.1284 263.246 42.1284C263.404 42.1284 263.552 42.1392 263.689 42.1608C263.826 42.1824 263.955 42.2184 264.078 42.2688C264.207 42.312 264.33 42.366 264.445 42.4308C264.56 42.4884 264.672 42.5604 264.78 42.6468C264.909 42.7332 264.978 42.8268 264.985 42.9276C264.992 43.0284 264.952 43.1328 264.866 43.2408C264.801 43.3344 264.729 43.3956 264.65 43.4244C264.571 43.446 264.492 43.4244 264.412 43.3596C264.297 43.2732 264.175 43.1976 264.045 43.1328C263.916 43.068 263.782 43.014 263.646 42.9708C263.509 42.9276 263.368 42.906 263.224 42.906C263.044 42.906 262.882 42.9348 262.738 42.9924C262.602 43.0428 262.494 43.122 262.414 43.23C262.342 43.3308 262.306 43.446 262.306 43.5756C262.306 43.6908 262.335 43.7844 262.393 43.8564C262.458 43.9284 262.537 43.9896 262.63 44.04C262.731 44.0904 262.846 44.1372 262.976 44.1804C263.113 44.2164 263.253 44.2524 263.397 44.2884C263.606 44.3388 263.818 44.4 264.034 44.472C264.258 44.5368 264.456 44.6268 264.628 44.742C264.808 44.85 264.952 44.9976 265.06 45.1848C265.176 45.3648 265.233 45.606 265.233 45.9084C265.233 46.3836 265.046 46.758 264.672 47.0316C264.297 47.3052 263.8 47.442 263.181 47.442ZM267.98 47.442C267.807 47.442 267.627 47.424 267.44 47.388C267.253 47.352 267.069 47.3016 266.889 47.2368C266.716 47.1648 266.562 47.082 266.425 46.9884C266.295 46.8948 266.198 46.7904 266.133 46.6752C266.097 46.6032 266.076 46.5384 266.068 46.4808C266.061 46.416 266.072 46.3548 266.101 46.2972C266.13 46.2396 266.173 46.182 266.23 46.1244C266.302 46.038 266.374 45.9984 266.446 46.0056C266.518 46.0056 266.608 46.0524 266.716 46.146C266.796 46.1964 266.889 46.254 266.997 46.3188C267.105 46.3764 267.217 46.4304 267.332 46.4808C267.447 46.524 267.562 46.5636 267.678 46.5996C267.8 46.6284 267.919 46.6428 268.034 46.6428C268.365 46.6428 268.632 46.5816 268.833 46.4592C269.035 46.3296 269.136 46.1604 269.136 45.9516C269.136 45.8292 269.11 45.7248 269.06 45.6384C269.01 45.552 268.941 45.48 268.855 45.4224C268.768 45.3576 268.671 45.3036 268.563 45.2604C268.455 45.2172 268.333 45.1776 268.196 45.1416C268.066 45.0984 267.937 45.0588 267.807 45.0228C267.613 44.9724 267.422 44.9148 267.235 44.85C267.048 44.7852 266.878 44.7024 266.727 44.6016C266.576 44.4936 266.454 44.3604 266.36 44.202C266.266 44.0364 266.22 43.8276 266.22 43.5756C266.22 43.2804 266.295 43.0248 266.446 42.8088C266.598 42.5928 266.81 42.4272 267.084 42.312C267.357 42.1896 267.678 42.1284 268.045 42.1284C268.203 42.1284 268.351 42.1392 268.488 42.1608C268.624 42.1824 268.754 42.2184 268.876 42.2688C269.006 42.312 269.128 42.366 269.244 42.4308C269.359 42.4884 269.47 42.5604 269.578 42.6468C269.708 42.7332 269.776 42.8268 269.784 42.9276C269.791 43.0284 269.751 43.1328 269.665 43.2408C269.6 43.3344 269.528 43.3956 269.449 43.4244C269.37 43.446 269.29 43.4244 269.211 43.3596C269.096 43.2732 268.974 43.1976 268.844 43.1328C268.714 43.068 268.581 43.014 268.444 42.9708C268.308 42.9276 268.167 42.906 268.023 42.906C267.843 42.906 267.681 42.9348 267.537 42.9924C267.4 43.0428 267.292 43.122 267.213 43.23C267.141 43.3308 267.105 43.446 267.105 43.5756C267.105 43.6908 267.134 43.7844 267.192 43.8564C267.256 43.9284 267.336 43.9896 267.429 44.04C267.53 44.0904 267.645 44.1372 267.775 44.1804C267.912 44.2164 268.052 44.2524 268.196 44.2884C268.405 44.3388 268.617 44.4 268.833 44.472C269.056 44.5368 269.254 44.6268 269.427 44.742C269.607 44.85 269.751 44.9976 269.859 45.1848C269.974 45.3648 270.032 45.606 270.032 45.9084C270.032 46.3836 269.845 46.758 269.47 47.0316C269.096 47.3052 268.599 47.442 267.98 47.442ZM279.394 47.388C279.258 47.388 279.153 47.3664 279.081 47.3232C279.016 47.2872 278.973 47.2332 278.952 47.1612C278.93 47.082 278.919 46.992 278.919 46.8912V40.3356C278.919 40.2348 278.93 40.1484 278.952 40.0764C278.973 40.0044 279.02 39.9504 279.092 39.9144C279.164 39.8712 279.268 39.8496 279.405 39.8496C279.549 39.8496 279.654 39.8712 279.718 39.9144C279.79 39.9504 279.837 40.0044 279.859 40.0764C279.88 40.1484 279.891 40.2384 279.891 40.3464V46.902C279.891 47.0028 279.877 47.0892 279.848 47.1612C279.826 47.2332 279.78 47.2872 279.708 47.3232C279.643 47.3664 279.538 47.388 279.394 47.388ZM274.534 47.388C274.39 47.388 274.282 47.3664 274.21 47.3232C274.146 47.2872 274.102 47.2332 274.081 47.1612C274.059 47.082 274.048 46.992 274.048 46.8912V40.3356C274.048 40.2348 274.059 40.1484 274.081 40.0764C274.11 40.0044 274.156 39.9504 274.221 39.9144C274.293 39.8712 274.401 39.8496 274.545 39.8496C274.682 39.8496 274.783 39.8712 274.848 39.9144C274.92 39.9504 274.966 40.0044 274.988 40.0764C275.01 40.1484 275.02 40.2384 275.02 40.3464V46.902C275.02 47.0028 275.01 47.0892 274.988 47.1612C274.966 47.2332 274.92 47.2872 274.848 47.3232C274.776 47.3664 274.671 47.388 274.534 47.388ZM274.578 43.9752V43.068H279.092L279.081 43.9752H274.578ZM283.817 47.442C283.385 47.442 283 47.37 282.662 47.226C282.323 47.082 282.035 46.8876 281.798 46.6428C281.567 46.3908 281.391 46.1028 281.269 45.7788C281.146 45.4548 281.085 45.1056 281.085 44.7312C281.085 44.2344 281.2 43.7916 281.431 43.4028C281.661 43.014 281.978 42.708 282.381 42.4848C282.791 42.2544 283.259 42.1392 283.785 42.1392C284.145 42.1392 284.465 42.1968 284.746 42.312C285.034 42.42 285.279 42.5676 285.481 42.7548C285.682 42.942 285.837 43.1508 285.945 43.3812C286.053 43.6116 286.107 43.842 286.107 44.0724C286.107 44.4396 286.021 44.6988 285.848 44.85C285.675 44.994 285.463 45.066 285.211 45.066H282.089C282.082 45.3828 282.165 45.6564 282.338 45.8868C282.518 46.11 282.741 46.2828 283.007 46.4052C283.281 46.5276 283.555 46.5888 283.828 46.5888C284.03 46.5888 284.203 46.578 284.347 46.5564C284.491 46.5348 284.617 46.506 284.725 46.47C284.833 46.434 284.926 46.398 285.005 46.362C285.085 46.326 285.153 46.29 285.211 46.254C285.275 46.218 285.337 46.1928 285.394 46.1784C285.459 46.164 285.52 46.1712 285.578 46.2C285.643 46.2216 285.693 46.2684 285.729 46.3404C285.772 46.398 285.801 46.452 285.815 46.5024C285.83 46.5528 285.837 46.6068 285.837 46.6644C285.837 46.7652 285.751 46.8768 285.578 46.9992C285.405 47.1216 285.164 47.226 284.854 47.3124C284.552 47.3988 284.206 47.442 283.817 47.442ZM282.089 44.4288H284.8C284.937 44.4288 285.038 44.4108 285.103 44.3748C285.175 44.3388 285.211 44.2416 285.211 44.0832C285.211 43.8816 285.149 43.7016 285.027 43.5432C284.905 43.3776 284.735 43.2444 284.519 43.1436C284.311 43.0428 284.069 42.9924 283.796 42.9924C283.479 42.9924 283.187 43.0572 282.921 43.1868C282.662 43.3092 282.457 43.4784 282.305 43.6944C282.154 43.9104 282.082 44.1552 282.089 44.4288ZM287.663 47.388C287.526 47.388 287.421 47.3664 287.349 47.3232C287.285 47.2872 287.241 47.2332 287.22 47.1612C287.205 47.082 287.198 46.992 287.198 46.8912V42.636C287.198 42.528 287.209 42.438 287.231 42.366C287.252 42.294 287.295 42.2436 287.36 42.2148C287.425 42.1788 287.529 42.1608 287.673 42.1608C287.803 42.1608 287.9 42.1788 287.965 42.2148C288.037 42.2436 288.084 42.2904 288.105 42.3552C288.134 42.4128 288.149 42.4812 288.149 42.5604L288.105 42.8844C288.156 42.7908 288.213 42.6972 288.278 42.6036C288.35 42.51 288.437 42.4272 288.537 42.3552C288.645 42.276 288.771 42.2112 288.915 42.1608C289.067 42.1104 289.25 42.0852 289.466 42.0852C289.574 42.0852 289.675 42.096 289.769 42.1176C289.869 42.132 289.963 42.1572 290.049 42.1932C290.143 42.2292 290.222 42.2724 290.287 42.3228C290.352 42.366 290.402 42.4164 290.438 42.474C290.481 42.5244 290.503 42.5856 290.503 42.6576C290.503 42.816 290.453 42.9528 290.352 43.068C290.251 43.176 290.147 43.23 290.039 43.23C289.945 43.23 289.877 43.2192 289.833 43.1976C289.79 43.1688 289.747 43.14 289.704 43.1112C289.668 43.0824 289.614 43.0572 289.542 43.0356C289.47 43.0068 289.355 42.9924 289.196 42.9924C289.088 42.9924 288.973 43.014 288.851 43.0572C288.735 43.1004 288.624 43.1652 288.516 43.2516C288.408 43.3308 288.318 43.4352 288.246 43.5648C288.181 43.6944 288.149 43.8456 288.149 44.0184V46.9128C288.149 47.0136 288.138 47.1 288.116 47.172C288.095 47.244 288.048 47.298 287.976 47.334C287.911 47.37 287.807 47.388 287.663 47.388ZM293.71 47.442C293.278 47.442 292.893 47.37 292.555 47.226C292.216 47.082 291.928 46.8876 291.691 46.6428C291.46 46.3908 291.284 46.1028 291.161 45.7788C291.039 45.4548 290.978 45.1056 290.978 44.7312C290.978 44.2344 291.093 43.7916 291.323 43.4028C291.554 43.014 291.871 42.708 292.274 42.4848C292.684 42.2544 293.152 42.1392 293.678 42.1392C294.038 42.1392 294.358 42.1968 294.639 42.312C294.927 42.42 295.172 42.5676 295.373 42.7548C295.575 42.942 295.73 43.1508 295.838 43.3812C295.946 43.6116 296 43.842 296 44.0724C296 44.4396 295.913 44.6988 295.741 44.85C295.568 44.994 295.355 45.066 295.103 45.066H291.982C291.975 45.3828 292.058 45.6564 292.231 45.8868C292.411 46.11 292.634 46.2828 292.9 46.4052C293.174 46.5276 293.447 46.5888 293.721 46.5888C293.923 46.5888 294.095 46.578 294.239 46.5564C294.383 46.5348 294.509 46.506 294.617 46.47C294.725 46.434 294.819 46.398 294.898 46.362C294.977 46.326 295.046 46.29 295.103 46.254C295.168 46.218 295.229 46.1928 295.287 46.1784C295.352 46.164 295.413 46.1712 295.471 46.2C295.535 46.2216 295.586 46.2684 295.622 46.3404C295.665 46.398 295.694 46.452 295.708 46.5024C295.723 46.5528 295.73 46.6068 295.73 46.6644C295.73 46.7652 295.643 46.8768 295.471 46.9992C295.298 47.1216 295.057 47.226 294.747 47.3124C294.445 47.3988 294.099 47.442 293.71 47.442ZM291.982 44.4288H294.693C294.83 44.4288 294.931 44.4108 294.995 44.3748C295.067 44.3388 295.103 44.2416 295.103 44.0832C295.103 43.8816 295.042 43.7016 294.92 43.5432C294.797 43.3776 294.628 43.2444 294.412 43.1436C294.203 43.0428 293.962 42.9924 293.689 42.9924C293.372 42.9924 293.08 43.0572 292.814 43.1868C292.555 43.3092 292.349 43.4784 292.198 43.6944C292.047 43.9104 291.975 44.1552 291.982 44.4288ZM252.479 63.388C252.35 63.388 252.242 63.3664 252.155 63.3232C252.076 63.2872 252.015 63.2224 251.972 63.1288L249.239 56.4544C249.167 56.2816 249.153 56.1592 249.196 56.0872C249.247 56.0152 249.351 55.9396 249.509 55.8604C249.61 55.81 249.697 55.7848 249.769 55.7848C249.848 55.7776 249.916 55.7992 249.974 55.8496C250.039 55.8928 250.093 55.9684 250.136 56.0764L252.479 62.0272L254.812 56.1736C254.855 56.0584 254.902 55.9684 254.953 55.9036C255.01 55.8316 255.082 55.792 255.169 55.7848C255.255 55.7704 255.363 55.7992 255.493 55.8712C255.694 55.9648 255.795 56.0692 255.795 56.1844C255.795 56.2924 255.766 56.4148 255.709 56.5516L252.987 63.118C252.951 63.2044 252.89 63.2692 252.803 63.3124C252.717 63.3628 252.609 63.388 252.479 63.388ZM262.053 62.6968C262.11 62.8048 262.139 62.8984 262.139 62.9776C262.146 63.0496 262.125 63.118 262.074 63.1828C262.024 63.2404 261.945 63.2944 261.837 63.3448C261.664 63.424 261.527 63.442 261.426 63.3988C261.333 63.3556 261.246 63.2512 261.167 63.0856L258.467 57.34L255.789 63.0748C255.71 63.2404 255.62 63.3448 255.519 63.388C255.425 63.4312 255.288 63.4132 255.108 63.334C255 63.2908 254.921 63.2368 254.871 63.172C254.828 63.1072 254.81 63.028 254.817 62.9344C254.831 62.8408 254.867 62.7328 254.925 62.6104L258.024 56.1412C258.068 56.0548 258.129 55.9864 258.208 55.936C258.294 55.8784 258.384 55.8496 258.478 55.8496C258.543 55.8496 258.604 55.8604 258.662 55.882C258.719 55.9036 258.77 55.936 258.813 55.9792C258.856 56.0224 258.892 56.08 258.921 56.152L262.053 62.6968ZM256.437 61.2388L256.804 60.4072H260.152L260.508 61.2388H256.437ZM265.995 63.3124C265.873 63.3124 265.761 63.262 265.66 63.1612C265.567 63.0532 265.52 62.9344 265.52 62.8048C265.52 62.704 265.52 62.6032 265.52 62.5024C265.527 62.4016 265.552 62.3008 265.595 62.2C265.639 62.0992 265.721 62.0056 265.844 61.9192C266.24 61.6312 266.625 61.3648 266.999 61.12C267.381 60.868 267.734 60.6268 268.058 60.3964C268.389 60.166 268.677 59.9356 268.922 59.7052C269.167 59.4748 269.357 59.2372 269.494 58.9924C269.638 58.7404 269.71 58.4668 269.71 58.1716C269.71 57.8764 269.649 57.6244 269.527 57.4156C269.411 57.1996 269.235 57.034 268.997 56.9188C268.76 56.7964 268.465 56.7352 268.112 56.7352C267.853 56.7352 267.622 56.7748 267.421 56.854C267.219 56.926 267.05 57.034 266.913 57.178C266.776 57.322 266.672 57.4984 266.6 57.7072C266.528 57.916 266.492 58.1536 266.492 58.42C266.492 58.528 266.481 58.618 266.459 58.69C266.445 58.762 266.402 58.816 266.33 58.852C266.265 58.888 266.153 58.906 265.995 58.906C265.837 58.906 265.721 58.8808 265.649 58.8304C265.585 58.78 265.545 58.7116 265.531 58.6252C265.523 58.5388 265.52 58.4416 265.52 58.3336C265.52 57.9592 265.577 57.6172 265.693 57.3076C265.808 56.9908 265.977 56.7172 266.2 56.4868C266.423 56.2564 266.693 56.08 267.01 55.9576C267.327 55.828 267.691 55.7632 268.101 55.7632C268.627 55.7632 269.08 55.8604 269.462 56.0548C269.851 56.2492 270.153 56.5336 270.369 56.908C270.585 57.2752 270.693 57.7288 270.693 58.2688C270.693 58.5136 270.657 58.7476 270.585 58.9708C270.513 59.194 270.405 59.41 270.261 59.6188C270.124 59.8204 269.959 60.0184 269.764 60.2128C269.577 60.4 269.361 60.5872 269.116 60.7744C268.879 60.9616 268.619 61.1524 268.339 61.3468C268.058 61.534 267.763 61.7248 267.453 61.9192L266.773 62.3296H270.531C270.632 62.3296 270.718 62.3404 270.79 62.362C270.862 62.3836 270.916 62.4304 270.952 62.5024C270.995 62.5744 271.017 62.6824 271.017 62.8264C271.017 62.9632 270.995 63.0676 270.952 63.1396C270.909 63.2116 270.851 63.2584 270.779 63.28C270.707 63.3016 270.617 63.3124 270.509 63.3124H265.995ZM272.45 63.3124C272.327 63.3124 272.216 63.262 272.115 63.1612C272.021 63.0532 271.974 62.9344 271.974 62.8048C271.974 62.704 271.974 62.6032 271.974 62.5024C271.982 62.4016 272.007 62.3008 272.05 62.2C272.093 62.0992 272.176 62.0056 272.298 61.9192C272.694 61.6312 273.08 61.3648 273.454 61.12C273.836 60.868 274.188 60.6268 274.512 60.3964C274.844 60.166 275.132 59.9356 275.376 59.7052C275.621 59.4748 275.812 59.2372 275.949 58.9924C276.093 58.7404 276.165 58.4668 276.165 58.1716C276.165 57.8764 276.104 57.6244 275.981 57.4156C275.866 57.1996 275.69 57.034 275.452 56.9188C275.214 56.7964 274.919 56.7352 274.566 56.7352C274.307 56.7352 274.077 56.7748 273.875 56.854C273.674 56.926 273.504 57.034 273.368 57.178C273.231 57.322 273.126 57.4984 273.054 57.7072C272.982 57.916 272.946 58.1536 272.946 58.42C272.946 58.528 272.936 58.618 272.914 58.69C272.9 58.762 272.856 58.816 272.784 58.852C272.72 58.888 272.608 58.906 272.45 58.906C272.291 58.906 272.176 58.8808 272.104 58.8304C272.039 58.78 272 58.7116 271.985 58.6252C271.978 58.5388 271.974 58.4416 271.974 58.3336C271.974 57.9592 272.032 57.6172 272.147 57.3076C272.262 56.9908 272.432 56.7172 272.655 56.4868C272.878 56.2564 273.148 56.08 273.465 55.9576C273.782 55.828 274.145 55.7632 274.556 55.7632C275.081 55.7632 275.535 55.8604 275.916 56.0548C276.305 56.2492 276.608 56.5336 276.824 56.908C277.04 57.2752 277.148 57.7288 277.148 58.2688C277.148 58.5136 277.112 58.7476 277.04 58.9708C276.968 59.194 276.86 59.41 276.716 59.6188C276.579 59.8204 276.413 60.0184 276.219 60.2128C276.032 60.4 275.816 60.5872 275.571 60.7744C275.333 60.9616 275.074 61.1524 274.793 61.3468C274.512 61.534 274.217 61.7248 273.908 61.9192L273.227 62.3296H276.986C277.086 62.3296 277.173 62.3404 277.245 62.362C277.317 62.3836 277.371 62.4304 277.407 62.5024C277.45 62.5744 277.472 62.6824 277.472 62.8264C277.472 62.9632 277.45 63.0676 277.407 63.1396C277.364 63.2116 277.306 63.2584 277.234 63.28C277.162 63.3016 277.072 63.3124 276.964 63.3124H272.45ZM280.902 63.4204C280.384 63.4204 279.938 63.3088 279.563 63.0856C279.196 62.8552 278.912 62.5204 278.71 62.0812C278.516 61.6348 278.418 61.0876 278.418 60.4396C278.418 59.878 278.48 59.3596 278.602 58.8844C278.732 58.4092 278.915 57.9844 279.153 57.61C279.398 57.2284 279.689 56.9044 280.028 56.638C280.366 56.3644 280.748 56.1592 281.172 56.0224C281.604 55.8784 282.069 55.8064 282.566 55.8064C282.659 55.8064 282.735 55.8208 282.792 55.8496C282.857 55.8712 282.908 55.918 282.944 55.99C282.98 56.0548 282.998 56.1592 282.998 56.3032C282.998 56.44 282.976 56.5444 282.933 56.6164C282.897 56.6812 282.843 56.7244 282.771 56.746C282.699 56.7676 282.612 56.7784 282.512 56.7784C282.137 56.7784 281.795 56.8252 281.486 56.9188C281.176 57.0124 280.895 57.1492 280.643 57.3292C280.398 57.502 280.186 57.7108 280.006 57.9556C279.833 58.2004 279.7 58.4704 279.606 58.7656C279.52 59.0608 279.473 59.3776 279.466 59.716L279.293 59.8564C279.358 59.6836 279.47 59.5216 279.628 59.3704C279.794 59.2192 279.992 59.1004 280.222 59.014C280.46 58.9276 280.719 58.8844 281 58.8844C281.453 58.8844 281.846 58.9816 282.177 59.176C282.515 59.3632 282.774 59.6224 282.954 59.9536C283.142 60.2776 283.235 60.652 283.235 61.0768C283.235 61.5376 283.142 61.9444 282.954 62.2972C282.767 62.65 282.497 62.9272 282.144 63.1288C281.799 63.3232 281.385 63.4204 280.902 63.4204ZM280.859 62.524C281.169 62.524 281.428 62.4664 281.637 62.3512C281.853 62.236 282.015 62.074 282.123 61.8652C282.238 61.6564 282.296 61.4152 282.296 61.1416C282.296 60.8752 282.242 60.6412 282.134 60.4396C282.026 60.2308 281.871 60.0688 281.669 59.9536C281.468 59.8384 281.223 59.7808 280.935 59.7808C280.632 59.7808 280.366 59.8384 280.136 59.9536C279.912 60.0616 279.743 60.2164 279.628 60.418C279.513 60.6196 279.455 60.85 279.455 61.1092C279.455 61.3972 279.509 61.6456 279.617 61.8544C279.725 62.0632 279.884 62.2288 280.092 62.3512C280.308 62.4664 280.564 62.524 280.859 62.524ZM286.887 63.4312C286.513 63.4312 286.167 63.3772 285.85 63.2692C285.533 63.154 285.253 62.9992 285.008 62.8048C284.77 62.6032 284.583 62.3764 284.446 62.1244C284.309 61.8724 284.23 61.6096 284.209 61.336C284.209 61.084 284.378 60.958 284.716 60.958C284.839 60.958 284.929 60.9724 284.986 61.0012C285.044 61.03 285.087 61.0804 285.116 61.1524C285.145 61.2172 285.173 61.3108 285.202 61.4332C285.281 61.6492 285.4 61.84 285.559 62.0056C285.717 62.164 285.908 62.29 286.131 62.3836C286.361 62.47 286.617 62.5132 286.898 62.5132C287.236 62.5132 287.531 62.452 287.783 62.3296C288.043 62.2072 288.244 62.0416 288.388 61.8328C288.532 61.6168 288.604 61.3756 288.604 61.1092C288.604 60.85 288.532 60.6196 288.388 60.418C288.251 60.2164 288.061 60.0616 287.816 59.9536C287.578 59.8456 287.305 59.7916 286.995 59.7916C286.873 59.7916 286.768 59.7808 286.682 59.7592C286.595 59.7376 286.531 59.6944 286.487 59.6296C286.451 59.5576 286.433 59.4496 286.433 59.3056C286.433 59.1688 286.451 59.068 286.487 59.0032C286.531 58.9384 286.595 58.8952 286.682 58.8736C286.768 58.852 286.876 58.8412 287.006 58.8412C287.294 58.8412 287.535 58.798 287.729 58.7116C287.931 58.618 288.082 58.4992 288.183 58.3552C288.284 58.204 288.334 58.042 288.334 57.8692C288.334 57.6316 288.277 57.4228 288.161 57.2428C288.053 57.0556 287.895 56.9116 287.686 56.8108C287.485 56.71 287.251 56.6596 286.984 56.6596C286.754 56.6596 286.549 56.692 286.369 56.7568C286.196 56.8144 286.037 56.9008 285.893 57.016C285.757 57.1312 285.627 57.2788 285.505 57.4588C285.404 57.6172 285.307 57.7108 285.213 57.7396C285.119 57.7612 284.986 57.7216 284.813 57.6208C284.698 57.5416 284.623 57.4624 284.587 57.3832C284.558 57.304 284.569 57.2068 284.619 57.0916C284.655 57.0196 284.709 56.9296 284.781 56.8216C284.853 56.7064 284.95 56.5876 285.073 56.4652C285.195 56.3428 285.343 56.2276 285.515 56.1196C285.688 56.0116 285.89 55.9252 286.12 55.8604C286.358 55.7884 286.631 55.7524 286.941 55.7524C287.308 55.7524 287.639 55.81 287.935 55.9252C288.237 56.0332 288.489 56.1844 288.691 56.3788C288.892 56.5732 289.047 56.7964 289.155 57.0484C289.263 57.2932 289.317 57.5524 289.317 57.826C289.317 58.0564 289.27 58.2724 289.177 58.474C289.09 58.6756 288.971 58.8484 288.82 58.9924C288.669 59.1292 288.514 59.2372 288.356 59.3164C288.55 59.3812 288.723 59.482 288.874 59.6188C289.025 59.7484 289.151 59.896 289.252 60.0616C289.36 60.2272 289.439 60.4 289.49 60.58C289.547 60.76 289.576 60.9292 289.576 61.0876C289.576 61.534 289.461 61.9336 289.231 62.2864C289.007 62.6392 288.694 62.92 288.291 63.1288C287.888 63.3304 287.42 63.4312 286.887 63.4312ZM293.269 63.442C292.887 63.442 292.545 63.3808 292.243 63.2584C291.948 63.136 291.692 62.9632 291.476 62.74C291.26 62.5096 291.084 62.236 290.947 61.9192C290.81 61.5952 290.709 61.2388 290.644 60.85C290.58 60.4612 290.547 60.0436 290.547 59.5972C290.547 59.1652 290.58 58.7584 290.644 58.3768C290.709 57.988 290.81 57.6352 290.947 57.3184C291.084 57.0016 291.256 56.728 291.465 56.4976C291.681 56.26 291.937 56.08 292.232 55.9576C292.534 55.828 292.873 55.7632 293.247 55.7632C293.622 55.7632 293.953 55.828 294.241 55.9576C294.536 56.08 294.788 56.26 294.997 56.4976C295.206 56.728 295.378 57.0016 295.515 57.3184C295.652 57.6352 295.753 57.988 295.818 58.3768C295.882 58.7656 295.915 59.176 295.915 59.608C295.915 60.0472 295.882 60.4612 295.818 60.85C295.753 61.2388 295.652 61.5916 295.515 61.9084C295.378 62.2252 295.206 62.4988 294.997 62.7292C294.788 62.9596 294.54 63.136 294.252 63.2584C293.971 63.3808 293.643 63.442 293.269 63.442ZM293.226 62.4592C293.564 62.4592 293.841 62.3872 294.057 62.2432C294.273 62.092 294.442 61.9012 294.565 61.6708C294.687 61.4404 294.774 61.1992 294.824 60.9472C294.882 60.688 294.914 60.4432 294.921 60.2128C294.936 59.9824 294.943 59.7988 294.943 59.662V59.5972C294.943 58.9924 294.878 58.4776 294.748 58.0528C294.626 57.6208 294.439 57.2932 294.187 57.07C293.935 56.8468 293.618 56.7352 293.236 56.7352C292.855 56.7352 292.534 56.8468 292.275 57.07C292.023 57.2932 291.832 57.6172 291.703 58.042C291.58 58.4668 291.519 58.9888 291.519 59.608C291.519 60.2128 291.58 60.7276 291.703 61.1524C291.832 61.5772 292.023 61.9012 292.275 62.1244C292.534 62.3476 292.851 62.4592 293.226 62.4592ZM220.091 81.0512C219.781 81.0512 219.497 80.9648 219.238 80.792C218.979 80.6264 218.748 80.3888 218.547 80.0792C218.352 79.7768 218.183 79.4204 218.039 79.01C217.902 78.5924 217.798 78.1316 217.726 77.6276C217.654 77.1236 217.618 76.598 217.618 76.0508C217.618 75.4964 217.654 74.9672 217.726 74.4632C217.798 73.9592 217.902 73.4984 218.039 73.0808C218.176 72.656 218.345 72.2924 218.547 71.99C218.748 71.6804 218.979 71.4392 219.238 71.2664C219.497 71.0936 219.785 71.0072 220.102 71.0072C220.195 71.0072 220.275 71.0216 220.339 71.0504C220.404 71.072 220.451 71.1152 220.48 71.18C220.516 71.2376 220.534 71.324 220.534 71.4392C220.534 71.5616 220.519 71.6552 220.491 71.72C220.462 71.7776 220.419 71.8172 220.361 71.8388C220.303 71.8604 220.231 71.8712 220.145 71.8712H220.091C219.81 71.8712 219.555 72.0368 219.324 72.368C219.094 72.692 218.91 73.1636 218.773 73.7828C218.637 74.3948 218.568 75.1436 218.568 76.0292C218.568 76.6556 218.604 77.2244 218.676 77.7356C218.755 78.2468 218.863 78.686 219 79.0532C219.137 79.4132 219.299 79.6904 219.486 79.8848C219.673 80.0864 219.879 80.1872 220.102 80.1872C220.195 80.1872 220.275 80.198 220.339 80.2196C220.404 80.2412 220.451 80.2808 220.48 80.3384C220.516 80.4032 220.534 80.5004 220.534 80.63C220.534 80.7452 220.516 80.8316 220.48 80.8892C220.451 80.954 220.401 80.9972 220.329 81.0188C220.264 81.0404 220.185 81.0512 220.091 81.0512ZM224.313 79.442C223.932 79.442 223.59 79.3808 223.287 79.2584C222.992 79.136 222.737 78.9632 222.521 78.74C222.305 78.5096 222.128 78.236 221.991 77.9192C221.855 77.5952 221.754 77.2388 221.689 76.85C221.624 76.4612 221.592 76.0436 221.592 75.5972C221.592 75.1652 221.624 74.7584 221.689 74.3768C221.754 73.988 221.855 73.6352 221.991 73.3184C222.128 73.0016 222.301 72.728 222.51 72.4976C222.726 72.26 222.981 72.08 223.277 71.9576C223.579 71.828 223.917 71.7632 224.292 71.7632C224.666 71.7632 224.997 71.828 225.285 71.9576C225.581 72.08 225.833 72.26 226.041 72.4976C226.25 72.728 226.423 73.0016 226.56 73.3184C226.697 73.6352 226.797 73.988 226.862 74.3768C226.927 74.7656 226.959 75.176 226.959 75.608C226.959 76.0472 226.927 76.4612 226.862 76.85C226.797 77.2388 226.697 77.5916 226.56 77.9084C226.423 78.2252 226.25 78.4988 226.041 78.7292C225.833 78.9596 225.584 79.136 225.296 79.2584C225.015 79.3808 224.688 79.442 224.313 79.442ZM224.27 78.4592C224.609 78.4592 224.886 78.3872 225.102 78.2432C225.318 78.092 225.487 77.9012 225.609 77.6708C225.732 77.4404 225.818 77.1992 225.869 76.9472C225.926 76.688 225.959 76.4432 225.966 76.2128C225.98 75.9824 225.987 75.7988 225.987 75.662V75.5972C225.987 74.9924 225.923 74.4776 225.793 74.0528C225.671 73.6208 225.483 73.2932 225.231 73.07C224.979 72.8468 224.663 72.7352 224.281 72.7352C223.899 72.7352 223.579 72.8468 223.32 73.07C223.068 73.2932 222.877 73.6172 222.747 74.042C222.625 74.4668 222.564 74.9888 222.564 75.608C222.564 76.2128 222.625 76.7276 222.747 77.1524C222.877 77.5772 223.068 77.9012 223.32 78.1244C223.579 78.3476 223.896 78.4592 224.27 78.4592ZM230.674 79.3988C230.494 79.3988 230.368 79.3592 230.296 79.28C230.231 79.208 230.198 79.0856 230.198 78.9128V72.3248C230.198 72.1448 230.234 72.0224 230.306 71.9576C230.378 71.8856 230.504 71.8496 230.684 71.8496C230.857 71.8496 230.976 71.8892 231.041 71.9684C231.113 72.0404 231.149 72.1664 231.149 72.3464V78.9236C231.149 79.0964 231.113 79.2188 231.041 79.2908C230.976 79.3628 230.854 79.3988 230.674 79.3988ZM228.73 74.5604C228.593 74.6756 228.478 74.7332 228.384 74.7332C228.29 74.726 228.186 74.6576 228.071 74.528C227.956 74.3984 227.902 74.2832 227.909 74.1824C227.916 74.0744 227.992 73.9592 228.136 73.8368L230.22 72.0224C230.342 71.9072 230.454 71.8568 230.555 71.8712C230.656 71.8784 230.764 71.9432 230.879 72.0656C230.994 72.188 231.048 72.3032 231.041 72.4112C231.034 72.512 230.954 72.6272 230.803 72.7568L228.73 74.5604ZM232.646 79.3124C232.523 79.3124 232.412 79.262 232.311 79.1612C232.217 79.0532 232.171 78.9344 232.171 78.8048C232.171 78.704 232.171 78.6032 232.171 78.5024C232.178 78.4016 232.203 78.3008 232.246 78.2C232.289 78.0992 232.372 78.0056 232.495 77.9192C232.891 77.6312 233.276 77.3648 233.65 77.12C234.032 76.868 234.385 76.6268 234.709 76.3964C235.04 76.166 235.328 75.9356 235.573 75.7052C235.817 75.4748 236.008 75.2372 236.145 74.9924C236.289 74.7404 236.361 74.4668 236.361 74.1716C236.361 73.8764 236.3 73.6244 236.177 73.4156C236.062 73.1996 235.886 73.034 235.648 72.9188C235.411 72.7964 235.115 72.7352 234.763 72.7352C234.503 72.7352 234.273 72.7748 234.071 72.854C233.87 72.926 233.701 73.034 233.564 73.178C233.427 73.322 233.323 73.4984 233.251 73.7072C233.179 73.916 233.143 74.1536 233.143 74.42C233.143 74.528 233.132 74.618 233.11 74.69C233.096 74.762 233.053 74.816 232.981 74.852C232.916 74.888 232.804 74.906 232.646 74.906C232.487 74.906 232.372 74.8808 232.3 74.8304C232.235 74.78 232.196 74.7116 232.181 74.6252C232.174 74.5388 232.171 74.4416 232.171 74.3336C232.171 73.9592 232.228 73.6172 232.343 73.3076C232.459 72.9908 232.628 72.7172 232.851 72.4868C233.074 72.2564 233.344 72.08 233.661 71.9576C233.978 71.828 234.341 71.7632 234.752 71.7632C235.277 71.7632 235.731 71.8604 236.113 72.0548C236.501 72.2492 236.804 72.5336 237.02 72.908C237.236 73.2752 237.344 73.7288 237.344 74.2688C237.344 74.5136 237.308 74.7476 237.236 74.9708C237.164 75.194 237.056 75.41 236.912 75.6188C236.775 75.8204 236.609 76.0184 236.415 76.2128C236.228 76.4 236.012 76.5872 235.767 76.7744C235.529 76.9616 235.27 77.1524 234.989 77.3468C234.709 77.534 234.413 77.7248 234.104 77.9192L233.423 78.3296H237.182C237.283 78.3296 237.369 78.3404 237.441 78.362C237.513 78.3836 237.567 78.4304 237.603 78.5024C237.646 78.5744 237.668 78.6824 237.668 78.8264C237.668 78.9632 237.646 79.0676 237.603 79.1396C237.56 79.2116 237.502 79.2584 237.43 79.28C237.358 79.3016 237.268 79.3124 237.16 79.3124H232.646ZM239.122 81.0512C239.028 81.0512 238.949 81.0404 238.884 81.0188C238.82 80.9972 238.769 80.954 238.733 80.8892C238.697 80.8316 238.679 80.7452 238.679 80.63C238.679 80.5004 238.694 80.4032 238.722 80.3384C238.758 80.2808 238.809 80.2412 238.874 80.2196C238.946 80.198 239.025 80.1872 239.111 80.1872C239.342 80.1872 239.55 80.0864 239.738 79.8848C239.925 79.6904 240.087 79.4132 240.224 79.0532C240.36 78.686 240.465 78.2468 240.537 77.7356C240.609 77.2244 240.645 76.6556 240.645 76.0292C240.645 75.1436 240.576 74.3948 240.44 73.7828C240.31 73.1636 240.13 72.692 239.9 72.368C239.669 72.0368 239.41 71.8712 239.122 71.8712H239.068C238.989 71.8712 238.917 71.8604 238.852 71.8388C238.794 71.8172 238.751 71.7776 238.722 71.72C238.694 71.6552 238.679 71.5616 238.679 71.4392C238.679 71.324 238.694 71.2376 238.722 71.18C238.758 71.1152 238.809 71.072 238.874 71.0504C238.946 71.0216 239.025 71.0072 239.111 71.0072C239.428 71.0072 239.716 71.0936 239.975 71.2664C240.242 71.4392 240.472 71.6804 240.666 71.99C240.868 72.2924 241.037 72.656 241.174 73.0808C241.311 73.4984 241.415 73.9592 241.487 74.4632C241.559 74.9672 241.595 75.4964 241.595 76.0508C241.595 76.598 241.559 77.1236 241.487 77.6276C241.415 78.1316 241.311 78.5924 241.174 79.01C241.037 79.4204 240.868 79.7768 240.666 80.0792C240.465 80.3888 240.234 80.6264 239.975 80.792C239.716 80.9648 239.432 81.0512 239.122 81.0512ZM248.106 79.4312C247.732 79.4312 247.386 79.3772 247.069 79.2692C246.753 79.154 246.472 78.9992 246.227 78.8048C245.989 78.6032 245.802 78.3764 245.665 78.1244C245.529 77.8724 245.449 77.6096 245.428 77.336C245.428 77.084 245.597 76.958 245.935 76.958C246.058 76.958 246.148 76.9724 246.205 77.0012C246.263 77.03 246.306 77.0804 246.335 77.1524C246.364 77.2172 246.393 77.3108 246.421 77.4332C246.501 77.6492 246.619 77.84 246.778 78.0056C246.936 78.164 247.127 78.29 247.35 78.3836C247.581 78.47 247.836 78.5132 248.117 78.5132C248.455 78.5132 248.751 78.452 249.003 78.3296C249.262 78.2072 249.463 78.0416 249.607 77.8328C249.751 77.6168 249.823 77.3756 249.823 77.1092C249.823 76.85 249.751 76.6196 249.607 76.418C249.471 76.2164 249.28 76.0616 249.035 75.9536C248.797 75.8456 248.524 75.7916 248.214 75.7916C248.092 75.7916 247.987 75.7808 247.901 75.7592C247.815 75.7376 247.75 75.6944 247.707 75.6296C247.671 75.5576 247.653 75.4496 247.653 75.3056C247.653 75.1688 247.671 75.068 247.707 75.0032C247.75 74.9384 247.815 74.8952 247.901 74.8736C247.987 74.852 248.095 74.8412 248.225 74.8412C248.513 74.8412 248.754 74.798 248.949 74.7116C249.15 74.618 249.301 74.4992 249.402 74.3552C249.503 74.204 249.553 74.042 249.553 73.8692C249.553 73.6316 249.496 73.4228 249.381 73.2428C249.273 73.0556 249.114 72.9116 248.905 72.8108C248.704 72.71 248.47 72.6596 248.203 72.6596C247.973 72.6596 247.768 72.692 247.588 72.7568C247.415 72.8144 247.257 72.9008 247.113 73.016C246.976 73.1312 246.846 73.2788 246.724 73.4588C246.623 73.6172 246.526 73.7108 246.432 73.7396C246.339 73.7612 246.205 73.7216 246.033 73.6208C245.917 73.5416 245.842 73.4624 245.806 73.3832C245.777 73.304 245.788 73.2068 245.838 73.0916C245.874 73.0196 245.928 72.9296 246 72.8216C246.072 72.7064 246.169 72.5876 246.292 72.4652C246.414 72.3428 246.562 72.2276 246.735 72.1196C246.907 72.0116 247.109 71.9252 247.339 71.8604C247.577 71.7884 247.851 71.7524 248.16 71.7524C248.527 71.7524 248.859 71.81 249.154 71.9252C249.456 72.0332 249.708 72.1844 249.91 72.3788C250.111 72.5732 250.266 72.7964 250.374 73.0484C250.482 73.2932 250.536 73.5524 250.536 73.826C250.536 74.0564 250.489 74.2724 250.396 74.474C250.309 74.6756 250.191 74.8484 250.039 74.9924C249.888 75.1292 249.733 75.2372 249.575 75.3164C249.769 75.3812 249.942 75.482 250.093 75.6188C250.245 75.7484 250.371 75.896 250.471 76.0616C250.579 76.2272 250.659 76.4 250.709 76.58C250.767 76.76 250.795 76.9292 250.795 77.0876C250.795 77.534 250.68 77.9336 250.45 78.2864C250.227 78.6392 249.913 78.92 249.51 79.1288C249.107 79.3304 248.639 79.4312 248.106 79.4312ZM256.14 79.388C255.996 79.388 255.888 79.3664 255.816 79.3232C255.752 79.2872 255.708 79.2332 255.687 79.1612C255.665 79.082 255.654 78.9956 255.654 78.902V77.0012H252.231C252.094 77.0012 251.99 76.9796 251.918 76.9364C251.846 76.8932 251.799 76.8356 251.777 76.7636C251.756 76.6844 251.745 76.598 251.745 76.5044C251.745 76.4612 251.745 76.4216 251.745 76.3856C251.752 76.3424 251.763 76.3028 251.777 76.2668L252.954 72.206C253.012 71.99 253.08 71.864 253.16 71.828C253.246 71.7848 253.372 71.7812 253.538 71.8172C253.696 71.846 253.811 71.9036 253.883 71.99C253.955 72.0692 253.97 72.1736 253.926 72.3032L252.836 76.094H255.654V72.2708C255.654 72.1844 255.665 72.1124 255.687 72.0548C255.716 71.99 255.766 71.9396 255.838 71.9036C255.91 71.8676 256.018 71.8496 256.162 71.8496C256.299 71.8496 256.4 71.8712 256.464 71.9144C256.536 71.9504 256.583 72.0044 256.605 72.0764C256.626 72.1484 256.637 72.2348 256.637 72.3356V78.9128C256.637 79.0136 256.623 79.1 256.594 79.172C256.572 79.244 256.526 79.298 256.454 79.334C256.389 79.37 256.284 79.388 256.14 79.388ZM259.887 79.442C259.635 79.442 259.409 79.4204 259.207 79.3772C259.013 79.3412 258.833 79.2908 258.667 79.226C258.509 79.1612 258.361 79.0892 258.224 79.01C258.095 78.9308 257.976 78.8516 257.868 78.7724C257.796 78.7076 257.735 78.65 257.684 78.5996C257.641 78.5492 257.619 78.488 257.619 78.416C257.619 78.3656 257.63 78.3116 257.652 78.254C257.681 78.1964 257.727 78.128 257.792 78.0488C257.857 77.9624 257.918 77.9048 257.976 77.876C258.041 77.84 258.098 77.822 258.149 77.822C258.192 77.822 258.242 77.8328 258.3 77.8544C258.357 77.876 258.433 77.93 258.527 78.0164C258.613 78.0812 258.707 78.1496 258.807 78.2216C258.915 78.2936 259.049 78.3512 259.207 78.3944C259.365 78.4376 259.567 78.4592 259.812 78.4592C260.1 78.4592 260.352 78.4016 260.568 78.2864C260.791 78.1712 260.964 78.0056 261.086 77.7896C261.209 77.5736 261.27 77.318 261.27 77.0228C261.27 76.7348 261.205 76.4828 261.075 76.2668C260.953 76.0508 260.784 75.8816 260.568 75.7592C260.352 75.6296 260.114 75.5648 259.855 75.5648C259.725 75.5648 259.603 75.5792 259.488 75.608C259.373 75.6368 259.265 75.68 259.164 75.7376C259.07 75.788 258.987 75.8492 258.915 75.9212C258.865 75.9716 258.818 76.0112 258.775 76.04C258.739 76.0616 258.692 76.0796 258.635 76.094C258.57 76.1156 258.505 76.1228 258.44 76.1156C258.375 76.1012 258.285 76.0724 258.17 76.0292C258.041 75.9716 257.947 75.9176 257.889 75.8672C257.832 75.8168 257.803 75.7448 257.803 75.6512L258.267 72.3464C258.282 72.2672 258.3 72.1916 258.321 72.1196C258.343 72.0404 258.386 71.9756 258.451 71.9252C258.523 71.8676 258.624 71.8388 258.753 71.8388L261.561 71.8496C261.655 71.8496 261.734 71.8604 261.799 71.882C261.871 71.9036 261.925 71.9504 261.961 72.0224C261.997 72.0944 262.015 72.2024 262.015 72.3464C262.015 72.476 261.997 72.5732 261.961 72.638C261.925 72.7028 261.875 72.746 261.81 72.7676C261.745 72.7892 261.666 72.8 261.572 72.8H259.185L258.883 74.9276C258.969 74.8556 259.067 74.798 259.175 74.7548C259.29 74.7116 259.405 74.6756 259.52 74.6468C259.635 74.618 259.747 74.6036 259.855 74.6036H259.931C260.24 74.6036 260.532 74.6648 260.805 74.7872C261.086 74.9096 261.331 75.0788 261.54 75.2948C261.756 75.5108 261.929 75.7592 262.058 76.04C262.188 76.3208 262.253 76.6196 262.253 76.9364C262.253 77.426 262.148 77.858 261.939 78.2324C261.731 78.6068 261.446 78.902 261.086 79.118C260.733 79.334 260.334 79.442 259.887 79.442ZM265.995 76.9796C265.909 76.9796 265.83 76.9688 265.758 76.9472C265.693 76.9256 265.639 76.8824 265.596 76.8176C265.56 76.7528 265.542 76.652 265.542 76.5152C265.542 76.3784 265.56 76.2776 265.596 76.2128C265.639 76.148 265.693 76.1048 265.758 76.0832C265.822 76.0616 265.898 76.0508 265.984 76.0508H268.814C268.9 76.0508 268.976 76.0616 269.041 76.0832C269.106 76.1048 269.156 76.148 269.192 76.2128C269.228 76.2776 269.246 76.3784 269.246 76.5152C269.246 76.652 269.228 76.7528 269.192 76.8176C269.156 76.8824 269.102 76.9256 269.03 76.9472C268.965 76.9688 268.886 76.9796 268.792 76.9796H265.995ZM275.777 79.4204C275.258 79.4204 274.812 79.3088 274.437 79.0856C274.07 78.8552 273.786 78.5204 273.584 78.0812C273.39 77.6348 273.293 77.0876 273.293 76.4396C273.293 75.878 273.354 75.3596 273.476 74.8844C273.606 74.4092 273.789 73.9844 274.027 73.61C274.272 73.2284 274.563 72.9044 274.902 72.638C275.24 72.3644 275.622 72.1592 276.047 72.0224C276.479 71.8784 276.943 71.8064 277.44 71.8064C277.533 71.8064 277.609 71.8208 277.667 71.8496C277.731 71.8712 277.782 71.918 277.818 71.99C277.854 72.0548 277.872 72.1592 277.872 72.3032C277.872 72.44 277.85 72.5444 277.807 72.6164C277.771 72.6812 277.717 72.7244 277.645 72.746C277.573 72.7676 277.487 72.7784 277.386 72.7784C277.011 72.7784 276.669 72.8252 276.36 72.9188C276.05 73.0124 275.769 73.1492 275.517 73.3292C275.273 73.502 275.06 73.7108 274.88 73.9556C274.707 74.2004 274.574 74.4704 274.481 74.7656C274.394 75.0608 274.347 75.3776 274.34 75.716L274.167 75.8564C274.232 75.6836 274.344 75.5216 274.502 75.3704C274.668 75.2192 274.866 75.1004 275.096 75.014C275.334 74.9276 275.593 74.8844 275.874 74.8844C276.327 74.8844 276.72 74.9816 277.051 75.176C277.389 75.3632 277.649 75.6224 277.829 75.9536C278.016 76.2776 278.109 76.652 278.109 77.0768C278.109 77.5376 278.016 77.9444 277.829 78.2972C277.641 78.65 277.371 78.9272 277.019 79.1288C276.673 79.3232 276.259 79.4204 275.777 79.4204ZM275.733 78.524C276.043 78.524 276.302 78.4664 276.511 78.3512C276.727 78.236 276.889 78.074 276.997 77.8652C277.112 77.6564 277.17 77.4152 277.17 77.1416C277.17 76.8752 277.116 76.6412 277.008 76.4396C276.9 76.2308 276.745 76.0688 276.543 75.9536C276.342 75.8384 276.097 75.7808 275.809 75.7808C275.507 75.7808 275.24 75.8384 275.01 75.9536C274.787 76.0616 274.617 76.2164 274.502 76.418C274.387 76.6196 274.329 76.85 274.329 77.1092C274.329 77.3972 274.383 77.6456 274.491 77.8544C274.599 78.0632 274.758 78.2288 274.967 78.3512C275.183 78.4664 275.438 78.524 275.733 78.524ZM280.746 79.388C280.609 79.388 280.505 79.3736 280.433 79.3448C280.361 79.3232 280.314 79.2872 280.292 79.2368C280.271 79.1864 280.26 79.1216 280.26 79.0424C280.26 78.6104 280.325 78.182 280.454 77.7572C280.591 77.3324 280.768 76.922 280.984 76.526C281.207 76.1228 281.437 75.7376 281.675 75.3704C281.912 75.0032 282.136 74.6612 282.344 74.3444C282.56 74.0276 282.73 73.7396 282.852 73.4804C282.982 73.2212 283.036 72.998 283.014 72.8108H279.536C279.436 72.8108 279.349 72.8 279.277 72.7784C279.205 72.7568 279.151 72.71 279.115 72.638C279.079 72.566 279.061 72.4616 279.061 72.3248C279.061 72.1808 279.076 72.0764 279.104 72.0116C279.14 71.9468 279.191 71.9036 279.256 71.882C279.32 71.8604 279.392 71.8496 279.472 71.8496H283.64C283.777 71.8496 283.878 71.8748 283.943 71.9252C284.015 71.9756 284.062 72.044 284.083 72.1304C284.105 72.2168 284.116 72.314 284.116 72.422C284.116 72.7388 284.047 73.0664 283.91 73.4048C283.774 73.736 283.594 74.078 283.37 74.4308C283.154 74.7836 282.92 75.1472 282.668 75.5216C282.424 75.896 282.193 76.2776 281.977 76.6664C281.761 77.048 281.585 77.4404 281.448 77.8436C281.311 78.2396 281.243 78.6464 281.243 79.064C281.243 79.136 281.228 79.1972 281.2 79.2476C281.178 79.2908 281.131 79.3232 281.059 79.3448C280.987 79.3736 280.883 79.388 280.746 79.388ZM287.633 79.442C287.129 79.442 286.683 79.3484 286.294 79.1612C285.912 78.9668 285.61 78.7004 285.387 78.362C285.171 78.0164 285.063 77.6168 285.063 77.1632C285.063 76.9832 285.088 76.8068 285.138 76.634C285.189 76.4612 285.254 76.3028 285.333 76.1588C285.412 76.0076 285.502 75.8744 285.603 75.7592C285.704 75.644 285.804 75.5504 285.905 75.4784C286.013 75.3992 286.11 75.3416 286.197 75.3056C286.11 75.2696 286.017 75.2048 285.916 75.1112C285.815 75.0104 285.718 74.8916 285.624 74.7548C285.531 74.618 285.455 74.4668 285.398 74.3012C285.34 74.1356 285.311 73.9592 285.311 73.772C285.311 73.3688 285.408 73.016 285.603 72.7136C285.804 72.404 286.078 72.1628 286.424 71.99C286.776 71.81 287.18 71.72 287.633 71.72C288.072 71.72 288.461 71.81 288.8 71.99C289.138 72.1628 289.401 72.404 289.588 72.7136C289.782 73.0232 289.88 73.3796 289.88 73.7828C289.88 73.9268 289.862 74.0672 289.826 74.204C289.79 74.3336 289.743 74.4596 289.685 74.582C289.628 74.6972 289.559 74.8052 289.48 74.906C289.408 74.9996 289.332 75.0824 289.253 75.1544C289.181 75.2264 289.109 75.2768 289.037 75.3056C289.124 75.3416 289.217 75.3992 289.318 75.4784C289.419 75.5576 289.516 75.6548 289.61 75.77C289.703 75.8852 289.79 76.0184 289.869 76.1696C289.955 76.3136 290.02 76.472 290.063 76.6448C290.106 76.8104 290.128 76.9832 290.128 77.1632C290.128 77.5088 290.063 77.822 289.934 78.1028C289.811 78.3836 289.635 78.6248 289.404 78.8264C289.181 79.0208 288.915 79.172 288.605 79.28C288.303 79.388 287.979 79.442 287.633 79.442ZM287.612 78.578C287.921 78.578 288.191 78.5204 288.422 78.4052C288.659 78.2828 288.839 78.1172 288.962 77.9084C289.091 77.6996 289.156 77.4548 289.156 77.174C289.156 76.886 289.091 76.6376 288.962 76.4288C288.839 76.22 288.659 76.058 288.422 75.9428C288.184 75.8204 287.907 75.7592 287.59 75.7592C287.28 75.7592 287.007 75.8204 286.769 75.9428C286.539 76.058 286.359 76.22 286.229 76.4288C286.1 76.6376 286.035 76.886 286.035 77.174C286.035 77.4548 286.1 77.6996 286.229 77.9084C286.359 78.1172 286.542 78.2828 286.78 78.4052C287.018 78.5204 287.295 78.578 287.612 78.578ZM287.612 74.96C287.878 74.96 288.105 74.9132 288.292 74.8196C288.486 74.7188 288.638 74.5784 288.746 74.3984C288.854 74.2184 288.908 74.0096 288.908 73.772C288.908 73.5344 288.854 73.3292 288.746 73.1564C288.638 72.9836 288.486 72.8504 288.292 72.7568C288.098 72.6632 287.867 72.6164 287.601 72.6164C287.342 72.6164 287.115 72.6632 286.92 72.7568C286.726 72.8504 286.575 72.9836 286.467 73.1564C286.359 73.3292 286.305 73.5344 286.305 73.772C286.305 74.0096 286.359 74.2184 286.467 74.3984C286.575 74.5784 286.726 74.7188 286.92 74.8196C287.122 74.9132 287.352 74.96 287.612 74.96ZM291.765 79.3772C291.679 79.3772 291.603 79.3628 291.538 79.334C291.474 79.3124 291.423 79.2692 291.387 79.2044C291.351 79.1324 291.333 79.028 291.333 78.8912C291.333 78.7472 291.351 78.6428 291.387 78.578C291.43 78.506 291.488 78.4592 291.56 78.4376C291.632 78.416 291.718 78.4052 291.819 78.4052C292.194 78.4052 292.536 78.3584 292.845 78.2648C293.155 78.1712 293.432 78.038 293.677 77.8652C293.929 77.6852 294.141 77.4764 294.314 77.2388C294.494 76.994 294.627 76.724 294.714 76.4288C294.807 76.1264 294.858 75.8096 294.865 75.4784L295.038 75.3272C294.973 75.5 294.861 75.662 294.703 75.8132C294.544 75.9572 294.346 76.0724 294.109 76.1588C293.878 76.2452 293.619 76.2884 293.331 76.2884C292.885 76.2884 292.492 76.1948 292.154 76.0076C291.816 75.8204 291.553 75.5612 291.366 75.23C291.186 74.8988 291.096 74.5244 291.096 74.1068C291.096 73.646 291.189 73.2392 291.376 72.8864C291.571 72.5336 291.841 72.26 292.186 72.0656C292.539 71.864 292.953 71.7632 293.428 71.7632C293.947 71.7632 294.39 71.8784 294.757 72.1088C295.131 72.3392 295.416 72.674 295.61 73.1132C295.812 73.5524 295.912 74.096 295.912 74.744C295.912 75.3056 295.848 75.824 295.718 76.2992C295.596 76.7744 295.412 77.2028 295.167 77.5844C294.93 77.9588 294.642 78.2828 294.303 78.5564C293.965 78.8228 293.58 79.028 293.148 79.172C292.723 79.3088 292.262 79.3772 291.765 79.3772ZM293.396 75.4028C293.713 75.4028 293.979 75.3488 294.195 75.2408C294.418 75.1256 294.588 74.9672 294.703 74.7656C294.825 74.564 294.886 74.3336 294.886 74.0744C294.886 73.7864 294.829 73.538 294.714 73.3292C294.606 73.1204 294.447 72.9584 294.238 72.8432C294.03 72.7208 293.774 72.6596 293.472 72.6596C293.162 72.6596 292.899 72.7172 292.683 72.8324C292.474 72.9476 292.312 73.1096 292.197 73.3184C292.089 73.52 292.035 73.7612 292.035 74.042C292.035 74.3084 292.089 74.546 292.197 74.7548C292.305 74.9564 292.46 75.1148 292.662 75.23C292.87 75.3452 293.115 75.4028 293.396 75.4028Z" fill="white"/>
<path d="M24.6239 47.54C24.4199 47.54 24.2579 47.504 24.1379 47.432C24.0299 47.36 23.9519 47.264 23.9039 47.144C23.8679 47.012 23.8499 46.862 23.8499 46.694V35.732C23.8499 35.576 23.8739 35.444 23.9219 35.336C23.9699 35.228 24.0539 35.144 24.1739 35.084C24.3059 35.012 24.4859 34.976 24.7139 34.976C24.9779 34.976 25.1639 35 25.2719 35.048C25.3799 35.096 25.4879 35.18 25.5959 35.3L32.3639 44.876V35.732C32.3639 35.576 32.3819 35.444 32.4179 35.336C32.4659 35.228 32.5499 35.144 32.6699 35.084C32.7899 35.012 32.9639 34.976 33.1919 34.976C33.4079 34.976 33.5699 35.012 33.6779 35.084C33.7979 35.156 33.8759 35.258 33.9119 35.39C33.9599 35.51 33.9839 35.648 33.9839 35.804V46.712C33.9839 46.868 33.9539 47.012 33.8939 47.144C33.8459 47.264 33.7559 47.36 33.6239 47.432C33.5039 47.504 33.3299 47.54 33.1019 47.54C32.9099 47.54 32.7479 47.516 32.6159 47.468C32.4959 47.42 32.3819 47.33 32.2739 47.198L25.4699 37.694V46.712C25.4699 46.868 25.4459 47.012 25.3979 47.144C25.3499 47.264 25.2659 47.36 25.1459 47.432C25.0259 47.504 24.8519 47.54 24.6239 47.54ZM43.9741 47.522C43.7101 47.522 43.5181 47.468 43.3981 47.36C43.2901 47.252 43.2241 47.084 43.2001 46.856L43.2721 45.956C43.1521 46.148 42.9661 46.37 42.7141 46.622C42.4621 46.862 42.1321 47.078 41.7241 47.27C41.3161 47.45 40.8181 47.54 40.2301 47.54C39.6541 47.54 39.1141 47.426 38.6101 47.198C38.1181 46.97 37.6801 46.652 37.2961 46.244C36.9241 45.836 36.6301 45.368 36.4141 44.84C36.2101 44.312 36.1081 43.748 36.1081 43.148C36.1081 42.56 36.2101 42.008 36.4141 41.492C36.6301 40.964 36.9301 40.502 37.3141 40.106C37.6981 39.71 38.1361 39.398 38.6281 39.17C39.1321 38.942 39.6661 38.828 40.2301 38.828C40.7581 38.828 41.2081 38.9 41.5801 39.044C41.9521 39.176 42.2701 39.356 42.5341 39.584C42.8101 39.8 43.0501 40.046 43.2541 40.322L43.2181 39.566C43.2061 39.302 43.2601 39.116 43.3801 39.008C43.5121 38.888 43.7161 38.828 43.9921 38.828C44.2201 38.828 44.3821 38.864 44.4781 38.936C44.5861 39.008 44.6581 39.11 44.6941 39.242C44.7301 39.374 44.7481 39.536 44.7481 39.728V46.676C44.7481 46.844 44.7301 46.994 44.6941 47.126C44.6581 47.258 44.5861 47.354 44.4781 47.414C44.3701 47.486 44.2021 47.522 43.9741 47.522ZM40.5001 46.028C40.9801 46.028 41.4181 45.902 41.8141 45.65C42.2221 45.398 42.5401 45.062 42.7681 44.642C43.0081 44.21 43.1281 43.718 43.1281 43.166C43.1281 42.602 43.0021 42.11 42.7501 41.69C42.5101 41.258 42.1861 40.922 41.7781 40.682C41.3821 40.43 40.9441 40.304 40.4641 40.304C39.9001 40.304 39.4081 40.436 38.9881 40.7C38.5801 40.952 38.2561 41.294 38.0161 41.726C37.7761 42.158 37.6561 42.65 37.6561 43.202C37.6561 43.742 37.7761 44.228 38.0161 44.66C38.2561 45.08 38.5861 45.416 39.0061 45.668C39.4381 45.908 39.9361 46.028 40.5001 46.028ZM47.668 47.54C47.44 47.54 47.272 47.504 47.164 47.432C47.056 47.36 46.984 47.264 46.948 47.144C46.912 47.024 46.894 46.88 46.894 46.712V39.584C46.894 39.416 46.912 39.278 46.948 39.17C46.984 39.062 47.056 38.978 47.164 38.918C47.284 38.858 47.458 38.828 47.686 38.828C47.95 38.828 48.136 38.882 48.244 38.99C48.364 39.086 48.424 39.26 48.424 39.512L48.352 40.286C48.436 40.106 48.562 39.926 48.73 39.746C48.898 39.566 49.096 39.404 49.324 39.26C49.564 39.116 49.816 39.002 50.08 38.918C50.344 38.834 50.614 38.792 50.89 38.792C51.31 38.792 51.682 38.87 52.006 39.026C52.342 39.17 52.642 39.38 52.906 39.656C53.17 39.932 53.392 40.274 53.572 40.682C53.812 40.286 54.064 39.95 54.328 39.674C54.604 39.386 54.916 39.17 55.264 39.026C55.612 38.87 56.002 38.792 56.434 38.792C57.118 38.792 57.688 38.966 58.144 39.314C58.612 39.65 58.96 40.13 59.188 40.754C59.428 41.366 59.548 42.104 59.548 42.968V46.73C59.548 46.898 59.53 47.042 59.494 47.162C59.47 47.282 59.398 47.372 59.278 47.432C59.17 47.504 58.996 47.54 58.756 47.54C58.528 47.54 58.354 47.504 58.234 47.432C58.126 47.36 58.054 47.264 58.018 47.144C57.982 47.024 57.964 46.88 57.964 46.712V42.95C57.964 42.41 57.898 41.948 57.766 41.564C57.646 41.168 57.454 40.862 57.19 40.646C56.938 40.43 56.608 40.322 56.2 40.322C55.768 40.322 55.384 40.43 55.048 40.646C54.724 40.85 54.472 41.15 54.292 41.546C54.112 41.942 54.022 42.41 54.022 42.95V46.748C54.022 46.928 53.986 47.084 53.914 47.216C53.842 47.348 53.734 47.438 53.59 47.486C53.446 47.546 53.272 47.558 53.068 47.522C52.876 47.498 52.732 47.45 52.636 47.378C52.54 47.306 52.48 47.216 52.456 47.108C52.432 46.988 52.42 46.856 52.42 46.712V42.95C52.42 42.41 52.354 41.948 52.222 41.564C52.102 41.168 51.91 40.862 51.646 40.646C51.394 40.43 51.064 40.322 50.656 40.322C50.224 40.322 49.84 40.436 49.504 40.664C49.18 40.88 48.928 41.186 48.748 41.582C48.568 41.978 48.478 42.434 48.478 42.95V46.73C48.478 46.898 48.46 47.042 48.424 47.162C48.388 47.282 48.31 47.372 48.19 47.432C48.082 47.504 47.908 47.54 47.668 47.54ZM65.8691 47.63C65.1491 47.63 64.5071 47.51 63.9431 47.27C63.3791 47.03 62.8991 46.706 62.5031 46.298C62.1191 45.878 61.8251 45.398 61.6211 44.858C61.4171 44.318 61.3151 43.736 61.3151 43.112C61.3151 42.284 61.5071 41.546 61.8911 40.898C62.2751 40.25 62.8031 39.74 63.4751 39.368C64.1591 38.984 64.9391 38.792 65.8151 38.792C66.4151 38.792 66.9491 38.888 67.4171 39.08C67.8971 39.26 68.3051 39.506 68.6411 39.818C68.9771 40.13 69.2351 40.478 69.4151 40.862C69.5951 41.246 69.6851 41.63 69.6851 42.014C69.6851 42.626 69.5411 43.058 69.2531 43.31C68.9651 43.55 68.6111 43.67 68.1911 43.67H62.9891C62.9771 44.198 63.1151 44.654 63.4031 45.038C63.7031 45.41 64.0751 45.698 64.5191 45.902C64.9751 46.106 65.4311 46.208 65.8871 46.208C66.2231 46.208 66.5111 46.19 66.7511 46.154C66.9911 46.118 67.2011 46.07 67.3811 46.01C67.5611 45.95 67.7171 45.89 67.8491 45.83C67.9811 45.77 68.0951 45.71 68.1911 45.65C68.2991 45.59 68.4011 45.548 68.4971 45.524C68.6051 45.5 68.7071 45.512 68.8031 45.56C68.9111 45.596 68.9951 45.674 69.0551 45.794C69.1271 45.89 69.1751 45.98 69.1991 46.064C69.2231 46.148 69.2351 46.238 69.2351 46.334C69.2351 46.502 69.0911 46.688 68.8031 46.892C68.5151 47.096 68.1131 47.27 67.5971 47.414C67.0931 47.558 66.5171 47.63 65.8691 47.63ZM62.9891 42.608H67.5071C67.7351 42.608 67.9031 42.578 68.0111 42.518C68.1311 42.458 68.1911 42.296 68.1911 42.032C68.1911 41.696 68.0891 41.396 67.8851 41.132C67.6811 40.856 67.3991 40.634 67.0391 40.466C66.6911 40.298 66.2891 40.214 65.8331 40.214C65.3051 40.214 64.8191 40.322 64.3751 40.538C63.9431 40.742 63.6011 41.024 63.3491 41.384C63.0971 41.744 62.9771 42.152 62.9891 42.608ZM85.1461 47.54C84.9181 47.54 84.7441 47.504 84.6241 47.432C84.5161 47.372 84.4441 47.282 84.4081 47.162C84.3721 47.03 84.3541 46.88 84.3541 46.712V35.786C84.3541 35.618 84.3721 35.474 84.4081 35.354C84.4441 35.234 84.5221 35.144 84.6421 35.084C84.7621 35.012 84.9361 34.976 85.1641 34.976C85.4041 34.976 85.5781 35.012 85.6861 35.084C85.8061 35.144 85.8841 35.234 85.9201 35.354C85.9561 35.474 85.9741 35.624 85.9741 35.804V46.73C85.9741 46.898 85.9501 47.042 85.9021 47.162C85.8661 47.282 85.7881 47.372 85.6681 47.432C85.5601 47.504 85.3861 47.54 85.1461 47.54ZM77.0461 47.54C76.8061 47.54 76.6261 47.504 76.5061 47.432C76.3981 47.372 76.3261 47.282 76.2901 47.162C76.2541 47.03 76.2361 46.88 76.2361 46.712V35.786C76.2361 35.618 76.2541 35.474 76.2901 35.354C76.3381 35.234 76.4161 35.144 76.5241 35.084C76.6441 35.012 76.8241 34.976 77.0641 34.976C77.2921 34.976 77.4601 35.012 77.5681 35.084C77.6881 35.144 77.7661 35.234 77.8021 35.354C77.8381 35.474 77.8561 35.624 77.8561 35.804V46.73C77.8561 46.898 77.8381 47.042 77.8021 47.162C77.7661 47.282 77.6881 47.372 77.5681 47.432C77.4481 47.504 77.2741 47.54 77.0461 47.54ZM77.1181 41.852V40.34H84.6421L84.6241 41.852H77.1181ZM92.5175 47.63C91.7975 47.63 91.1555 47.51 90.5915 47.27C90.0275 47.03 89.5475 46.706 89.1515 46.298C88.7675 45.878 88.4735 45.398 88.2695 44.858C88.0655 44.318 87.9635 43.736 87.9635 43.112C87.9635 42.284 88.1555 41.546 88.5395 40.898C88.9235 40.25 89.4515 39.74 90.1235 39.368C90.8075 38.984 91.5875 38.792 92.4635 38.792C93.0635 38.792 93.5975 38.888 94.0655 39.08C94.5455 39.26 94.9535 39.506 95.2895 39.818C95.6255 40.13 95.8835 40.478 96.0635 40.862C96.2435 41.246 96.3335 41.63 96.3335 42.014C96.3335 42.626 96.1895 43.058 95.9015 43.31C95.6135 43.55 95.2595 43.67 94.8395 43.67H89.6375C89.6255 44.198 89.7635 44.654 90.0515 45.038C90.3515 45.41 90.7235 45.698 91.1675 45.902C91.6235 46.106 92.0795 46.208 92.5355 46.208C92.8715 46.208 93.1595 46.19 93.3995 46.154C93.6395 46.118 93.8495 46.07 94.0295 46.01C94.2095 45.95 94.3655 45.89 94.4975 45.83C94.6295 45.77 94.7435 45.71 94.8395 45.65C94.9475 45.59 95.0495 45.548 95.1455 45.524C95.2535 45.5 95.3555 45.512 95.4515 45.56C95.5595 45.596 95.6435 45.674 95.7035 45.794C95.7755 45.89 95.8235 45.98 95.8475 46.064C95.8715 46.148 95.8835 46.238 95.8835 46.334C95.8835 46.502 95.7395 46.688 95.4515 46.892C95.1635 47.096 94.7615 47.27 94.2455 47.414C93.7415 47.558 93.1655 47.63 92.5175 47.63ZM89.6375 42.608H94.1555C94.3835 42.608 94.5515 42.578 94.6595 42.518C94.7795 42.458 94.8395 42.296 94.8395 42.032C94.8395 41.696 94.7375 41.396 94.5335 41.132C94.3295 40.856 94.0475 40.634 93.6875 40.466C93.3395 40.298 92.9375 40.214 92.4815 40.214C91.9535 40.214 91.4675 40.322 91.0235 40.538C90.5915 40.742 90.2495 41.024 89.9975 41.384C89.7455 41.744 89.6255 42.152 89.6375 42.608ZM98.9262 47.54C98.6982 47.54 98.5242 47.504 98.4042 47.432C98.2962 47.372 98.2242 47.282 98.1882 47.162C98.1642 47.03 98.1522 46.88 98.1522 46.712V39.62C98.1522 39.44 98.1702 39.29 98.2062 39.17C98.2422 39.05 98.3142 38.966 98.4222 38.918C98.5302 38.858 98.7042 38.828 98.9442 38.828C99.1602 38.828 99.3222 38.858 99.4302 38.918C99.5502 38.966 99.6282 39.044 99.6642 39.152C99.7122 39.248 99.7362 39.362 99.7362 39.494L99.6642 40.034C99.7482 39.878 99.8442 39.722 99.9522 39.566C100.072 39.41 100.216 39.272 100.384 39.152C100.564 39.02 100.774 38.912 101.014 38.828C101.266 38.744 101.572 38.702 101.932 38.702C102.112 38.702 102.28 38.72 102.436 38.756C102.604 38.78 102.76 38.822 102.904 38.882C103.06 38.942 103.192 39.014 103.3 39.098C103.408 39.17 103.492 39.254 103.552 39.35C103.624 39.434 103.66 39.536 103.66 39.656C103.66 39.92 103.576 40.148 103.408 40.34C103.24 40.52 103.066 40.61 102.886 40.61C102.73 40.61 102.616 40.592 102.544 40.556C102.472 40.508 102.4 40.46 102.328 40.412C102.268 40.364 102.178 40.322 102.058 40.286C101.938 40.238 101.746 40.214 101.482 40.214C101.302 40.214 101.11 40.25 100.906 40.322C100.714 40.394 100.528 40.502 100.348 40.646C100.168 40.778 100.018 40.952 99.8982 41.168C99.7902 41.384 99.7362 41.636 99.7362 41.924V46.748C99.7362 46.916 99.7182 47.06 99.6822 47.18C99.6462 47.3 99.5682 47.39 99.4482 47.45C99.3402 47.51 99.1662 47.54 98.9262 47.54ZM109.006 47.63C108.286 47.63 107.644 47.51 107.08 47.27C106.516 47.03 106.036 46.706 105.64 46.298C105.256 45.878 104.962 45.398 104.758 44.858C104.554 44.318 104.452 43.736 104.452 43.112C104.452 42.284 104.644 41.546 105.028 40.898C105.412 40.25 105.94 39.74 106.612 39.368C107.296 38.984 108.076 38.792 108.952 38.792C109.552 38.792 110.086 38.888 110.554 39.08C111.034 39.26 111.442 39.506 111.778 39.818C112.114 40.13 112.372 40.478 112.552 40.862C112.732 41.246 112.822 41.63 112.822 42.014C112.822 42.626 112.678 43.058 112.39 43.31C112.102 43.55 111.748 43.67 111.328 43.67H106.126C106.114 44.198 106.252 44.654 106.54 45.038C106.84 45.41 107.212 45.698 107.656 45.902C108.112 46.106 108.568 46.208 109.024 46.208C109.36 46.208 109.648 46.19 109.888 46.154C110.128 46.118 110.338 46.07 110.518 46.01C110.698 45.95 110.854 45.89 110.986 45.83C111.118 45.77 111.232 45.71 111.328 45.65C111.436 45.59 111.538 45.548 111.634 45.524C111.742 45.5 111.844 45.512 111.94 45.56C112.048 45.596 112.132 45.674 112.192 45.794C112.264 45.89 112.312 45.98 112.336 46.064C112.36 46.148 112.372 46.238 112.372 46.334C112.372 46.502 112.228 46.688 111.94 46.892C111.652 47.096 111.25 47.27 110.734 47.414C110.23 47.558 109.654 47.63 109.006 47.63ZM106.126 42.608H110.644C110.872 42.608 111.04 42.578 111.148 42.518C111.268 42.458 111.328 42.296 111.328 42.032C111.328 41.696 111.226 41.396 111.022 41.132C110.818 40.856 110.536 40.634 110.176 40.466C109.828 40.298 109.426 40.214 108.97 40.214C108.442 40.214 107.956 40.322 107.512 40.538C107.08 40.742 106.738 41.024 106.486 41.384C106.234 41.744 106.114 42.152 106.126 42.608ZM23.549 66.4616C23.549 66.4616 23.5367 66.4575 23.5123 66.4493C23.4878 66.4412 23.4633 66.4167 23.4388 66.3759C23.4143 66.3433 23.4021 66.2821 23.4021 66.1923C23.4021 66.0617 23.4184 65.9801 23.4511 65.9475C23.4919 65.9149 23.5204 65.8985 23.5367 65.8985C23.5367 65.8904 23.5816 65.8496 23.6714 65.7761C23.7611 65.7109 23.8142 65.5885 23.8305 65.4089C23.7652 65.4008 23.7081 65.3845 23.6591 65.36C23.6102 65.3355 23.5653 65.3029 23.5245 65.2621C23.4592 65.2049 23.4225 65.1315 23.4143 65.0417C23.4062 64.9438 23.4021 64.8541 23.4021 64.7725C23.4021 64.6664 23.4103 64.5644 23.4266 64.4665C23.4429 64.3685 23.4959 64.291 23.5857 64.2339C23.6755 64.1686 23.8305 64.136 24.0508 64.136C24.2956 64.136 24.467 64.1849 24.5649 64.2829C24.622 64.34 24.6547 64.4134 24.6628 64.5032C24.6791 64.5929 24.6873 64.6868 24.6873 64.7847C24.6873 64.8337 24.6873 64.8785 24.6873 64.9193C24.6873 64.9601 24.6791 65.005 24.6628 65.054C24.6465 65.2988 24.5853 65.5273 24.4792 65.7394C24.3731 65.9597 24.2385 66.1352 24.0753 66.2657C23.9121 66.3963 23.7367 66.4616 23.549 66.4616ZM28.0351 67.8692C27.929 67.8692 27.8352 67.8529 27.7536 67.8202C27.672 67.7957 27.6108 67.7468 27.57 67.6733C27.521 67.5999 27.4966 67.4857 27.4966 67.3306C27.4966 67.1837 27.521 67.0736 27.57 67.0001C27.6108 66.9267 27.6761 66.8737 27.7658 66.841C27.8474 66.8165 27.9413 66.8043 28.0474 66.8043C28.235 66.8043 28.4146 66.788 28.5859 66.7553C28.7654 66.7227 28.9205 66.6574 29.051 66.5595C29.1898 66.4616 29.2958 66.3147 29.3693 66.1189C29.4509 65.9312 29.4917 65.6864 29.4917 65.3845V60.0601C29.4917 59.954 29.5039 59.8642 29.5284 59.7908C29.5529 59.7173 29.6018 59.6602 29.6753 59.6194C29.7569 59.5705 29.8752 59.546 30.0302 59.546C30.1771 59.546 30.2873 59.5705 30.3607 59.6194C30.4423 59.6602 30.4954 59.7255 30.5198 59.8153C30.5443 59.8969 30.5566 59.9948 30.5566 60.109V65.3845C30.5566 65.8088 30.4913 66.176 30.3607 66.4861C30.2302 66.8043 30.0506 67.0654 29.8222 67.2694C29.5937 67.4734 29.3285 67.6244 29.0266 67.7223C28.7246 67.8202 28.3942 67.8692 28.0351 67.8692ZM30.0058 58.0772C29.7691 58.0772 29.6059 58.0323 29.5162 57.9425C29.4346 57.8446 29.3938 57.6773 29.3938 57.4407C29.3938 57.2041 29.4386 57.0449 29.5284 56.9633C29.6182 56.8736 29.7814 56.8287 30.018 56.8287C30.2546 56.8287 30.4138 56.8777 30.4954 56.9756C30.5851 57.0653 30.63 57.2285 30.63 57.4652C30.63 57.6937 30.5851 57.8528 30.4954 57.9425C30.4056 58.0323 30.2424 58.0772 30.0058 58.0772ZM34.9291 65.5558C34.5293 65.5558 34.1458 65.4783 33.7786 65.3233C33.4195 65.1682 33.0972 64.9561 32.8116 64.6868C32.526 64.4093 32.3016 64.087 32.1384 63.7198C31.9752 63.3526 31.8936 62.9528 31.8936 62.5203C31.8936 62.096 31.9711 61.7043 32.1262 61.3453C32.2812 60.9781 32.4974 60.6557 32.7749 60.3783C33.0523 60.1009 33.3706 59.8846 33.7296 59.7296C34.0968 59.5664 34.4885 59.4848 34.9046 59.4848C35.4677 59.4848 35.9736 59.6194 36.4224 59.8887C36.8794 60.1498 37.2425 60.5089 37.5118 60.9658C37.781 61.4228 37.9157 61.9369 37.9157 62.5081C37.9157 62.9569 37.8341 63.3689 37.6709 63.7443C37.5077 64.1115 37.2874 64.4297 37.0099 64.699C36.7325 64.9683 36.4142 65.1805 36.0552 65.3355C35.6962 65.4824 35.3208 65.5558 34.9291 65.5558ZM34.9046 64.4909C35.2474 64.4909 35.5656 64.4053 35.8594 64.2339C36.1531 64.0625 36.3898 63.8259 36.5693 63.524C36.7488 63.2221 36.8386 62.8793 36.8386 62.4958C36.8386 62.1123 36.7529 61.7737 36.5815 61.4799C36.4183 61.1861 36.1898 60.9577 35.8961 60.7945C35.6023 60.6313 35.2678 60.5497 34.8924 60.5497C34.5334 60.5497 34.207 60.6353 33.9132 60.8067C33.6276 60.9781 33.395 61.2106 33.2155 61.5044C33.0442 61.7981 32.9585 62.1327 32.9585 62.5081C32.9585 62.8997 33.0482 63.2465 33.2278 63.5485C33.4073 63.8422 33.6439 64.0748 33.9377 64.2461C34.2396 64.4093 34.5619 64.4909 34.9046 64.4909ZM42.121 65.4824C41.7211 65.4824 41.358 65.4089 41.0316 65.2621C40.7052 65.1152 40.4278 64.9071 40.1993 64.6378C39.9708 64.3685 39.7913 64.0544 39.6607 63.6953C39.5383 63.3363 39.4812 62.9405 39.4894 62.5081C39.4894 62.0837 39.5506 61.6921 39.673 61.333C39.7954 60.9658 39.9708 60.6517 40.1993 60.3905C40.4359 60.1213 40.7134 59.9132 41.0316 59.7663C41.358 59.6194 41.7211 59.546 42.121 59.546C42.4963 59.546 42.8472 59.6194 43.1736 59.7663C43.5082 59.9132 43.7979 60.1213 44.0427 60.3905C44.2956 60.6517 44.4915 60.9617 44.6302 61.3208C44.7771 61.6798 44.8505 62.0715 44.8505 62.4958C44.8505 62.9283 44.7771 63.3281 44.6302 63.6953C44.4915 64.0544 44.2956 64.3685 44.0427 64.6378C43.7979 64.9071 43.5082 65.1152 43.1736 65.2621C42.8472 65.4089 42.4963 65.4824 42.121 65.4824ZM41.9619 64.442C42.3046 64.442 42.6147 64.3604 42.8921 64.1972C43.1695 64.034 43.3858 63.8096 43.5408 63.524C43.704 63.2302 43.7856 62.8957 43.7856 62.5203C43.7856 62.1368 43.704 61.8022 43.5408 61.5166C43.3858 61.2229 43.1695 60.9944 42.8921 60.8312C42.6228 60.668 42.3127 60.5864 41.9619 60.5864C41.6191 60.5864 41.3091 60.668 41.0316 60.8312C40.7623 60.9944 40.5461 61.2229 40.3829 61.5166C40.2279 61.8022 40.1503 62.1368 40.1503 62.5203C40.1503 62.8957 40.2279 63.2302 40.3829 63.524C40.5461 63.8096 40.7623 64.034 41.0316 64.1972C41.3091 64.3604 41.6191 64.442 41.9619 64.442ZM39.5751 65.4946C39.42 65.4946 39.3017 65.4701 39.2201 65.4212C39.1467 65.3804 39.0977 65.3192 39.0732 65.2376C39.0487 65.1478 39.0365 65.0499 39.0365 64.9438V57.3917C39.0365 57.2693 39.0487 57.1673 39.0732 57.0857C39.0977 57.0041 39.1467 56.9429 39.2201 56.9021C39.3017 56.8532 39.42 56.8287 39.5751 56.8287C39.7301 56.8287 39.8443 56.8532 39.9178 56.9021C39.9912 56.9511 40.0402 57.0164 40.0647 57.098C40.0891 57.1796 40.1014 57.2775 40.1014 57.3917V65.054C40.0851 65.209 40.0361 65.3192 39.9545 65.3845C39.8811 65.4579 39.7546 65.4946 39.5751 65.4946Z" fill="white"/>
</g>
<defs>
<clipPath id="clip0_1094_65602">
<rect width="324" height="180" fill="white"/>
</clipPath>
</defs>
</svg>
