<svg width="324" height="180" viewBox="0 0 324 180" fill="none" xmlns="http://www.w3.org/2000/svg">
<rect width="324" height="180" fill="#434534"/>
<path d="M53.5678 107.52H55.0366V122.208C55.3102 122.208 55.7422 122.165 56.3326 122.078L59.9182 121.538V122.64H53.5678V107.52ZM61.7901 115.08C61.7901 113.971 61.9845 112.942 62.3733 111.991C62.7765 111.026 63.3309 110.191 64.0365 109.486C64.7565 108.766 65.5917 108.211 66.5421 107.822C67.5069 107.419 68.5437 107.218 69.6525 107.218C70.7613 107.218 71.7909 107.419 72.7413 107.822C73.7061 108.211 74.5413 108.766 75.2469 109.486C75.9669 110.191 76.5213 111.026 76.9101 111.991C77.3133 112.942 77.5149 113.971 77.5149 115.08C77.5149 116.189 77.3133 117.226 76.9101 118.19C76.5213 119.141 75.9669 119.976 75.2469 120.696C74.5413 121.402 73.7061 121.956 72.7413 122.359C71.7909 122.748 70.7613 122.942 69.6525 122.942C68.5437 122.942 67.5069 122.748 66.5421 122.359C65.5917 121.956 64.7565 121.402 64.0365 120.696C63.3309 119.976 62.7765 119.141 62.3733 118.19C61.9845 117.226 61.7901 116.189 61.7901 115.08ZM63.4317 115.08C63.4317 116.549 63.6909 117.838 64.2093 118.946C64.7277 120.041 65.4549 120.898 66.3909 121.517C67.3269 122.122 68.4141 122.424 69.6525 122.424C70.8909 122.424 71.9781 122.122 72.9141 121.517C73.8501 120.898 74.5773 120.034 75.0957 118.925C75.6141 117.816 75.8733 116.534 75.8733 115.08C75.8733 113.626 75.6141 112.351 75.0957 111.257C74.5773 110.148 73.8501 109.284 72.9141 108.665C71.9781 108.046 70.8909 107.736 69.6525 107.736C68.4141 107.736 67.3269 108.046 66.3909 108.665C65.4693 109.27 64.7421 110.126 64.2093 111.235C63.6909 112.33 63.4317 113.611 63.4317 115.08ZM89.5827 115.469V114.95H95.0475V120.826C94.3851 121.488 93.5715 122.006 92.6067 122.381C91.6563 122.755 90.5907 122.942 89.4099 122.942C88.2003 122.942 87.0843 122.748 86.0619 122.359C85.0395 121.956 84.1467 121.402 83.3835 120.696C82.6203 119.976 82.0227 119.141 81.5907 118.19C81.1731 117.24 80.9643 116.203 80.9643 115.08C80.9643 113.957 81.1731 112.92 81.5907 111.97C82.0227 111.019 82.6203 110.191 83.3835 109.486C84.1467 108.766 85.0395 108.211 86.0619 107.822C87.0843 107.419 88.2003 107.218 89.4099 107.218C89.9283 107.218 90.4899 107.254 91.0947 107.326C91.7139 107.398 92.3043 107.498 92.8659 107.628C93.4275 107.743 93.9027 107.887 94.2915 108.06L94.1835 109.27H94.0539C93.4779 108.766 92.7867 108.384 91.9803 108.125C91.1739 107.866 90.3171 107.736 89.4099 107.736C88.0563 107.736 86.8683 108.046 85.8459 108.665C84.8235 109.27 84.0243 110.126 83.4483 111.235C82.8867 112.33 82.6059 113.611 82.6059 115.08C82.6059 116.549 82.8867 117.838 83.4483 118.946C84.0243 120.041 84.8235 120.898 85.8459 121.517C86.8683 122.122 88.0563 122.424 89.4099 122.424C90.2451 122.424 91.0155 122.309 91.7211 122.078C92.4411 121.848 93.0603 121.517 93.5787 121.085V115.469H89.5827ZM98.9362 115.08C98.9362 113.971 99.1306 112.942 99.5194 111.991C99.9226 111.026 100.477 110.191 101.183 109.486C101.903 108.766 102.738 108.211 103.688 107.822C104.653 107.419 105.69 107.218 106.799 107.218C107.907 107.218 108.937 107.419 109.887 107.822C110.852 108.211 111.687 108.766 112.393 109.486C113.113 110.191 113.667 111.026 114.056 111.991C114.459 112.942 114.661 113.971 114.661 115.08C114.661 116.189 114.459 117.226 114.056 118.19C113.667 119.141 113.113 119.976 112.393 120.696C111.687 121.402 110.852 121.956 109.887 122.359C108.937 122.748 107.907 122.942 106.799 122.942C105.69 122.942 104.653 122.748 103.688 122.359C102.738 121.956 101.903 121.402 101.183 120.696C100.477 119.976 99.9226 119.141 99.5194 118.19C99.1306 117.226 98.9362 116.189 98.9362 115.08ZM100.578 115.08C100.578 116.549 100.837 117.838 101.355 118.946C101.874 120.041 102.601 120.898 103.537 121.517C104.473 122.122 105.56 122.424 106.799 122.424C108.037 122.424 109.124 122.122 110.06 121.517C110.996 120.898 111.723 120.034 112.242 118.925C112.76 117.816 113.019 116.534 113.019 115.08C113.019 113.626 112.76 112.351 112.242 111.257C111.723 110.148 110.996 109.284 110.06 108.665C109.124 108.046 108.037 107.736 106.799 107.736C105.56 107.736 104.473 108.046 103.537 108.665C102.615 109.27 101.888 110.126 101.355 111.235C100.837 112.33 100.578 113.611 100.578 115.08ZM53.5678 154.64V139.52H55.0366V146.518H64.1086V139.52H65.5774V154.64H64.1086V147.037H55.0366V154.64H53.5678ZM71.2021 154.64V139.52H77.7901V140.578L74.0101 140.082C73.3477 139.995 72.9013 139.952 72.6709 139.952V146.54C72.8581 146.54 73.3045 146.518 74.0101 146.475L77.5525 146.259V147.253L74.0101 147.037C73.3045 146.994 72.8581 146.972 72.6709 146.972V154.208C72.9301 154.208 73.3837 154.165 74.0317 154.078L77.8549 153.582V154.64H71.2021ZM82.3818 139.52H85.2762C86.8026 139.52 87.9834 139.844 88.8186 140.492C89.6682 141.126 90.093 142.018 90.093 143.17C90.093 144.063 89.8266 144.805 89.2938 145.395C88.7754 145.986 88.0194 146.382 87.0258 146.583V146.713C87.9762 146.9 88.7538 147.346 89.3586 148.052C89.9634 148.758 90.417 149.629 90.7194 150.666C90.993 151.616 91.2594 152.358 91.5186 152.89C91.7922 153.409 92.0874 153.783 92.4042 154.014C92.7354 154.244 93.1242 154.41 93.5706 154.51V154.64H92.685C92.0514 154.64 91.5258 154.525 91.1082 154.294C90.705 154.064 90.3594 153.675 90.0714 153.128C89.7834 152.581 89.5098 151.825 89.2506 150.86C88.833 149.377 88.2786 148.326 87.5874 147.706C86.8962 147.087 86.0538 146.778 85.0602 146.778H84.9306V146.389H85.0602C87.3786 146.389 88.5378 145.323 88.5378 143.192C88.5378 141.09 87.4506 140.038 85.2762 140.038H83.8506V154.64H82.3818V139.52ZM96.2404 154.64V139.52H102.828V140.578L99.0484 140.082C98.386 139.995 97.9396 139.952 97.7092 139.952V146.54C97.8964 146.54 98.3428 146.518 99.0484 146.475L102.591 146.259V147.253L99.0484 147.037C98.3428 146.994 97.8964 146.972 97.7092 146.972V154.208C97.9684 154.208 98.422 154.165 99.07 154.078L102.893 153.582V154.64H96.2404Z" fill="white"/>
<path d="M34.5025 109.339C35.4433 109.339 36.1825 109.44 36.7201 109.642L36.3673 111.053C36.0313 110.918 35.7121 110.851 35.4097 110.851C34.2001 110.851 33.3937 111.238 32.9905 112.01C32.6209 112.783 32.4361 113.875 32.4361 115.286L32.4865 120.175C32.4865 123.3 31.9825 125.921 30.9745 128.038C29.9665 130.121 28.1017 131.33 25.3801 131.666V131.918C28.1017 132.154 29.9497 133.363 30.9241 135.547C31.9321 137.731 32.4361 140.419 32.4361 143.611V148.248C32.4361 149.29 32.4697 150.113 32.5369 150.718C32.6377 151.322 32.9065 151.826 33.3433 152.23C33.7801 152.633 34.4689 152.834 35.4097 152.834C35.8801 152.834 36.1993 152.818 36.3673 152.784L36.7201 154.145C36.1825 154.346 35.4433 154.447 34.5025 154.447C31.6801 154.447 29.7985 153.456 28.8577 151.474C27.9505 149.525 27.4969 146.971 27.4969 143.813L27.5473 140.285C27.5473 138.101 27.1777 136.354 26.4385 135.043C25.6993 133.733 24.2041 132.96 21.9529 132.725V130.961C23.5993 130.759 24.8089 130.306 25.5817 129.6C26.3881 128.861 26.9089 127.97 27.1441 126.929C27.3793 125.854 27.4969 124.493 27.4969 122.846V120.074C27.4969 117.991 27.6481 116.194 27.9505 114.682C28.2529 113.17 28.9081 111.91 29.9161 110.902C30.9577 109.86 32.4865 109.339 34.5025 109.339Z" fill="white"/>
</svg>
